<?xml version="1.0" encoding="UTF-8"?>
<svg id="Layer_1" data-name="Layer 1" xmlns="http://www.w3.org/2000/svg" viewBox="0 0 165 165">
  <defs>
    <style>
      .cls-1 {
        fill: #4080d4;
      }

      .cls-1, .cls-2 {
        stroke-width: 0px;
      }

      .cls-2 {
        fill: #fff;
      }
    </style>
  </defs>
  <rect class="cls-2" x="59" y="33.5" width="43" height="80.5" rx="3.55" ry="3.55"/>
  <g>
    <g>
      <path class="cls-1" d="M85.69,115.77h-18.96c-.77,0-1.4-.63-1.4-1.4s.63-1.4,1.4-1.4h18.96c.77,0,1.4.63,1.4,1.4s-.63,1.4-1.4,1.4Z"/>
      <path class="cls-1" d="M59.35,92.18c-.77,0-1.4-.63-1.4-1.4v-52.06c0-3.68,3-6.68,6.68-6.68h31.74c3.68,0,6.68,3,6.68,6.68v43.51c0,.77-.63,1.4-1.4,1.4s-1.4-.63-1.4-1.4v-43.51c0-2.14-1.74-3.88-3.88-3.88h-31.74c-2.14,0-3.88,1.74-3.88,3.88v52.06c0,.77-.63,1.4-1.4,1.4Z"/>
      <path class="cls-1" d="M48.04,132.96c-.77,0-1.4-.63-1.4-1.4v-38.32c0-4.32,2.16-8.31,5.78-10.68l5.52-3.6c.65-.42,1.52-.24,1.94.41.42.65.24,1.52-.41,1.94l-5.52,3.6c-2.83,1.84-4.51,4.96-4.51,8.33v38.32c0,.77-.63,1.4-1.4,1.4Z"/>
      <path class="cls-1" d="M68.58,122.02c-.73,0-1.35-.57-1.4-1.31l-.09-1.45c-.19-2.93-2.08-5.52-4.82-6.59-.42-.17-.74-.53-.85-.97-.11-.44,0-.91.31-1.25l10.15-11.64c1.19-1.37,1.07-3.46-.28-4.68-1.26-1.14-3.18-1.15-4.45-.02l-14.11,12.5c-.58.51-1.46.46-1.98-.12-.51-.58-.46-1.46.12-1.98l14.11-12.5c2.34-2.07,5.86-2.06,8.18.03,2.48,2.23,2.71,6.09.52,8.6l-8.97,10.28c2.8,1.76,4.65,4.79,4.87,8.15l.09,1.45c.05.77-.54,1.44-1.31,1.49-.03,0-.06,0-.09,0Z"/>
      <path class="cls-1" d="M64.31,129.78h-1.2c-.77,0-1.4-.63-1.4-1.4s.63-1.4,1.4-1.4h1.2c4.16,0,7.82-2.8,8.91-6.81.2-.75.97-1.19,1.72-.99.75.2,1.19.97.98,1.72-1.42,5.23-6.19,8.88-11.61,8.88Z"/>
      <path class="cls-1" d="M70.74,132.96c-.77,0-1.4-.63-1.4-1.4v-5.34c0-.77.63-1.4,1.4-1.4s1.4.63,1.4,1.4v5.34c0,.77-.63,1.4-1.4,1.4Z"/>
    </g>
    <g>
      <g>
        <path class="cls-1" d="M93.81,112.52c-.45,0-.9-.22-1.17-.62-.04-.05-.07-.11-.09-.16l-12.38-24.32c-.4-.79-.62-1.68-.62-2.55,0-2.11,1.17-4.03,3.05-4.99,1.33-.68,2.85-.81,4.28-.35,1.43.46,2.59,1.45,3.27,2.78l4.4,8.68c.52-.79,1.24-1.47,2.14-1.93,2.72-1.39,6.06-.34,7.5,2.34.53-.82,1.27-1.49,2.16-1.95,1.33-.68,2.85-.81,4.28-.35,1.43.46,2.59,1.45,3.27,2.78l2.05,4c.35.69.08,1.53-.61,1.88-.69.35-1.53.08-1.88-.61l-2.05-4c-.34-.67-.92-1.16-1.64-1.39-.71-.23-1.47-.17-2.14.17-.67.34-1.16.92-1.39,1.64-.23.71-.17,1.47.17,2.14h0c.35.69.08,1.53-.61,1.88-.69.35-1.53.08-1.88-.61,0,0,0,0,0,0l-2.16-4.22c-.71-1.38-2.4-1.92-3.78-1.22-1.37.7-1.92,2.38-1.23,3.75l.02.03c.35.69.07,1.53-.61,1.88-.69.35-1.53.08-1.88-.61,0-.01-.02-.03-.02-.04l-6.58-12.98c-.34-.66-.92-1.16-1.63-1.39-.71-.23-1.48-.17-2.14.17-.94.48-1.53,1.44-1.53,2.5,0,.44.11.88.31,1.28l12.39,24.34c.34.66.1,1.47-.54,1.84-.22.13-.47.19-.71.19Z"/>
        <path class="cls-1" d="M95.95,132.96c-.2,0-.4-.04-.59-.13l-1.56-.73c-1.03-.48-1.98-1.14-2.81-1.94-.83-.8-1.51-1.73-2.03-2.74-1.49-2.9-1.53-6.38-.1-9.31l1.22-2.51c.34-.7,1.17-.99,1.87-.65.7.34.99,1.17.65,1.87l-1.22,2.52c-1.04,2.14-1.01,4.69.08,6.81.38.75.88,1.42,1.49,2.01.61.58,1.3,1.06,2.05,1.42l1.56.73c.7.33,1,1.16.67,1.86-.24.51-.74.8-1.27.8Z"/>
        <path class="cls-1" d="M136.96,127.81c-.62,0-1.19-.42-1.35-1.05l-1.42-5.47c-.75-2.88-1.82-5.69-3.17-8.34l-10.57-20.62c-.34-.67-.92-1.16-1.64-1.39-.72-.23-1.48-.17-2.14.17-1.38.71-1.92,2.4-1.22,3.78.35.69.08,1.53-.61,1.88-.69.35-1.53.08-1.88-.61-1.41-2.75-.32-6.14,2.43-7.55,1.34-.68,2.86-.81,4.28-.35,1.43.46,2.59,1.45,3.27,2.78l10.57,20.62c1.45,2.83,2.59,5.83,3.39,8.91l1.42,5.47c.19.75-.25,1.51-1,1.71-.12.03-.24.05-.35.05Z"/>
      </g>
      <path class="cls-1" d="M97.39,119.51c-.51,0-1-.28-1.25-.76l-3.59-7.02c-.35-.69-.08-1.53.61-1.88.69-.35,1.53-.08,1.88.61l3.59,7.02c.35.69.08,1.53-.61,1.88-.2.1-.42.15-.64.15Z"/>
      <path class="cls-1" d="M98.93,104.05c-.51,0-1-.28-1.25-.76l-3.42-6.68c-.35-.69-.08-1.53.61-1.88.69-.35,1.53-.08,1.88.61l3.42,6.68c.35.69.08,1.53-.61,1.88-.21.1-.42.15-.64.15Z"/>
      <path class="cls-1" d="M107.72,102.74c-.51,0-1-.28-1.25-.76l-2.56-4.99c-.35-.69-.08-1.53.61-1.88.69-.35,1.53-.08,1.88.61l2.56,4.99c.35.69.08,1.53-.61,1.88-.21.1-.42.15-.64.15Z"/>
      <path class="cls-1" d="M116.26,100.96c-.51,0-1-.28-1.25-.76l-1.56-3.05c-.35-.69-.08-1.53.61-1.88.69-.35,1.53-.08,1.88.61l1.56,3.05c.35.69.08,1.53-.61,1.88-.2.1-.42.15-.64.15Z"/>
    </g>
    <g>
      <path class="cls-1" d="M80.15,70.7c-2.44,0-4.7-1.05-6.04-2.8-.47-.61-.35-1.49.26-1.96.61-.47,1.49-.35,1.96.26.8,1.05,2.26,1.7,3.81,1.7,2.44,0,4.43-1.54,4.43-3.43,0-1.72-1.74-3.19-4.06-3.42-3.48-.27-6.09-2.74-6.09-5.76,0-3.19,3-5.79,6.69-5.79,2.22,0,4.29.94,5.53,2.52.48.61.37,1.49-.23,1.97-.61.48-1.49.37-1.97-.23-.72-.91-1.97-1.46-3.33-1.46-2.15,0-3.89,1.34-3.89,2.99,0,1.53,1.55,2.83,3.53,2.97.03,0,.05,0,.08,0,3.79.39,6.54,3,6.54,6.2,0,3.44-3.24,6.23-7.23,6.23Z"/>
      <path class="cls-1" d="M80.61,74.32c-.77,0-1.4-.63-1.4-1.4v-3.42c0-.77.63-1.4,1.4-1.4s1.4.63,1.4,1.4v3.42c0,.77-.63,1.4-1.4,1.4Z"/>
      <path class="cls-1" d="M80.61,51.99c-.77,0-1.4-.63-1.4-1.4v-3.56c0-.77.63-1.4,1.4-1.4s1.4.63,1.4,1.4v3.56c0,.77-.63,1.4-1.4,1.4Z"/>
    </g>
    <path class="cls-1" d="M85.76,40.52h-10.53c-.77,0-1.4-.63-1.4-1.4s.63-1.4,1.4-1.4h10.53c.77,0,1.4.63,1.4,1.4s-.63,1.4-1.4,1.4Z"/>
  </g>
</svg>