<?xml version="1.0" encoding="UTF-8"?>
<svg id="Layer_1" data-name="Layer 1" xmlns="http://www.w3.org/2000/svg" viewBox="0 0 165 165">
  <defs>
    <style>
      .cls-1 {
        fill: #4080d4;
      }

      .cls-1, .cls-2 {
        stroke-width: 0px;
      }

      .cls-2 {
        fill: #fff;
      }
    </style>
  </defs>
  <g>
    <g>
      <path class="cls-2" d="M104.7,79.47s-9.01,6.99-16.52,6.99v17.71c0,3.68,1.51,6.99,4.03,8.86,2.64,1.95,10.51,7.14,10.84,7.36l1.65,1.09,1.65-1.09c.33-.22,8.2-5.41,10.84-7.36,2.52-1.86,4.03-5.18,4.03-8.86v-17.71c-7.51,0-16.52-6.99-16.52-6.99Z"/>
      <path class="cls-1" d="M104.7,122.87c-.27,0-.54-.08-.77-.23l-1.65-1.09c-1.39-.92-8.4-5.55-10.9-7.4-2.88-2.13-4.6-5.86-4.6-9.98v-17.71c0-.77.63-1.4,1.4-1.4,6.94,0,15.58-6.63,15.66-6.69.5-.39,1.21-.39,1.71,0,.09.07,8.73,6.69,15.66,6.69.77,0,1.4.63,1.4,1.4v17.71c0,4.12-1.72,7.86-4.6,9.98-2.5,1.85-9.51,6.48-10.88,7.39l-1.67,1.1c-.23.15-.5.23-.77.23ZM89.58,87.79v16.38c0,3.24,1.29,6.13,3.46,7.73,2.5,1.85,9.92,6.75,10.76,7.3l.9.59.88-.58c.85-.56,8.28-5.47,10.78-7.31,2.17-1.6,3.46-4.49,3.46-7.73v-16.38c-6.21-.6-12.8-4.92-15.12-6.58-2.32,1.66-8.91,5.98-15.12,6.58Z"/>
    </g>
    <path class="cls-1" d="M103.35,106.73c-.37,0-.73-.15-.99-.41l-5.83-5.83c-.55-.55-.55-1.43,0-1.98.55-.55,1.43-.55,1.98,0l4.84,4.84,8.54-8.54c.55-.55,1.43-.55,1.98,0,.55.55.55,1.43,0,1.98l-9.53,9.53c-.26.26-.62.41-.99.41Z"/>
  </g>
  <g>
    <path class="cls-1" d="M59.6,85.08c-.83,0-1.51-.67-1.51-1.51v-40.24c0-3.58,2.92-6.5,6.5-6.5s6.5,2.92,6.5,6.5v34.31c0,.83-.67,1.51-1.51,1.51s-1.51-.67-1.51-1.51v-34.31c0-1.92-1.57-3.49-3.49-3.49s-3.49,1.57-3.49,3.49v40.24c0,.83-.67,1.51-1.51,1.51Z"/>
    <path class="cls-1" d="M79.58,79.15c-.83,0-1.51-.67-1.51-1.51v-34.31c0-3.58,2.92-6.5,6.5-6.5s6.5,2.92,6.5,6.5v29.29c0,.83-.67,1.51-1.51,1.51s-1.51-.67-1.51-1.51v-29.29c0-1.92-1.57-3.49-3.49-3.49s-3.49,1.57-3.49,3.49v34.31c0,.83-.67,1.51-1.51,1.51Z"/>
    <path class="cls-1" d="M95.25,131.5c-.83,0-1.51-.67-1.51-1.51v-6.93c0-.83.67-1.51,1.51-1.51s1.51.67,1.51,1.51v6.93c0,.83-.67,1.51-1.51,1.51Z"/>
    <path class="cls-1" d="M99.56,76.56c-.83,0-1.51-.67-1.51-1.51v-26.24c0-1.92-1.57-3.49-3.49-3.49s-3.49,1.56-3.49,3.49v22.8c0,.83-.67,1.51-1.51,1.51s-1.51-.67-1.51-1.51v-22.8c0-3.58,2.92-6.5,6.5-6.5s6.5,2.92,6.5,6.5v26.24c0,.83-.67,1.51-1.51,1.51Z"/>
    <path class="cls-1" d="M79.58,79.15c-.83,0-1.51-.67-1.51-1.51v-37.64c0-1.92-1.56-3.49-3.49-3.49s-3.49,1.57-3.49,3.49v37.64c0,.83-.67,1.51-1.51,1.51s-1.51-.67-1.51-1.51v-37.64c0-3.58,2.92-6.5,6.5-6.5s6.5,2.92,6.5,6.5v37.64c0,.83-.67,1.51-1.51,1.51Z"/>
    <path class="cls-1" d="M63.52,131.5c-.83,0-1.51-.67-1.51-1.51v-20.73c0-1.19-.53-2.31-1.44-3.07l-8.28-6.72c-1.14-.95-2.06-2.08-2.75-3.37l-6.65-12.69c-.52-.99-.9-2.05-1.11-3.16l-3.05-15.39c-.16-.8.35-1.58,1.14-1.76l.87-.2c2.31-.66,4.73-.37,6.82.83,2.1,1.21,3.58,3.17,4.16,5.52l2.37,9.38,6.08,5.39c6.4.08,14.88,1.54,20.12,7.78,3.3,3.94,3.71,7.91,3.72,8.07.08.83-.53,1.56-1.36,1.64-.82.08-1.56-.53-1.64-1.35,0-.06-.39-3.35-3.14-6.56-3.69-4.3-10.01-6.58-18.27-6.58-.37,0-.72-.13-1-.38l-6.86-6.07c-.23-.2-.39-.47-.46-.76l-2.48-9.84c-.38-1.55-1.36-2.84-2.74-3.64-1.26-.72-2.7-.95-4.1-.64l2.78,13.98c.16.82.43,1.6.81,2.32l6.65,12.69c.5.94,1.17,1.77,2,2.45l8.28,6.72c1.62,1.35,2.54,3.31,2.54,5.4v20.73c0,.83-.67,1.51-1.51,1.51Z"/>
  </g>
</svg>