<?xml version="1.0" encoding="UTF-8"?>
<svg id="Layer_1" data-name="Layer 1" xmlns="http://www.w3.org/2000/svg" viewBox="0 0 64 68">
  <defs>
    <style>
      .cls-1 {
        fill: #7ba0e9;
        stroke-width: 0px;
      }
    </style>
  </defs>
  <rect class="cls-1" x="14.94" y="42.89" width="2.83" height="2"/>
  <path class="cls-1" d="M27.8,25.85c-.5,0-1.01-.09-1.45-.29-.35-.15-2.88-.99-5.11-1.74-1.32-.44-2.68-.89-3.81-1.27-2.05-.69-3.8-2-5.05-3.79-.56-.78-1.08-1.79-1.59-2.78-.54-1.05-1.36-2.63-1.83-2.9l-3.26-.98c-.53-.16-.83-.72-.67-1.25.16-.53.71-.83,1.25-.67l3.33,1s.07.02.11.04c1.13.49,1.93,2.04,2.85,3.83.47.92.96,1.87,1.44,2.53,1.01,1.45,2.41,2.5,4.06,3.05,1.13.38,2.49.83,3.8,1.27,3,1,4.87,1.62,5.28,1.8.53.23,1.3.08,1.42-.08,0-.97.03-1.99-1.39-2.93-.25-.17-.79-.36-1.36-.57-1.35-.49-3.2-1.15-4.33-2.53-.69-.84-.86-2.5-.89-2.99-.03-.42.21-.82.6-.99l4.49-1.94c.23-.1.49-.11.73-.03l3.86,1.34c.16.06.31.16.42.29l2.8,3.2c.2.23.28.53.23.83,0,0-.26,1.48-.54,2.83-.11.54-.65.89-1.18.77-.54-.11-.89-.64-.77-1.18.18-.85.35-1.76.44-2.3l-2.31-2.64-3.24-1.12-3.45,1.49c.09.51.22,1.01.36,1.17.78.95,2.27,1.49,3.46,1.92.72.26,1.34.48,1.79.78,2.32,1.55,2.29,3.57,2.27,4.65-.01.69-.35,1.28-.96,1.67-.49.31-1.14.48-1.8.48Z"/>
  <path class="cls-1" d="M36.76,24.14c-.08,0-.16,0-.24-.03-.54-.13-.87-.67-.74-1.21l1.65-6.82-4.43-7.1c-.6-.85-1.24-1.28-2.47-1.64-3.22-.95-14.56-3.77-20.03-4.87-.54-.11-.89-.64-.78-1.18s.64-.9,1.18-.78c5.52,1.11,16.95,3.96,20.2,4.91,1.67.49,2.67,1.18,3.57,2.45l4.68,7.5c.14.23.19.5.12.76l-1.75,7.23c-.11.46-.52.76-.97.76Z"/>
  <path class="cls-1" d="M17.16,34.58c-.33,0-.66-.17-.85-.47-.29-.47-.15-1.08.32-1.38,1.39-.87,2.91-1.6,4.52-2.18.52-.19,1.09.08,1.28.6.19.52-.08,1.09-.6,1.28-1.47.53-2.87,1.2-4.14,2-.16.1-.35.15-.53.15Z"/>
  <path class="cls-1" d="M38.04,34.68c-.1,0-.2-.01-.3-.05-3.86-1.22-8.25-1.37-12.25-.45-.54.13-1.08-.21-1.2-.75-.12-.54.21-1.08.75-1.2,4.34-1.01,9.11-.84,13.3.48.53.17.82.73.65,1.25-.13.43-.53.7-.95.7Z"/>
  <path class="cls-1" d="M31.2,33.59c-4.06,0-7.36-3.3-7.36-7.36,0-.85.14-1.68.42-2.47l1.88.67c-.21.57-.31,1.18-.31,1.8,0,2.96,2.4,5.36,5.36,5.36s5.36-2.4,5.36-5.36-2.4-5.36-5.36-5.36c-.8,0-1.57.17-2.28.51l-.86-1.81c.99-.46,2.04-.7,3.14-.7,4.06,0,7.36,3.3,7.36,7.36s-3.3,7.36-7.36,7.36Z"/>
  <path class="cls-1" d="M44.44,67.51h-1.81c-.8,0-1.55-.4-2-1.06l-2.01-2.95c-4.7,1.47-10.05,1.57-14.84.29l-1.27,2.43c-.42.8-1.24,1.3-2.14,1.3h-2.88c-1.14,0-2.14-.81-2.37-1.93l-1.09-5.41c-1.72-.95-3.01-2.04-4.37-3.19-1.14-.96-2.32-1.96-3.91-3.02-2.28-1.52-2.28-5.32-2.28-8.99,0-.4.23-.75.6-.92l2.98-1.31c.78-2.18,1.72-3.83,2.92-5.09l-3.59-5.91c-.18-.3-.19-.67-.03-.98.16-.31.47-.51.82-.54,4.9-.36,9.07,1,12.39,4.04.41.37.44,1,.06,1.41-.37.41-1.01.44-1.41.06-2.52-2.3-5.61-3.5-9.22-3.57l3.12,5.13c.26.43.16.99-.24,1.31,0,0,0,0,0,0-1.28,1.16-2.25,2.82-3.05,5.2-.09.27-.29.48-.54.59l-2.78,1.22c0,2.82.1,5.81,1.39,6.67,1.68,1.12,2.96,2.2,4.09,3.15,1.44,1.22,2.69,2.27,4.42,3.17.27.14.46.39.52.69l1.19,5.87c.04.19.21.33.41.33h2.88c.15,0,.29-.08.37-.22l1.64-3.15c.24-.45.78-.66,1.25-.47,2.25.67,4.63,1.01,7.06,1.01,2.78,0,5.47-.44,8-1.32.43-.15.9,0,1.15.38l2.43,3.58c.08.11.21.18.34.18h1.81c.21,0,.38-.16.41-.36l1-7.94c.03-.23.14-.44.3-.6,2.89-2.74,4.54-6.34,4.54-9.89,0-5.29-3.41-10.21-9.13-13.14-.49-.25-.68-.86-.43-1.35.25-.49.85-.69,1.35-.43,6.39,3.28,10.21,8.86,10.21,14.92,0,3.98-1.78,8-4.91,11.09l-.96,7.59c-.15,1.2-1.18,2.11-2.39,2.11Z"/>
  <path class="cls-1" d="M51.64,48.85c-.21,0-.42-.06-.6-.2-.44-.33-.53-.96-.2-1.4,2.06-2.76,4.17-2.06,5.43-1.64,1.11.37,1.23.33,1.55-.12.66-.93.89-3.03.4-3.56-.2-.21-.9-.12-2,.56-.47.29-1.09.14-1.38-.33-.29-.47-.14-1.09.33-1.38,2.47-1.52,3.81-.96,4.51-.23,1.4,1.49.79,4.64-.22,6.08-1.22,1.73-2.78,1.21-3.82.87-1.21-.4-2-.67-3.2.94-.2.26-.5.4-.8.4Z"/>
</svg>