<?xml version="1.0" encoding="UTF-8"?>
<svg id="Layer_1" data-name="Layer 1" xmlns="http://www.w3.org/2000/svg" viewBox="0 0 64 64">
  <defs>
    <style>
      .cls-1 {
        fill: #7ba0e9;
        stroke-width: 0px;
      }
    </style>
  </defs>
  <path class="cls-1" d="M53.36,37.14c-.26,0-.51-.1-.71-.29-.39-.39-.39-1.02,0-1.41l3.64-3.64c5.96-5.95,2.7-13.84-1.91-18.8-1.64-1.76-3.47-3.24-5.3-4.26-1.67-.93-9.52-3.62-14.71,1.42l-10.93,10.87c-.58.58-.39.87-.12,1.14,1.1,1.1,4.8,1.66,6.98-.5l2.75-2.71c2.31-2.09,4.82-1.34,7.24-.6,2.75.83,5.34,1.61,8.4-.79.44-.34,1.06-.27,1.4.17.34.43.27,1.06-.17,1.4-3.87,3.05-7.39,1.99-10.21,1.14-2.46-.74-3.92-1.1-5.29.14l-2.72,2.69c-3.02,2.97-7.95,2.35-9.81.48-1.16-1.17-1.11-2.73.13-3.96l10.94-10.88c5.52-5.38,14.05-3.45,17.09-1.74,2.01,1.12,4.01,2.73,5.79,4.64,5.62,6.04,8.38,15.06,1.86,21.57l-3.65,3.64c-.19.19-.45.29-.71.29Z"/>
  <path class="cls-1" d="M10.8,35.42c-.26,0-.51-.1-.71-.29l-3.64-3.63C-.19,24.86,2.45,16.1,7.7,10.76c5.59-5.67,14.72-8.05,21.33-1.61l2.46,2.45c.39.39.39,1.02,0,1.41-.39.39-1.02.39-1.41,0l-2.45-2.44c-5.94-5.78-13.76-3.23-18.51,1.59-4.59,4.65-6.94,12.24-1.26,17.91l3.64,3.63c.39.39.39,1.02,0,1.41-.2.2-.45.29-.71.29Z"/>
  <path class="cls-1" d="M51.17,44.27c-1.07,0-2.22-.45-3.3-1.56l-6.6-6.8c-.38-.4-.38-1.03.02-1.41.4-.38,1.03-.38,1.41.02l6.6,6.8c1.6,1.65,2.88.76,3.36.3,1-.96,1.39-2.71.28-3.86l-14.08-14.76c-.38-.4-.37-1.03.03-1.41.4-.38,1.03-.37,1.41.03l14.08,14.76c1.95,2.05,1.34,5.07-.34,6.69-.76.73-1.78,1.21-2.88,1.21Z"/>
  <path class="cls-1" d="M45.81,49.23c-1.08,0-2.16-.39-3.04-1.29l-7.25-7.45c-.38-.4-.38-1.03.02-1.41.39-.39,1.03-.38,1.41.02l7.25,7.45c1.07,1.1,2.75.75,3.76-.23.41-.4,1.62-1.84-.1-3.61l-7.09-7.32c-.38-.4-.38-1.03.02-1.41s1.03-.38,1.41.02l7.09,7.32c2.24,2.31,1.64,4.9.06,6.44-.94.91-2.24,1.48-3.55,1.48Z"/>
  <path class="cls-1" d="M40.01,53.68c-1.08,0-2.17-.39-3.07-1.29l-3.62-3.65c-.39-.39-.39-1.03,0-1.41.39-.39,1.02-.39,1.41,0l3.62,3.65c1.09,1.09,2.74.78,3.7-.16.39-.38,1.54-1.76-.17-3.55-.38-.4-.37-1.03.04-1.41.4-.38,1.03-.37,1.41.04,2.21,2.32,1.65,4.87.11,6.37-.9.88-2.17,1.42-3.45,1.42Z"/>
  <path class="cls-1" d="M29.3,58.8c-1.12,0-2.24-.43-3.09-1.28l-.39-.39c-.94-.94-1.36-2.21-1.26-3.44-1.41.29-2.95-.15-3.98-1.18l-.39-.39c-.93-.93-1.36-2.19-1.27-3.41-1.44.35-3.01-.04-4.12-1.15l-.39-.39c-1-1-1.41-2.36-1.24-3.67-1.35.23-2.79-.17-3.84-1.21l-.39-.39c-.82-.82-1.27-1.92-1.27-3.09,0-1.17.45-2.27,1.27-3.09l5.02-5.02c.82-.82,1.92-1.27,3.09-1.27h0c1.17,0,2.27.45,3.09,1.27l.39.39c.69.69,1.12,1.58,1.24,2.54l.63-.63c.82-.82,1.92-1.28,3.09-1.28h0c1.17,0,2.27.45,3.09,1.28l.39.39c1.59,1.59,1.7,4.12.31,5.83.97.11,1.87.55,2.57,1.24l.39.39c1.49,1.49,1.68,3.79.56,5.49.94.11,1.85.53,2.57,1.25l.39.39c1.7,1.7,1.7,4.47,0,6.18l-3.36,3.36c-.85.85-1.97,1.28-3.09,1.28ZM32.28,48.32c-.61,0-1.21.23-1.67.69l-3.36,3.36c-.92.92-.92,2.43,0,3.35l.39.39c.91.91,2.44.91,3.35,0l3.36-3.36c.92-.92.92-2.43,0-3.35l-.39-.39c-.46-.46-1.07-.69-1.67-.69ZM28.75,41.2c-.64,0-1.23.25-1.67.69l-5.48,5.48c-.92.92-.92,2.43,0,3.35l.39.39c.89.89,2.46.89,3.35,0l5.48-5.48c.92-.92.92-2.43,0-3.35l-.39-.39c-.44-.45-1.04-.69-1.67-.69ZM25.49,33.73h0c-.64,0-1.23.25-1.68.69l-7.99,7.99c-.92.92-.92,2.43,0,3.35l.39.39c.91.91,2.44.91,3.35,0l7.99-7.99c.92-.92.92-2.43,0-3.35l-.39-.39c-.44-.44-1.04-.69-1.67-.69ZM17.05,31.44c-.64,0-1.23.24-1.67.69l-5.02,5.02c-.44.44-.69,1.04-.69,1.68,0,.64.25,1.23.69,1.67l.39.39c.91.91,2.44.91,3.35,0l5.01-5.02c.44-.44.69-1.04.69-1.67,0-.64-.24-1.23-.69-1.68l-.39-.39c-.44-.44-1.04-.69-1.67-.69h0Z"/>
</svg>