<?xml version="1.0" encoding="UTF-8"?>
<svg id="Layer_1" data-name="Layer 1" xmlns="http://www.w3.org/2000/svg" viewBox="0 0 165 165">
  <defs>
    <style>
      .cls-1 {
        fill: #4080d4;
      }

      .cls-1, .cls-2 {
        stroke-width: 0px;
      }

      .cls-2 {
        fill: #fff;
      }
    </style>
  </defs>
  <g>
    <path class="cls-2" d="M116.7,32.8s-8.31,6.45-15.24,6.45v16.34c0,3.4,1.39,6.45,3.72,8.17,2.43,1.8,9.69,6.59,10,6.79l1.52,1,1.52-1c.31-.2,7.57-4.99,10-6.79,2.33-1.72,3.72-4.78,3.72-8.17v-16.34c-6.93,0-15.24-6.45-15.24-6.45Z"/>
    <path class="cls-1" d="M116.7,72.95c-.27,0-.54-.08-.77-.23l-1.52-1c-.78-.51-7.66-5.05-10.06-6.83-2.68-1.98-4.29-5.46-4.29-9.3v-16.34c0-.77.63-1.4,1.4-1.4,6.36,0,14.31-6.09,14.38-6.15.5-.39,1.21-.39,1.71,0,.08.06,8.02,6.15,14.38,6.15.77,0,1.4.63,1.4,1.4v16.34c0,3.84-1.6,7.32-4.29,9.3-2.29,1.69-8.76,5.97-10.03,6.81l-1.55,1.02c-.23.15-.5.23-.77.23ZM102.86,40.57v15.01c0,2.96,1.18,5.59,3.15,7.05,2.39,1.76,9.63,6.54,9.94,6.75l.75.5.75-.5c1.29-.85,7.7-5.09,9.94-6.75,1.97-1.46,3.15-4.09,3.15-7.05v-15.01c-5.68-.59-11.65-4.48-13.84-6.04-2.19,1.56-8.17,5.45-13.84,6.04Z"/>
  </g>
  <path class="cls-1" d="M115.46,58.06h0c-.37,0-.73-.15-.99-.41l-5.38-5.38c-.55-.55-.55-1.43,0-1.98.55-.55,1.43-.55,1.98,0l4.39,4.39,7.8-7.8c.55-.55,1.43-.55,1.98,0s.55,1.43,0,1.98l-8.79,8.79c-.26.26-.62.41-.99.41Z"/>
  <path class="cls-1" d="M65.54,131.88c-.16,0-.32-.03-.47-.08-20.32-7.33-33.97-26.76-33.97-48.36,0-14.2,5.96-27.9,16.34-37.59,10.53-9.83,24.28-14.69,38.72-13.68,2.76.19,5.52.61,8.22,1.25.75.18,1.22.93,1.04,1.69-.18.75-.93,1.21-1.69,1.04-2.54-.61-5.15-1-7.76-1.19-13.65-.95-26.66,3.64-36.62,12.93-9.82,9.16-15.46,22.12-15.46,35.54,0,19.75,12.07,37.59,30.24,45.01v-36.23h-7.77c-1.87,0-3.48-1.07-4.19-2.8-.72-1.73-.34-3.62.98-4.95l24.7-24.81c1.24-1.25,2.89-1.93,4.65-1.93h0c1.76,0,3.41.69,4.65,1.93l24.7,24.81c1.32,1.32,1.69,3.22.98,4.95-.72,1.73-2.33,2.8-4.2,2.8h-7.77v36.23c19.38-7.91,31.69-27.68,30.1-48.76-.21-2.75-.66-5.51-1.33-8.18-.19-.75.26-1.51,1.01-1.7.75-.19,1.51.26,1.7,1.01.72,2.83,1.19,5.74,1.41,8.66,1.73,23.01-12.18,44.53-33.82,52.33-.43.15-.91.09-1.28-.17-.37-.26-.6-.69-.6-1.15v-39.66c0-.77.63-1.4,1.4-1.4h9.17c1.08,0,1.5-.82,1.61-1.07.1-.25.39-1.13-.37-1.9l-24.7-24.81c-.71-.71-1.66-1.11-2.66-1.11h0c-1.01,0-1.95.39-2.66,1.11l-24.7,24.81c-.76.76-.48,1.65-.37,1.9.1.25.53,1.07,1.61,1.07h9.17c.77,0,1.4.63,1.4,1.4v39.66c0,.46-.22.88-.6,1.15-.24.17-.52.25-.8.25Z"/>
  <path class="cls-1" d="M88.13,133.6c-.77,0-1.4-.63-1.4-1.4v-20.42c0-.77.63-1.4,1.4-1.4s1.4.63,1.4,1.4v20.42c0,.77-.63,1.4-1.4,1.4Z"/>
  <path class="cls-1" d="M76.88,133.6c-.77,0-1.4-.63-1.4-1.4v-11.67c0-.77.63-1.4,1.4-1.4s1.4.63,1.4,1.4v11.67c0,.77-.63,1.4-1.4,1.4Z"/>
  <path class="cls-1" d="M76.88,115.68c-.77,0-1.4-.63-1.4-1.4v-16.25c0-.77.63-1.4,1.4-1.4s1.4.63,1.4,1.4v16.25c0,.77-.63,1.4-1.4,1.4Z"/>
</svg>