<?xml version="1.0" encoding="UTF-8"?>
<svg id="Layer_1" data-name="Layer 1" xmlns="http://www.w3.org/2000/svg" viewBox="0 0 165 165">
  <defs>
    <style>
      .cls-1 {
        fill: #4080d4;
      }

      .cls-1, .cls-2 {
        stroke-width: 0px;
      }

      .cls-2 {
        fill: #fff;
      }
    </style>
  </defs>
  <path class="cls-2" d="M108.43,56.08c-1.89-1.84-4.27-2.95-6.71-3.14-2.51-.19-4.78.62-6.39,2.28-1.59,1.63-2.34,3.94-2.09,6.4l-9.39,9.66c-2.83,2.91-6.63,4.63-10.69,4.83l-6.74.34c-2.02.1-3.93.85-5.49,2.11-.1.05-.19.11-.27.19-.05.05-.09.11-.14.16-.14.13-.28.25-.42.39l-5.5,5.65h0c-1.7,1.75-1.8,4.76-.26,8.46,1.42,3.43,4.1,7.16,7.55,10.51,3.97,3.86,8.13,6.49,11.68,7.61,3.19,1.01,5.88.79,7.49-.86l5.5-5.65c.12-.12.23-.26.35-.39.07-.06.13-.12.19-.18.08-.08.14-.18.19-.27,1.22-1.59,1.91-3.52,1.96-5.54l.15-6.74c.09-4.06,1.7-7.91,4.54-10.82l9.39-9.66c2.47.17,4.76-.64,6.34-2.27,3.28-3.37,2.73-9.24-1.22-13.08Z"/>
  <g>
    <path class="cls-1" d="M108.43,56.08c-1.89-1.84-4.27-2.95-6.71-3.14-2.51-.19-4.78.62-6.39,2.28-1.59,1.63-2.34,3.94-2.09,6.4l-9.39,9.66c-2.83,2.91-6.63,4.63-10.69,4.83l-6.74.34c-2.02.1-3.93.85-5.49,2.11-.1.05-.19.11-.27.19-.05.05-.09.11-.14.16-.14.13-.28.25-.42.39l-5.5,5.65h0c-1.7,1.75-1.8,4.76-.26,8.46,1.42,3.43,4.1,7.16,7.55,10.51,3.97,3.86,8.13,6.49,11.68,7.61,3.19,1.01,5.88.79,7.49-.86l5.5-5.65c.12-.13.23-.26.35-.39.07-.06.13-.12.19-.18.08-.08.14-.18.19-.27,1.22-1.59,1.91-3.52,1.96-5.54l.15-6.74c.09-4.06,1.7-7.91,4.54-10.82l9.39-9.66c2.47.17,4.75-.64,6.34-2.27,3.28-3.37,2.73-9.24-1.22-13.08ZM108.15,67.7c-1.24,1.27-3.11,1.86-5.12,1.6-.37-.05-.73.11-.96.4l-9.66,9.93c-3.2,3.29-5.03,7.64-5.13,12.23l-.15,6.74c-.04,1.65-.62,3.22-1.66,4.49-.78.69-2.2.83-4.04.38-.56-.14-1.13.21-1.26.77-.13.54.18,1.08.7,1.24.02,0,.05.01.07.02.72.17,1.36.27,1.94.3l-3.33,3.42c-2.12,2.18-9.3-.08-16.21-6.8-3.25-3.16-5.76-6.64-7.07-9.81-1.18-2.84-1.24-5.1-.17-6.2l3.33-3.43c.11,1.25.49,2.66,1.15,4.19,1.47,3.42,4.14,7.1,7.5,10.37,1.57,1.53,3.24,2.91,4.95,4.1.09.06.18.11.28.14.42.13.91-.02,1.17-.4.33-.47.21-1.13-.26-1.46-1.62-1.13-3.2-2.44-4.69-3.89-3.13-3.04-5.69-6.58-7.04-9.7-1.17-2.7-1.33-4.92-.46-6.01,1.24-1.09,2.81-1.72,4.47-1.81l6.74-.34c4.59-.23,8.88-2.17,12.08-5.47l8.71-8.95c.73,1.3,2.04,3.25,3.96,4.62.09.07.19.12.29.15.42.13.9-.01,1.17-.39.34-.47.23-1.12-.24-1.46-2.26-1.61-3.57-4.3-3.87-4.95-.28-1.97.25-3.82,1.47-5.07,1.17-1.21,2.85-1.79,4.74-1.65,1.95.15,3.87,1.05,5.41,2.55,3.12,3.04,3.65,7.58,1.18,10.12Z"/>
    <path class="cls-1" d="M77.08,112.4c-1.09,0-2.3-.2-3.6-.62-3.71-1.17-7.9-3.9-11.78-7.67-3.47-3.38-6.17-7.14-7.6-10.6-1.57-3.8-1.46-6.9.32-8.73l5.5-5.65c.11-.11.23-.22.34-.32l.11-.11s.07-.08.1-.12c.09-.09.2-.17.33-.24,1.57-1.29,3.52-2.03,5.59-2.14l6.74-.34c4-.2,7.73-1.89,10.52-4.76l9.31-9.57c-.21-2.48.58-4.84,2.17-6.48,1.66-1.71,4.01-2.55,6.59-2.35,2.5.19,4.94,1.33,6.87,3.21h0c4.05,3.94,4.6,9.96,1.23,13.43-1.6,1.64-3.93,2.5-6.42,2.35l-9.31,9.57c-2.79,2.87-4.38,6.65-4.47,10.65l-.15,6.74c-.05,2.07-.74,4.04-2.01,5.69-.04.09-.11.2-.21.29-.06.06-.13.13-.2.19l-.07.08c-.09.1-.17.2-.27.3l-5.5,5.65c-.99,1.02-2.41,1.54-4.14,1.54ZM101,53.16c-2.16,0-4.09.78-5.5,2.23-1.52,1.56-2.26,3.82-2.02,6.2v.12s-9.46,9.74-9.46,9.74c-2.88,2.96-6.73,4.7-10.86,4.91l-6.74.34c-1.96.1-3.81.81-5.34,2.05-.13.07-.19.12-.25.17-.03.03-.05.06-.08.09l-.16.16c-.11.1-.22.2-.32.3l-5.5,5.65c-1.63,1.68-1.71,4.58-.21,8.19,1.41,3.4,4.07,7.1,7.49,10.43,3.83,3.72,7.94,6.41,11.58,7.56,3.19,1.01,5.76.73,7.23-.79l5.5-5.65c.09-.09.16-.18.24-.27l.09-.11c.08-.08.14-.14.2-.19.05-.05.1-.12.14-.21,1.23-1.61,1.89-3.47,1.93-5.44l.15-6.74c.09-4.13,1.73-8.03,4.61-10.99l9.48-9.74h.12c2.39.18,4.62-.62,6.15-2.19,3.18-3.27,2.63-8.98-1.22-12.73h0c-1.85-1.8-4.18-2.89-6.56-3.07-.23-.02-.47-.03-.7-.03ZM77.11,110.29c-3.31,0-8.65-2.52-13.95-7.68-3.27-3.18-5.8-6.7-7.13-9.9-1.22-2.94-1.26-5.3-.12-6.47l3.71-3.82.05.54c.11,1.24.49,2.62,1.13,4.11,1.46,3.39,4.11,7.04,7.45,10.29,1.56,1.52,3.22,2.89,4.92,4.08.07.05.14.08.22.11.33.11.69-.02.89-.3.25-.36.16-.86-.2-1.11-1.63-1.14-3.22-2.45-4.72-3.91-3.15-3.06-5.73-6.63-7.09-9.78-1.21-2.81-1.37-5.09-.43-6.26,1.31-1.15,2.96-1.82,4.66-1.9l6.74-.34c4.53-.23,8.76-2.14,11.92-5.39l8.94-9.19.16.29c.75,1.34,2.03,3.21,3.89,4.54.07.05.14.09.22.11.33.1.69-.02.89-.3.12-.17.17-.38.14-.59-.03-.21-.15-.39-.32-.52-2.28-1.63-3.6-4.28-3.95-5.05l-.02-.07c-.29-2.05.27-3.98,1.54-5.28,1.22-1.26,2.98-1.87,4.93-1.72,2.01.15,3.99,1.08,5.57,2.62,1.55,1.51,2.53,3.43,2.76,5.4.23,1.99-.33,3.79-1.58,5.08h0c-1.3,1.33-3.24,1.94-5.33,1.67-.27-.04-.55.08-.73.31l-9.68,9.95c-3.16,3.25-4.96,7.53-5.06,12.06l-.15,6.74c-.04,1.71-.63,3.32-1.72,4.65-.87.77-2.38.93-4.3.46-.43-.1-.86.16-.96.59-.1.41.14.82.53.95.71.17,1.35.27,1.95.31l.54.03-3.71,3.81c-.57.59-1.47.89-2.61.89ZM59.24,83.54l-2.97,3.05c-1,1.02-.92,3.19.22,5.93,1.3,3.14,3.79,6.6,7.01,9.73,5.45,5.3,13.39,9.34,15.85,6.8l2.96-3.05c-.47-.05-.96-.14-1.45-.26l-.09-.02c-.65-.2-1.03-.88-.87-1.54.17-.69.87-1.12,1.56-.95,1.75.42,3.11.31,3.82-.32.98-1.21,1.54-2.71,1.58-4.31l.15-6.74c.11-4.66,1.95-9.06,5.2-12.4l9.66-9.93c.26-.34.72-.53,1.17-.47,1.94.25,3.73-.31,4.91-1.52h0c1.14-1.17,1.65-2.83,1.44-4.67-.22-1.86-1.15-3.67-2.62-5.1-1.5-1.45-3.36-2.34-5.26-2.48-1.8-.14-3.42.42-4.54,1.57-1.15,1.19-1.66,2.94-1.4,4.83.28.6,1.58,3.25,3.77,4.82.28.2.47.5.52.84.06.34-.02.68-.22.97-.33.46-.91.65-1.44.48-.13-.04-.25-.1-.36-.18-1.8-1.29-3.07-3.06-3.87-4.41l-8.48,8.71c-3.25,3.34-7.6,5.31-12.25,5.54l-6.74.34c-1.61.08-3.1.69-4.32,1.75-.78.98-.59,3.12.53,5.72,1.34,3.09,3.88,6.6,6.98,9.62,1.48,1.44,3.05,2.74,4.66,3.86.59.41.73,1.22.32,1.8-.33.47-.91.67-1.45.5-.12-.04-.24-.1-.35-.17-1.73-1.2-3.4-2.59-4.98-4.13-3.39-3.29-6.07-7-7.56-10.45-.58-1.33-.95-2.59-1.11-3.74Z"/>
  </g>
  <g>
    <path class="cls-1" d="M82.5,136.4c-29.72,0-53.9-24.18-53.9-53.9s24.18-53.9,53.9-53.9,53.9,24.18,53.9,53.9-24.18,53.9-53.9,53.9ZM82.5,31.4c-28.18,0-51.1,22.92-51.1,51.1s22.92,51.1,51.1,51.1,51.1-22.92,51.1-51.1-22.92-51.1-51.1-51.1Z"/>
    <path class="cls-1" d="M67.21,68.61c-.36,0-.72-.14-.99-.41l-21.83-21.84c-.55-.55-.55-1.43,0-1.98s1.43-.55,1.98,0l21.83,21.84c.55.55.55,1.43,0,1.98-.27.27-.63.41-.99.41Z"/>
    <path class="cls-1" d="M119.62,121.02c-.36,0-.72-.14-.99-.41l-21.83-21.84c-.55-.55-.55-1.43,0-1.98.55-.55,1.43-.55,1.98,0l21.83,21.84c.55.55.55,1.43,0,1.98-.27.27-.63.41-.99.41Z"/>
  </g>
</svg>