<?xml version="1.0" encoding="UTF-8"?>
<svg id="Layer_1" data-name="Layer 1" xmlns="http://www.w3.org/2000/svg" viewBox="0 0 64 64">
  <defs>
    <style>
      .cls-1 {
        fill: #7ba0e9;
        stroke-width: 0px;
      }
    </style>
  </defs>
  <g>
    <g>
      <path class="cls-1" d="M31.6,41.26c-2.09,0-4.02-.89-5.16-2.38-.34-.44-.25-1.07.19-1.4s1.07-.25,1.4.19c.77,1,2.1,1.6,3.57,1.6,2.3,0,4.16-1.47,4.16-3.28,0-1.65-1.64-3.05-3.81-3.27-2.95-.22-5.18-2.31-5.18-4.87,0-2.69,2.55-4.89,5.69-4.89,1.89,0,3.66.8,4.71,2.15.34.43.27,1.06-.17,1.4-.44.34-1.06.27-1.4-.17-.68-.87-1.86-1.38-3.14-1.38-2.03,0-3.69,1.29-3.69,2.89,0,1.48,1.47,2.74,3.35,2.88.02,0,.04,0,.06,0,3.24.33,5.58,2.54,5.58,5.26,0,2.91-2.76,5.28-6.16,5.28Z"/>
      <path class="cls-1" d="M32,44.47c-.55,0-1-.45-1-1v-3.03c0-.55.45-1,1-1s1,.45,1,1v3.03c0,.55-.45,1-1,1Z"/>
      <path class="cls-1" d="M32,24.69c-.55,0-1-.45-1-1v-3.16c0-.55.45-1,1-1s1,.45,1,1v3.16c0,.55-.45,1-1,1Z"/>
    </g>
    <path class="cls-1" d="M32,49.42c-9.6,0-17.42-7.81-17.42-17.42s7.81-17.42,17.42-17.42,17.42,7.81,17.42,17.42-7.81,17.42-17.42,17.42ZM32,16.58c-8.5,0-15.42,6.92-15.42,15.42s6.92,15.42,15.42,15.42,15.42-6.92,15.42-15.42-6.92-15.42-15.42-15.42Z"/>
  </g>
  <g>
    <g>
      <path class="cls-1" d="M51.94,14.21s-.03,0-.04,0l-7.61-.32c-.55-.02-.98-.49-.96-1.04.02-.55.53-.98,1.04-.96l6.34.26-1.26-6.43c-.11-.54.25-1.07.79-1.17.55-.11,1.07.25,1.17.79l1.5,7.67c.06.3-.02.61-.22.84-.19.22-.47.35-.76.35Z"/>
      <path class="cls-1" d="M12.89,59.37c-.48,0-.9-.35-.99-.83l-1.29-7.67c-.05-.3.04-.61.25-.84.21-.23.51-.34.81-.33l7.56.52c.55.04.97.52.93,1.07-.04.55-.52.96-1.07.93l-6.29-.43,1.08,6.42c.09.54-.28,1.06-.82,1.15-.06,0-.11.01-.17.01Z"/>
      <path class="cls-1" d="M6.92,44.3c-.38,0-.75-.22-.91-.59-1.67-3.69-2.51-7.63-2.51-11.72C3.5,16.29,16.29,3.5,32,3.5c7.34,0,14.32,2.79,19.64,7.84.4.38.42,1.01.04,1.41-.38.4-1.01.42-1.41.04-4.95-4.7-11.43-7.29-18.26-7.29-14.61,0-26.5,11.89-26.5,26.5,0,3.8.79,7.46,2.33,10.89.23.5,0,1.1-.5,1.32-.13.06-.27.09-.41.09Z"/>
    </g>
    <path class="cls-1" d="M32,60.5c-7.57,0-14.69-2.93-20.06-8.26-.39-.39-.39-1.02,0-1.41.39-.39,1.02-.39,1.41,0,5,4.95,11.62,7.68,18.66,7.68,14.61,0,26.5-11.89,26.5-26.5,0-4.35-1.07-8.66-3.11-12.46-.26-.49-.08-1.09.41-1.35.49-.26,1.09-.08,1.35.41,2.19,4.09,3.34,8.73,3.34,13.4,0,15.71-12.79,28.5-28.5,28.5Z"/>
  </g>
</svg>