<?xml version="1.0" encoding="UTF-8"?>
<svg id="Layer_1" data-name="Layer 1" xmlns="http://www.w3.org/2000/svg" viewBox="0 0 165 165">
  <defs>
    <style>
      .cls-1 {
        fill: #4080d4;
      }

      .cls-1, .cls-2 {
        stroke-width: 0px;
      }

      .cls-2 {
        fill: #fff;
      }
    </style>
  </defs>
  <g>
    <path class="cls-1" d="M54.5,106.1h-13.5c-3.88,0-7.03-3.15-7.03-7.03v-57.35c0-3.88,3.15-7.03,7.03-7.03h27c3.88,0,7.03,3.15,7.03,7.03v25.13c0,.77-.63,1.4-1.4,1.4s-1.4-.63-1.4-1.4v-25.13c0-2.33-1.9-4.23-4.23-4.23h-27c-2.33,0-4.23,1.9-4.23,4.23v57.35c0,2.33,1.9,4.23,4.23,4.23h13.5c.77,0,1.4.63,1.4,1.4s-.63,1.4-1.4,1.4Z"/>
    <path class="cls-1" d="M54.13,100.42h-6.48c-.77,0-1.4-.63-1.4-1.4s.63-1.4,1.4-1.4h6.48c.77,0,1.4.63,1.4,1.4s-.63,1.4-1.4,1.4Z"/>
    <path class="cls-1" d="M59.37,43.3h-9.33c-.77,0-1.4-.63-1.4-1.4s.63-1.4,1.4-1.4h9.33c.77,0,1.4.63,1.4,1.4s-.63,1.4-1.4,1.4Z"/>
  </g>
  <g>
    <path class="cls-1" d="M124,130.32h-27c-2.9,0-5.54-1.82-6.57-4.52-.28-.72.09-1.53.81-1.81.72-.28,1.53.09,1.81.81.62,1.63,2.21,2.72,3.95,2.72h27c2.33,0,4.23-1.9,4.23-4.23v-57.35c0-2.33-1.9-4.23-4.23-4.23h-27c-2.33,0-4.23,1.9-4.23,4.23,0,.77-.63,1.4-1.4,1.4s-1.4-.63-1.4-1.4c0-3.88,3.15-7.03,7.03-7.03h27c3.88,0,7.03,3.15,7.03,7.03v57.35c0,3.88-3.15,7.03-7.03,7.03Z"/>
    <path class="cls-1" d="M117.35,124.64h-13.71c-.77,0-1.4-.63-1.4-1.4s.63-1.4,1.4-1.4h13.71c.77,0,1.4.63,1.4,1.4s-.63,1.4-1.4,1.4Z"/>
    <path class="cls-1" d="M115.36,67.52h-9.33c-.77,0-1.4-.63-1.4-1.4s.63-1.4,1.4-1.4h9.33c.77,0,1.4.63,1.4,1.4s-.63,1.4-1.4,1.4Z"/>
  </g>
  <g>
    <g>
      <g>
        <circle class="cls-2" cx="83.46" cy="95.61" r="14.33"/>
        <path class="cls-1" d="M83.46,111.33c-8.67,0-15.73-7.05-15.73-15.73s7.05-15.73,15.73-15.73,15.73,7.05,15.73,15.73-7.05,15.73-15.73,15.73ZM83.46,82.68c-7.13,0-12.93,5.8-12.93,12.93s5.8,12.93,12.93,12.93,12.93-5.8,12.93-12.93-5.8-12.93-12.93-12.93Z"/>
      </g>
      <g>
        <path class="cls-1" d="M83.11,104.22c-1.99,0-3.82-.86-4.92-2.29-.47-.61-.35-1.49.26-1.96.61-.47,1.49-.35,1.96.26.56.73,1.59,1.19,2.7,1.19,1.68,0,3.11-1.07,3.11-2.34,0-1.16-1.22-2.16-2.85-2.33-2.85-.22-5-2.27-5-4.77,0-2.64,2.46-4.79,5.49-4.79,1.81,0,3.5.77,4.53,2.07.48.61.37,1.49-.23,1.97-.61.48-1.49.37-1.97-.23-.49-.62-1.38-1.01-2.33-1.01-1.46,0-2.69.91-2.69,1.99,0,1.01,1.07,1.88,2.43,1.98.02,0,.05,0,.07,0,3.1.32,5.34,2.47,5.34,5.11,0,2.83-2.65,5.14-5.91,5.14Z"/>
        <path class="cls-1" d="M83.46,107.02c-.77,0-1.4-.63-1.4-1.4v-2.64c0-.77.63-1.4,1.4-1.4s1.4.63,1.4,1.4v2.64c0,.77-.63,1.4-1.4,1.4Z"/>
        <path class="cls-1" d="M83.46,89.76c-.77,0-1.4-.63-1.4-1.4v-2.76c0-.77.63-1.4,1.4-1.4s1.4.63,1.4,1.4v2.76c0,.77-.63,1.4-1.4,1.4Z"/>
      </g>
    </g>
    <g>
      <g>
        <path class="cls-1" d="M100.87,80.61s-.04,0-.06,0l-6.64-.28c-.77-.03-1.37-.68-1.34-1.46.03-.77.68-1.37,1.46-1.34l4.86.2-.97-4.95c-.15-.76.35-1.49,1.11-1.64.76-.15,1.49.35,1.64,1.1l1.31,6.69c.08.42-.03.86-.31,1.18-.27.31-.66.49-1.06.49Z"/>
        <path class="cls-1" d="M66.79,120.02c-.67,0-1.26-.48-1.38-1.17l-1.12-6.69c-.07-.42.06-.85.34-1.17.29-.32.7-.49,1.13-.46l6.59.45c.77.05,1.35.72,1.3,1.49-.05.77-.72,1.35-1.49,1.3l-4.82-.33.83,4.94c.13.76-.39,1.48-1.15,1.61-.08.01-.16.02-.23.02Z"/>
        <path class="cls-1" d="M61.58,106.87c-.53,0-1.04-.31-1.28-.82-1.49-3.29-2.24-6.8-2.24-10.44,0-14,11.39-25.4,25.4-25.4,6.54,0,12.76,2.48,17.5,6.99.56.53.58,1.42.05,1.98-.53.56-1.42.58-1.98.05-4.22-4.01-9.75-6.22-15.57-6.22-12.46,0-22.6,10.14-22.6,22.6,0,3.24.67,6.36,1.99,9.29.32.7,0,1.53-.7,1.85-.19.08-.38.12-.58.12Z"/>
      </g>
      <path class="cls-1" d="M83.46,121.01c-6.74,0-13.09-2.61-17.88-7.36-.55-.54-.55-1.43,0-1.98.54-.55,1.43-.55,1.98,0,4.26,4.22,9.91,6.55,15.91,6.55,12.46,0,22.6-10.14,22.6-22.6,0-3.71-.92-7.38-2.65-10.63-.36-.68-.11-1.53.58-1.89.68-.36,1.53-.11,1.89.58,1.95,3.65,2.98,7.78,2.98,11.94,0,14-11.39,25.4-25.4,25.4Z"/>
    </g>
  </g>
</svg>