<?xml version="1.0" encoding="UTF-8"?>
<svg id="Layer_1" data-name="Layer 1" xmlns="http://www.w3.org/2000/svg" viewBox="0 0 165 165">
  <defs>
    <style>
      .cls-1 {
        fill: #4080d4;
      }

      .cls-1, .cls-2 {
        stroke-width: 0px;
      }

      .cls-2 {
        fill: #fff;
      }
    </style>
  </defs>
  <path class="cls-2" d="M109.45,79.51c-7.51,1.87-16.84,2.98-26.95,2.98s-19.44-1.11-26.95-2.98h0c.34,15.17,12.27,34.91,26.95,34.91s26.61-19.75,26.95-34.92h0Z"/>
  <g>
    <path class="cls-1" d="M82.5,115.82c-7.22,0-14.32-4.39-19.99-12.36-5.06-7.11-8.18-16.05-8.36-23.92-.02-.77.6-1.41,1.37-1.43.79.01,1.41.6,1.43,1.37.33,15.1,12.19,33.54,25.55,33.54s25.21-18.45,25.55-33.55c.02-.77.63-1.41,1.43-1.37.77.02,1.39.66,1.37,1.43-.17,7.87-3.3,16.82-8.35,23.93-5.67,7.97-12.77,12.36-19.99,12.36Z"/>
    <path class="cls-1" d="M82.5,83.89c-22.78,0-46.34-6.11-46.34-16.33,0-5.96,8.06-11.07,22.12-14.01.76-.16,1.5.33,1.66,1.08.16.76-.33,1.5-1.08,1.66-12.09,2.53-19.9,6.96-19.9,11.27,0,3.24,4.56,6.69,12.2,9.23,8.35,2.77,19.48,4.3,31.34,4.3s22.99-1.53,31.34-4.3c7.64-2.54,12.2-5.99,12.2-9.23,0-4.24-7.62-8.63-19.41-11.17-.76-.16-1.24-.91-1.07-1.66.16-.76.91-1.23,1.66-1.07,13.74,2.96,21.62,8.03,21.62,13.91,0,10.22-23.56,16.33-46.34,16.33Z"/>
    <path class="cls-1" d="M106.92,64.32c-.77,0-1.4-.63-1.4-1.4,0-10.07-1.97-17.07-6.02-21.41-.53-.57-.5-1.45.07-1.98.57-.53,1.45-.5,1.98.07,4.56,4.88,6.77,12.51,6.77,23.32,0,.77-.63,1.4-1.4,1.4Z"/>
    <path class="cls-1" d="M58.08,64.32c-.77,0-1.4-.63-1.4-1.4,0-20.72,7.96-29.96,25.82-29.96,4.84,0,8.82.65,12.15,1.98.72.29,1.07,1.1.78,1.82s-1.1,1.07-1.82.78c-3-1.2-6.63-1.78-11.11-1.78-11.38,0-23.02,3.23-23.02,27.16,0,.77-.63,1.4-1.4,1.4Z"/>
    <path class="cls-1" d="M82.5,67.05c-3.31,0-6.5-.14-9.49-.43-.77-.07-1.33-.76-1.26-1.53.07-.77.75-1.34,1.53-1.26,2.9.28,6,.42,9.22.42s6.32-.14,9.22-.42c.77-.07,1.45.49,1.53,1.26.07.77-.49,1.45-1.26,1.53-2.99.29-6.19.43-9.49.43Z"/>
    <path class="cls-1" d="M115.64,132.03c-.47,0-.92-.23-1.19-.66l-4.72-7.55c-.74-1.18-.96-2.57-.64-3.92s1.16-2.49,2.36-3.2l19.49-11.6c.12-.07.18-.18.16-.32-.02-.14-.1-.23-.23-.27-5.51-1.57-15.98-5.43-24.21-13.66-.55-.55-.55-1.43,0-1.98.55-.55,1.43-.55,1.98,0,7.78,7.78,17.75,11.45,23,12.95,1.22.35,2.08,1.34,2.24,2.6.16,1.26-.41,2.44-1.5,3.09l-19.49,11.6c-.54.32-.92.84-1.07,1.45s-.05,1.24.29,1.78l4.72,7.55c.41.66.21,1.52-.44,1.93-.23.14-.49.21-.74.21Z"/>
    <path class="cls-1" d="M49.36,132.03c-.25,0-.51-.07-.74-.21-.66-.41-.85-1.27-.44-1.93l4.72-7.55c.33-.53.44-1.17.29-1.78-.15-.61-.53-1.13-1.07-1.45l-19.49-11.6c-1.09-.65-1.67-1.83-1.5-3.09.16-1.25,1.02-2.25,2.24-2.59,5.24-1.49,15.21-5.16,23-12.95.55-.55,1.43-.55,1.98,0,.55.55.55,1.43,0,1.98-8.24,8.24-18.71,12.1-24.21,13.66-.13.04-.21.13-.23.26-.02.14.03.25.16.32l19.49,11.6c1.19.71,2.03,1.84,2.36,3.2.33,1.35.1,2.74-.64,3.92l-4.72,7.55c-.27.42-.72.66-1.19.66Z"/>
    <path class="cls-1" d="M71.8,92.04c-4.43,0-8.03-3.6-8.03-8.03v-2.69c0-.77.63-1.4,1.4-1.4s1.4.63,1.4,1.4v2.69c0,2.88,2.34,5.23,5.23,5.23s5.23-2.35,5.23-5.23v-1.59c0-.77.63-1.4,1.4-1.4s1.4.63,1.4,1.4v1.59c0,4.43-3.6,8.03-8.03,8.03Z"/>
    <path class="cls-1" d="M93.21,92.04c-4.43,0-8.03-3.6-8.03-8.03v-1.59c0-.77.63-1.4,1.4-1.4s1.4.63,1.4,1.4v1.59c0,2.88,2.35,5.23,5.23,5.23s5.23-2.35,5.23-5.23v-2.68c0-.77.63-1.4,1.4-1.4s1.4.63,1.4,1.4v2.68c0,4.43-3.6,8.03-8.03,8.03Z"/>
    <path class="cls-1" d="M82.5,105.27c-1.96,0-3.85-.09-5.63-.26-.77-.07-1.33-.76-1.26-1.53.07-.77.75-1.34,1.53-1.26,3.36.32,7.35.32,10.72,0,.77-.08,1.45.49,1.53,1.26.07.77-.49,1.45-1.26,1.53-1.77.17-3.66.26-5.63.26Z"/>
  </g>
</svg>