<?xml version="1.0" encoding="UTF-8"?>
<svg id="Layer_1" data-name="Layer 1" xmlns="http://www.w3.org/2000/svg" viewBox="0 0 64 64">
  <defs>
    <style>
      .cls-1 {
        fill: #7ba0e9;
        stroke-width: 0px;
      }
    </style>
  </defs>
  <g id="gears">
    <path class="cls-1" d="M21.36,63c-.94,0-1.91-.08-3.05-.25-.49-.07-.85-.49-.85-.99v-2.09c-1.92-.44-3.72-1.18-5.37-2.23l-1.48,1.48c-.35.35-.9.39-1.3.1-1.65-1.21-3.1-2.67-4.32-4.32-.29-.4-.25-.95.1-1.3l1.49-1.49c-1.04-1.66-1.78-3.45-2.21-5.37h-2.12c-.49,0-.92-.36-.99-.85-.17-1.14-.25-2.11-.25-3.05s.08-1.91.25-3.05c.07-.49.5-.85.99-.85h2.12c.43-1.91,1.17-3.71,2.21-5.36l-1.49-1.49c-.35-.35-.39-.9-.1-1.3,1.21-1.65,2.67-3.1,4.32-4.32.4-.29.95-.25,1.3.1l1.48,1.48c1.66-1.04,3.46-1.79,5.37-2.23v-2.09c0-.49.36-.92.85-.99,2.28-.35,3.82-.34,6.11,0,.49.07.85.5.85.99v2.09c1.92.44,3.72,1.18,5.37,2.23l1.48-1.48c.35-.35.9-.39,1.3-.1,1.65,1.22,3.1,2.67,4.32,4.32.29.4.25.95-.1,1.3l-1.49,1.49c1.04,1.65,1.78,3.45,2.21,5.36h2.12c.49,0,.92.36.99.85.17,1.14.25,2.11.25,3.05s-.08,1.91-.25,3.05c-.07.49-.49.85-.99.85h-2.12c-.43,1.91-1.17,3.71-2.21,5.37l1.49,1.49c.35.35.39.9.1,1.3-1.22,1.65-2.67,3.1-4.32,4.32-.4.29-.95.25-1.3-.1l-1.48-1.48c-1.66,1.04-3.46,1.79-5.37,2.23v2.09c0,.49-.36.92-.85.99-1.14.17-2.11.25-3.05.25ZM19.45,60.88c1.36.16,2.44.16,3.81,0v-2.03c0-.48.35-.9.82-.98,2.21-.4,4.27-1.25,6.1-2.53.4-.28.94-.23,1.28.11l1.44,1.44c.99-.8,1.89-1.7,2.69-2.69l-1.44-1.44c-.34-.34-.39-.88-.11-1.28,1.27-1.83,2.12-3.88,2.51-6.1.08-.48.5-.83.98-.83h2.06c.08-.68.12-1.3.12-1.9s-.04-1.22-.12-1.9h-2.06c-.48,0-.9-.35-.98-.83-.39-2.21-1.24-4.27-2.51-6.1-.28-.4-.23-.94.11-1.28l1.44-1.44c-.8-.99-1.7-1.89-2.69-2.69l-1.44,1.44c-.34.34-.88.39-1.28.11-1.83-1.28-3.89-2.13-6.1-2.53-.48-.08-.82-.5-.82-.98v-2.03c-1.37-.16-2.44-.16-3.81,0v2.03c0,.48-.35.9-.82.98-2.21.4-4.27,1.25-6.1,2.53-.4.28-.94.23-1.28-.11l-1.44-1.44c-.99.8-1.89,1.7-2.69,2.69l1.44,1.44c.34.34.39.88.11,1.28-1.27,1.83-2.12,3.88-2.51,6.1-.08.48-.5.83-.98.83h-2.06c-.08.68-.12,1.3-.12,1.9s.04,1.22.12,1.9h2.06c.48,0,.9.35.98.83.39,2.21,1.24,4.26,2.51,6.1.28.4.23.94-.11,1.28l-1.44,1.44c.8.99,1.7,1.89,2.69,2.69l1.44-1.44c.34-.34.88-.39,1.28-.11,1.83,1.28,3.89,2.14,6.1,2.53.48.08.82.5.82.98v2.03Z"/>
    <path class="cls-1" d="M49.24,36.87c-.4,0-.77-.24-.92-.62l-.7-1.68c-1.7.28-3.41.27-5.11,0l-.7,1.69c-.21.51-.8.75-1.31.54-.51-.21-.75-.8-.54-1.31l1.01-2.45c.19-.45.67-.7,1.14-.59,1.97.43,3.95.44,5.91.01.47-.1.95.15,1.14.59l.67,1.62c1.04-.31,2.04-.73,2.99-1.24l-.67-1.61c-.19-.45-.02-.96.39-1.23,1.69-1.08,3.1-2.49,4.19-4.18.26-.41.78-.57,1.23-.38l1.61.67c.28-.51.51-.99.71-1.46.2-.48.37-.97.53-1.53l-1.61-.67c-.45-.19-.7-.67-.59-1.14.43-1.97.43-3.96,0-5.92-.1-.47.15-.96.59-1.14l1.61-.67c-.31-1.04-.73-2.04-1.24-2.99l-1.62.67c-.44.18-.96.02-1.22-.38-1.08-1.68-2.49-3.09-4.19-4.17-.41-.26-.57-.78-.39-1.23l.68-1.63c-.51-.28-.99-.51-1.46-.71-.47-.2-.97-.37-1.53-.53l-.68,1.63c-.19.45-.67.7-1.14.59-1.97-.43-3.96-.44-5.91-.01-.48.1-.95-.15-1.14-.59l-.67-1.62c-1.04.31-2.04.73-2.99,1.24l.67,1.61c.19.45.02.96-.39,1.23-1.69,1.08-3.1,2.49-4.19,4.18-.26.41-.78.57-1.22.38l-1.61-.67c-.28.51-.51.99-.71,1.46-.2.47-.37.97-.53,1.53l1.61.67c.45.19.7.67.59,1.14-.43,1.97-.43,3.96,0,5.92.1.47-.15.96-.59,1.14l-2.43,1.01c-.51.21-1.1-.03-1.31-.54s.03-1.1.54-1.31l1.67-.69c-.28-1.7-.28-3.42,0-5.13l-1.67-.69c-.46-.19-.71-.68-.59-1.17.25-1.02.52-1.86.85-2.64.33-.79.73-1.58,1.27-2.47.25-.42.78-.6,1.24-.41l1.67.69c1.01-1.41,2.22-2.62,3.63-3.62l-.69-1.67c-.19-.46-.02-.98.41-1.24,1.59-.96,3.31-1.67,5.12-2.12.48-.12.98.13,1.16.59l.7,1.68c1.7-.28,3.41-.28,5.11,0l.7-1.69c.19-.46.68-.71,1.16-.59,1,.25,1.86.52,2.64.85.78.32,1.57.73,2.47,1.27.42.26.6.78.41,1.24l-.7,1.69c1.4,1,2.62,2.21,3.62,3.61l1.68-.7c.45-.19.98-.02,1.24.41.96,1.59,1.67,3.32,2.12,5.12.12.48-.13.97-.59,1.16l-1.67.69c.28,1.7.28,3.42,0,5.13l1.67.69c.46.19.71.68.59,1.16-.25,1-.52,1.86-.85,2.65-.33.79-.73,1.58-1.27,2.47-.26.42-.78.6-1.24.41l-1.67-.69c-1.01,1.41-2.22,2.62-3.62,3.62l.69,1.67c.19.46.02.98-.41,1.24-1.59.96-3.31,1.67-5.12,2.12-.08.02-.16.03-.24.03Z"/>
    <path class="cls-1" d="M21.36,49.45c-3.75,0-6.81-3.05-6.81-6.81s3.05-6.81,6.81-6.81,6.81,3.05,6.81,6.81-3.05,6.81-6.81,6.81ZM21.36,37.84c-2.65,0-4.81,2.16-4.81,4.81s2.16,4.81,4.81,4.81,4.81-2.16,4.81-4.81-2.16-4.81-4.81-4.81Z"/>
    <path class="cls-1" d="M45.06,24.29c-2.95,0-5.35-2.4-5.35-5.35s2.4-5.36,5.35-5.36,5.36,2.4,5.36,5.36-2.4,5.35-5.36,5.35ZM45.06,15.58c-1.85,0-3.35,1.5-3.35,3.36s1.5,3.35,3.35,3.35,3.36-1.5,3.36-3.35-1.5-3.36-3.36-3.36Z"/>
  </g>
</svg>