<?xml version="1.0" encoding="UTF-8"?>
<svg id="Layer_1" data-name="Layer 1" xmlns="http://www.w3.org/2000/svg" viewBox="0 0 64 64">
  <defs>
    <style>
      .cls-1 {
        fill: #7ba0e9;
        stroke-width: 0px;
      }
    </style>
  </defs>
  <path class="cls-1" d="M54.19,60.49c-.27,0-.52-.11-.71-.29l-13.64-13.64c-.19-.19-.29-.45-.29-.71,0-.27.11-.52.3-.71l5.4-5.23c.39-.38,1.02-.38,1.4.01l13.55,13.55c.39.39.39,1.02,0,1.41l-5.31,5.31c-.19.19-.44.29-.71.29ZM41.97,45.86l12.22,12.22,3.9-3.9-12.15-12.15-3.96,3.84Z"/>
  <path class="cls-1" d="M27.1,50.71c-13.01,0-23.6-10.59-23.6-23.6S14.09,3.51,27.1,3.51s23.6,10.59,23.6,23.6-10.59,23.6-23.6,23.6ZM27.1,5.51C15.19,5.51,5.5,15.2,5.5,27.11s9.69,21.6,21.6,21.6,21.6-9.69,21.6-21.6S39.01,5.51,27.1,5.51Z"/>
  <path class="cls-1" d="M45.21,28.29c-.55,0-1-.45-1-1,0-9.56-7.78-17.34-17.34-17.34-.55,0-1-.45-1-1s.45-1,1-1c10.66,0,19.34,8.67,19.34,19.34,0,.55-.45,1-1,1Z"/>
  <g>
    <path class="cls-1" d="M26.13,37.54c-1.99,0-3.83-.85-4.92-2.27-.34-.44-.25-1.07.18-1.4.44-.34,1.07-.25,1.4.18.71.93,1.96,1.48,3.33,1.48,2.14,0,3.88-1.36,3.88-3.03,0-1.52-1.53-2.82-3.55-3.02-2.82-.21-4.94-2.2-4.94-4.64,0-2.57,2.44-4.66,5.43-4.66,1.8,0,3.48.76,4.49,2.04.34.43.27,1.06-.16,1.41-.43.34-1.06.27-1.4-.17-.63-.8-1.73-1.28-2.93-1.28-1.89,0-3.43,1.19-3.43,2.66,0,1.36,1.37,2.52,3.11,2.65.02,0,.04,0,.05,0,3.09.32,5.33,2.42,5.33,5.01,0,2.77-2.64,5.03-5.88,5.03Z"/>
    <path class="cls-1" d="M26.51,40.56c-.55,0-1-.45-1-1v-2.85c0-.55.45-1,1-1s1,.45,1,1v2.85c0,.55-.45,1-1,1Z"/>
    <path class="cls-1" d="M26.51,21.94c-.55,0-1-.45-1-1v-2.97c0-.55.45-1,1-1s1,.45,1,1v2.97c0,.55-.45,1-1,1Z"/>
  </g>
</svg>