<?xml version="1.0" encoding="UTF-8"?>
<svg id="Layer_1" data-name="Layer 1" xmlns="http://www.w3.org/2000/svg" viewBox="0 0 64 64">
  <defs>
    <style>
      .cls-1 {
        fill: #7ba0e9;
        stroke-width: 0px;
      }
    </style>
  </defs>
  <path class="cls-1" d="M52.22,15.92c2.63,0,4.78-2.14,4.78-4.78v-4.08c0-2.63-2.14-4.78-4.78-4.78H11.78c-2.63,0-4.78,2.14-4.78,4.78v4.08c0,2.63,2.14,4.78,4.78,4.78h4.59v28.74c0,.4.32.72.72.72h5.18v4.11c0,1.37.3,2.75.88,3.99.03.06.06.11.1.16l2.94,3.54v3.82c0,.4.32.72.72.72s.72-.32.72-.72v-4.08c0-.17-.06-.33-.17-.46l-3.04-3.67c-.46-1.03-.71-2.17-.71-3.3v-4.11h21.06c-1.27,1.27-2.73,3.54-2.73,7.28,0,.4.32.72.72.72s.72-.32.72-.72c0-5.54,3.6-7.27,3.76-7.35.01,0,.03-.01.04-.02,0,0,0,0,0,0,.02-.01.04-.02.05-.03,0,0,0,0,0,0,.02-.01.04-.03.05-.04,0,0,0,0,0,0,.02-.01.03-.03.05-.05h0s.03-.03.04-.05c0,0,0,0,0,0,.01-.02.03-.03.04-.05,0,0,0,0,0,0,.01-.02.02-.03.03-.05,0,0,0-.01,0-.02,0-.01.01-.03.02-.04,0,0,0-.01,0-.02,0-.01.01-.03.01-.04,0,0,0-.02,0-.03,0-.01,0-.03.01-.04,0,0,0-.02,0-.03,0-.02,0-.03,0-.05,0,0,0-.02,0-.02,0-.02,0-.03,0-.05,0,0,0,0,0-.01v-.02s0,0,0,0v-10.13c0-2.06,1.58-3.95,3.94-4.69.48-.15.85.05,1.04.19.34.25.54.65.54,1.07l.02,8.41,1.65,7.17c.33,1.43.23,2.9-.24,4.15l-3.07,5.1c-.07.11-.1.24-.1.37v4.7c0,.4.32.72.72.72s.72-.32.72-.72v-4.51l3.03-5.04c.62-1.63.74-3.39.35-5.1l-1.63-7.01v-8.25c0-.87-.42-1.7-1.13-2.22-.68-.5-1.53-.65-2.31-.4-1.44.45-2.65,1.26-3.52,2.28v-14.82h4.59ZM16.37,8v6.5h-4.59c-1.85,0-3.35-1.5-3.35-3.35v-4.08c0-1.85,1.5-3.35,3.35-3.35h40.44c1.85,0,3.35,1.5,3.35,3.35v4.08c0,1.85-1.5,3.35-3.35,3.35h-4.59v-6.5c0-.4-.32-.72-.72-.72h-29.83c-.4,0-.72.32-.72.72ZM22.83,8.71h18.86v24.39c-3.05.33-5.48,2.76-5.81,5.81h-7.24c-.33-3.05-2.76-5.48-5.81-5.81V8.71ZM46.2,43.95h-28.4V8.71h3.6v25.07c0,.4.32.72.72.72,2.83,0,5.13,2.3,5.13,5.14,0,.4.32.72.72.72h8.59c.4,0,.72-.32.72-.72,0-2.83,2.3-5.14,5.13-5.14.4,0,.72-.32.72-.72V8.71h3.08v35.23Z"/>
  <path class="cls-1" d="M32.02,26.1c-1.91-.05-2.29-1.14-2.33-1.27-.1-.38-.48-.61-.86-.51-.38.09-.62.48-.52.87.02.08.51,1.92,2.98,2.29v.94c0,.4.32.72.72.72s.72-.32.72-.72v-.95c1.41-.28,2.66-1.44,2.94-2.86.17-.87.19-3.04-3.4-4.42-1.81-.7-2.73-1.72-2.51-2.8.2-.97,1.27-1.81,2.23-1.77,1.92.05,2.29,1.15,2.32,1.26.1.38.47.61.87.52.38-.1.62-.48.52-.87-.02-.08-.51-1.92-2.98-2.29v-.94c0-.4-.32-.72-.72-.72s-.72.32-.72.72v.95c-1.41.28-2.66,1.44-2.94,2.86-.17.87-.19,3.04,3.4,4.42,1.81.7,2.73,1.72,2.51,2.8-.19.97-1.24,1.83-2.24,1.77Z"/>
</svg>