<?xml version="1.0" encoding="UTF-8"?>
<svg id="Layer_2" data-name="Layer 2" xmlns="http://www.w3.org/2000/svg" viewBox="0 0 68.42 69.47">
  <defs>
    <style>
      .cls-1 {
        fill: #4080d4;
      }

      .cls-1, .cls-2, .cls-3 {
        stroke-width: 0px;
      }

      .cls-2 {
        fill: #98cbcb;
      }

      .cls-3 {
        fill: #fff;
      }
    </style>
  </defs>
  <g id="_圖層_4" data-name="圖層 4">
    <g>
      <rect class="cls-1" y="46.88" width="68.42" height="22.59"/>
      <path class="cls-2" d="M14.48,28.63l-.98.76h17.68c-4.63-4.31-11.7-4.63-16.7-.76Z"/>
      <path class="cls-2" d="M22.17,38.06c-4.79,0-8.67-3.88-8.67-8.67l-8.74,17.48h24.48l.98-8.82h-8.05Z"/>
      <path class="cls-2" d="M54.92,29.39l-.98-.76c-5-3.87-12.07-3.55-16.7.76h17.68c0,4.79-3.88,8.67-8.67,8.67h-8.05l.98,8.82h24.48l-8.74-17.48Z"/>
      <path class="cls-3" d="M36.57,23.37c3.64-1.02,6.32-4.36,6.32-8.34h-17.36c0,3.97,2.68,7.31,6.32,8.34l-.67,6.02H13.5c0,4.79,3.88,8.67,8.67,8.67h8.05l-.98,8.82h9.96l-.98-8.82h8.05c4.79,0,8.67-3.88,8.67-8.67h-17.68l-.67-6.02Z"/>
      <path class="cls-2" d="M19.18,0h0c8.3,0,15.03,6.73,15.03,15.03h0S19.18,0,19.18,0Z"/>
      <path class="cls-2" d="M49.24,0h0c-8.3,0-15.03,6.73-15.03,15.03h0S49.24,0,49.24,0Z"/>
      <g>
        <path class="cls-2" d="M16.35,15.17c-1.01,1.01-2.64,1.01-3.64,0s-1.01-2.64,0-3.64c1.01-1.01,6.09-2.45,6.09-2.45,0,0-1.44,5.09-2.45,6.09Z"/>
        <path class="cls-2" d="M55.71,11.53c1.01,1.01,1.01,2.64,0,3.64s-2.64,1.01-3.64,0-2.45-6.09-2.45-6.09c0,0,5.09,1.44,6.09,2.45Z"/>
      </g>
    </g>
  </g>
</svg>