<?xml version="1.0" encoding="UTF-8"?>
<svg id="Layer_2" data-name="Layer 2" xmlns="http://www.w3.org/2000/svg" viewBox="0 0 68.69 37.86">
  <defs>
    <style>
      .cls-1, .cls-2, .cls-3, .cls-4 {
        stroke-width: 0px;
      }

      .cls-2 {
        fill: #4d6294;
      }

      .cls-3 {
        fill: #ffdba2;
      }

      .cls-4 {
        fill: #fff;
      }
    </style>
  </defs>
  <g id="_圖層_4" data-name="圖層 4">
    <g>
      <path class="cls-3" d="M61.36,15.75C57.82,6.54,48.91,0,38.46,0S19.12,6.53,15.57,15.73h-3.51c-5.41,0-9.79,4.38-9.79,9.79v5.53h64.15v-10.08c0-2.83-2.25-5.13-5.06-5.23Z"/>
      <rect class="cls-2" y="31.06" width="68.69" height="2.84"/>
      <path class="cls-2" d="M11.64,23.96c0,1.41-1.14,2.55-2.55,2.55s-2.55-1.14-2.55-2.55,1.14-2.55,2.55-2.55,2.55,1.14,2.55,2.55Z"/>
      <rect class="cls-2" x="60.46" y="21.97" width="3.69" height="1.99"/>
      <g>
        <circle class="cls-1" cx="18.25" cy="32.48" r="5.39" transform="translate(-17.62 22.42) rotate(-45)"/>
        <path class="cls-1" d="M58.84,32.48c0,2.97-2.41,5.39-5.39,5.39s-5.39-2.41-5.39-5.39,2.41-5.39,5.39-5.39,5.39,2.41,5.39,5.39Z"/>
      </g>
      <rect class="cls-4" x="29.33" y="18.9" width="3.88" height="1.61"/>
      <g>
        <path class="cls-4" d="M20.58,15.73h15.37V4.71c-6.66.83-12.39,4.94-15.37,11.02Z"/>
        <path class="cls-4" d="M56.34,15.73c-2.98-6.08-8.71-10.19-15.37-11.02v11.02h15.37Z"/>
      </g>
    </g>
  </g>
</svg>