<?xml version="1.0" encoding="UTF-8"?>
<svg id="Layer_2" data-name="Layer 2" xmlns="http://www.w3.org/2000/svg" viewBox="0 0 93.49 61.73">
  <defs>
    <style>
      .cls-1 {
        fill: #413850;
      }

      .cls-1, .cls-2, .cls-3, .cls-4, .cls-5, .cls-6 {
        stroke-width: 0px;
      }

      .cls-2 {
        fill: #4080d4;
      }

      .cls-3 {
        fill: #98cbcb;
      }

      .cls-4 {
        fill: #ffdba2;
      }

      .cls-5 {
        fill: #fff;
      }

      .cls-6 {
        fill: #ffb2b1;
      }
    </style>
  </defs>
  <g id="_圖層_4" data-name="圖層 4">
    <g>
      <path class="cls-2" d="M52.86,51.18c0,3.94-3.2,7.14-7.14,7.14s-7.14-3.2-7.14-7.14c0-3.35,2.31-6.16,5.43-6.92v-3.48c-5.01.82-8.84,5.16-8.84,10.4,0,5.83,4.72,10.55,10.55,10.55s10.55-4.72,10.55-10.55c0-5.24-3.83-9.58-8.84-10.4v3.48c3.12.77,5.43,3.57,5.43,6.92Z"/>
      <path class="cls-2" d="M17.69,51.18c0,3.94-3.2,7.14-7.14,7.14s-7.14-3.2-7.14-7.14c0-3.35,2.31-6.16,5.43-6.92v-3.48c-5.01.82-8.84,5.16-8.84,10.4,0,5.83,4.72,10.55,10.55,10.55s10.55-4.72,10.55-10.55c0-5.24-3.83-9.58-8.84-10.4v3.48c3.12.77,5.43,3.57,5.43,6.92Z"/>
      <path class="cls-2" d="M45.01,28.26h-5.9c-1.86,0-3.37,1.51-3.37,3.37h0c0,1.86,1.51,3.37,3.37,3.37h8.32v-6.22c-.85.21-1.74,0-2.42-.53Z"/>
      <path class="cls-3" d="M84.73,14.07h-19.53c-.34.04-.69.13-1.02.29l-17.07,8.36,2.49,5.08,15.6-7.64v12.18h19.53v3.57h5.66v-16.18c0-3.12-2.53-5.66-5.66-5.66Z"/>
      <g>
        <path class="cls-6" d="M78.67,5.35c-.03-.24-.08-.47-.14-.7.07.26.11.49.14.7Z"/>
        <path class="cls-6" d="M78.67,5.35c.03.2.07.39.08.6-.01-.15-.04-.36-.08-.6Z"/>
        <path class="cls-6" d="M78.53,4.65c-.05-.19-.1-.39-.17-.6.07.19.12.4.17.6Z"/>
        <path class="cls-6" d="M74.02,8.8c.39-.36.95-1.6.88-2.55-.07-.86-.65-1.48-2.39-.98-1.44.41-3.5-.5-5.34-1.08-.18-.06-.33-.14-.48-.23-.28.71-.44,1.48-.44,2.3,0,3.1,2.25,5.66,5.21,6.16v1.66h7.29v-3.3l-1.4-.58-3.35-1.39Z"/>
        <path class="cls-6" d="M45.51,23.51c-1.4.69-1.98,2.38-1.3,3.78.19.4.47.72.8.97.68.53,1.57.74,2.42.53.19-.05.38-.11.56-.2l1.61-.79-2.49-5.08-1.61.79Z"/>
        <path class="cls-6" d="M84.73,35.91v1.79c0,1.56,1.27,2.83,2.83,2.83s2.83-1.27,2.83-2.83v-1.79h-5.66Z"/>
      </g>
      <path class="cls-1" d="M78.75,5.95c-.03-.38-.12-1.1-.39-1.9-.56-1.68-1.9-3.72-5.11-4-.24-.02-.47-.05-.74-.05-1.95,0-3.71.26-5.2.61-1.65.39-1.89,2.51-.61,3.35.14.09.3.17.48.23,1.83.58,3.9,1.49,5.34,1.08,1.73-.5,2.32.13,2.39.98.07.95-.49,2.19-.88,2.55l3.35,1.39,1.4.58v-4.52s0-.11-.02-.3Z"/>
      <g>
        <path class="cls-4" d="M44.01,35.01H12.26v-8.24h8.28v-3.41h-11.7v27.82c0,.94.76,1.71,1.71,1.71s1.71-.76,1.71-1.71v-12.75h31.76v12.75c0,.94.76,1.71,1.71,1.71s1.71-.76,1.71-1.71v-16.17h-3.41Z"/>
        <path class="cls-4" d="M62.51,58.84c-.42.3-.66.78-.66,1.3,0,.88.71,1.6,1.6,1.6h9.3c.88,0,1.6-.71,1.6-1.6v-3.23h-9.13l-2.69,1.94Z"/>
        <path class="cls-4" d="M93.03,52.43l-2.29-2.29-6.46,6.46-.54,3.28c-.08.51.08,1.02.45,1.39h0c.62.62,1.63.62,2.26,0l6.58-6.58c.62-.62.62-1.63,0-2.26Z"/>
      </g>
      <path class="cls-5" d="M84.73,44.13v-11.8h-19.53v24.57h9.13v-18.9h1.26v6.64c0,2.1.83,4.11,2.32,5.59l6.37,6.37,6.46-6.46-6.01-6.01Z"/>
    </g>
  </g>
</svg>