<?xml version="1.0" encoding="UTF-8"?>
<svg id="Layer_2" data-name="Layer 2" xmlns="http://www.w3.org/2000/svg" viewBox="0 0 107 43">
  <defs>
    <style>
      .cls-1 {
        fill: #fff;
        stroke-width: 0px;
      }
    </style>
  </defs>
  <g id="_圖層_4" data-name="圖層 4">
    <path class="cls-1" d="M85.5,0c-6.36,0-12.06,2.78-16,7.17-3.94-4.39-9.64-7.17-16-7.17s-12.06,2.78-16,7.17C33.56,2.78,27.86,0,21.5,0,9.63,0,0,9.63,0,21.5s9.63,21.5,21.5,21.5c6.36,0,12.06-2.78,16-7.17,3.94,4.39,9.64,7.17,16,7.17s12.06-2.78,16-7.17c3.94,4.39,9.64,7.17,16,7.17,11.87,0,21.5-9.63,21.5-21.5S97.37,0,85.5,0Z"/>
  </g>
</svg>