<?xml version="1.0" encoding="UTF-8"?>
<svg id="Layer_1" data-name="Layer 1" xmlns="http://www.w3.org/2000/svg" viewBox="0 0 240 250">
  <defs>
    <style>
      .cls-1 {
        fill: #7ba3ec;
      }

      .cls-1, .cls-2, .cls-3, .cls-4, .cls-5, .cls-6, .cls-7, .cls-8, .cls-9, .cls-10, .cls-11 {
        stroke-width: 0px;
      }

      .cls-2 {
        fill: #1a1a31;
      }

      .cls-3 {
        fill: #1a1a1a;
      }

      .cls-4 {
        fill: #4080d4;
      }

      .cls-5 {
        fill: #de9b77;
      }

      .cls-6 {
        fill: #d9dcfa;
      }

      .cls-7 {
        fill: #90b9f2;
      }

      .cls-8 {
        fill: #fff;
      }

      .cls-9 {
        fill: #efefef;
      }

      .cls-10 {
        fill: #ffc787;
      }

      .cls-11 {
        fill: #ffa85c;
      }
    </style>
  </defs>
  <path class="cls-8" d="M48.17,93.14l-5.09,12.98h71.32l-5.09-12.98h-61.14ZM58.85,102.12h-8.47v-1.1h8.47v1.1ZM60.36,97.63h-8.47v-1.1h8.47v1.1ZM97.13,96.52h8.47v1.1h-8.47v-1.1ZM107.11,102.12h-8.47v-1.1h8.47v1.1Z"/>
  <polygon class="cls-1" points="59.93 55.64 60.66 53.17 59.18 53.17 59.93 55.64"/>
  <polygon class="cls-1" points="54.48 55.64 55.22 53.17 53.74 53.17 54.48 55.64"/>
  <rect class="cls-6" x="89.81" y="79.69" width="24.85" height="7.01"/>
  <polygon class="cls-6" points="68.96 15.18 67.4 19.05 70.63 19.05 68.96 15.18"/>
  <polygon class="cls-1" points="56.67 52.11 57.71 52.11 57.19 50.38 56.67 52.11"/>
  <path class="cls-1" d="M114.66,34.45H42.83v38.43h71.84v-38.43Z"/>
  <path class="cls-6" d="M33.61,228.47h90.27V3.1H33.61v225.37ZM115.67,106.98c-.1.15-.27.24-.46.24H42.27c-.18,0-.35-.09-.46-.24-.1-.15-.12-.34-.06-.51l5.52-14.08c.08-.21.29-.35.51-.35h61.89c.23,0,.43.14.51.35l5.52,14.08c.07.17.05.36-.06.51ZM115.77,87.26c0,.31-.25.55-.55.55h-25.95c-.31,0-.55-.25-.55-.55v-8.11c0-.31.25-.55.55-.55h25.95c.31,0,.55.25.55.55v8.11ZM83.83,12.89h1.41l3.45,4.39,3.43-4.39h1.39v10.7h-1.49v-8.32l-3.19,4.13h-.27l-3.23-4.13v8.32h-1.49v-10.7ZM73.33,12.87h8.67v1.36h-3.62v9.35h-1.49v-9.35h-3.56v-1.36ZM68.45,12.83h1.04l4.65,10.76h-1.52l-1.38-3.17h-4.43l-1.3,3.17h-1.53l4.46-10.76ZM41.72,33.9c0-.31.25-.55.55-.55h72.94c.31,0,.55.25.55.55v39.54c0,.31-.25.55-.55.55H42.27c-.31,0-.55-.25-.55-.55v-39.54Z"/>
  <path class="cls-2" d="M124.43,2H33.06c-.31,0-.55.25-.55.55v226.47c0,.31.25.55.55.55h91.37c.31,0,.55-.25.55-.55V2.55c0-.31-.25-.55-.55-.55ZM123.88,228.47H33.61V3.1h90.27v225.37Z"/>
  <path class="cls-2" d="M42.27,73.99h72.94c.31,0,.55-.25.55-.55v-39.54c0-.31-.25-.55-.55-.55H42.27c-.31,0-.55.25-.55.55v39.54c0,.31.25.55.55.55ZM42.83,34.45h71.84v38.43H42.83v-38.43Z"/>
  <path class="cls-2" d="M66.82,20.41h4.43l1.38,3.17h1.52l-4.65-10.76h-1.04l-4.46,10.76h1.53l1.3-3.17ZM68.96,15.18l1.67,3.87h-3.23l1.55-3.87Z"/>
  <polygon class="cls-2" points="76.89 23.58 78.38 23.58 78.38 14.23 82 14.23 82 12.87 73.33 12.87 73.33 14.23 76.89 14.23 76.89 23.58"/>
  <polygon class="cls-2" points="85.31 15.26 88.54 19.39 88.81 19.39 92 15.26 92 23.58 93.5 23.58 93.5 12.89 92.11 12.89 88.68 17.28 85.23 12.89 83.83 12.89 83.83 23.58 85.31 23.58 85.31 15.26"/>
  <path class="cls-2" d="M110.2,92.38c-.08-.21-.29-.35-.51-.35h-61.89c-.23,0-.43.14-.51.35l-5.52,14.08c-.07.17-.05.36.06.51.1.15.27.24.46.24h72.94c.18,0,.35-.09.46-.24.1-.15.12-.34.06-.51l-5.52-14.08ZM43.08,106.11l5.09-12.98h61.14l5.09,12.98H43.08Z"/>
  <rect class="cls-2" x="51.89" y="96.52" width="8.47" height="1.1"/>
  <rect class="cls-2" x="50.38" y="101.02" width="8.47" height="1.1"/>
  <rect class="cls-2" x="97.13" y="96.52" width="8.47" height="1.1"/>
  <rect class="cls-2" x="98.63" y="101.02" width="8.47" height="1.1"/>
  <path class="cls-2" d="M115.21,78.59h-25.95c-.31,0-.55.25-.55.55v8.11c0,.31.25.55.55.55h25.95c.31,0,.55-.25.55-.55v-8.11c0-.31-.25-.55-.55-.55ZM114.66,86.7h-24.85v-7.01h24.85v7.01Z"/>
  <g>
    <polygon class="cls-4" points="147.03 169.49 147.01 165.98 161.48 149.06 160.43 169.49 147.03 169.49"/>
    <path class="cls-4" d="M174.6,223.78l-.57-5.99c1.58,2.03,2.7,4.06,3.49,5.99h-2.91Z"/>
    <path class="cls-8" d="M175.75,228.2v-3.36h2.17c.72,2.01,1.08,3.88,1.25,5.49-1.23.22-2.94.17-4.92-.87l1.25-.81c.15-.1.24-.27.24-.45Z"/>
    <path class="cls-11" d="M177.89,207.26c5.19,7.09,10.43,19.7,10.03,29.26l-2.93,1.98c-.94.64-1.5,1.69-1.5,2.83,0,.27.04.54.1.8h-5.29c-1.3,0-2.35-1.06-2.35-2.35,0-.92.52-1.76,1.33-2.15l2.51-1.21c.14-.07.25-.2.29-.36.09-.4,2.17-9.84-5.58-19.4-4.64-5.73-8.79-12.51-10.01-14.56,5.76-1.13,10.06.58,13.42,5.17Z"/>
    <path class="cls-9" d="M155.96,237.69c-.44.44-1.03.69-1.65.69h-16.58s0,0,0,0c-.64,0-1.23-.25-1.67-.71-.09-.1-.17-.21-.25-.32h20.43c-.08.12-.17.24-.28.34Z"/>
    <path class="cls-10" d="M187.18,172.94c.94-.43,2.64-.99,4.49-.6,1.79.38,3.36,1.58,4.64,3.56,1.5,2.32,2.45,4.65,3.28,6.71,1.43,3.53,2.69,6.63,6.15,7.69-1.59,1-5.29,2.51-10.45-.58-.38-5.46-1.86-9.91-4.4-13.24-1.06-1.38-2.3-2.56-3.71-3.54Z"/>
    <path class="cls-7" d="M179.26,231.39c.12,2.11-.09,3.62-.19,4.18l-1.48.71h-16.37c-.01-.11-.02-.22-.02-.33.05-1.12.88-2.05,1.99-2.21,1.03-.15,2.76-.29,2.78-.29.7-.12,1.34-.32,1.95-.6l1.72,1.91.79-.71-1.53-1.69,1.32-.69,1.8,1.99.79-.71-1.62-1.79,2.03-1.07c2.41,1.44,4.52,1.55,6.04,1.29Z"/>
    <path class="cls-9" d="M175.16,238.38h-11.64s0,0,0,0c-.64,0-1.23-.25-1.67-.71-.09-.1-.17-.21-.25-.32h14.27c-.29.3-.54.64-.7,1.03Z"/>
    <path class="cls-8" d="M149.96,228.2v-3.36h5.59s-.21,4.79-.21,4.79c-.74.43-3.39,1.67-6.88-.17l1.25-.81c.15-.1.24-.27.24-.45Z"/>
    <path class="cls-4" d="M143.1,170.55h.91c-1.4,21.72-7.26,38.31-8.28,41.06-2.19.39-3.84.53-4.73.58,3.85-11.03,6.53-27.89,7.74-36.55l4.35-5.09Z"/>
    <path class="cls-7" d="M155.75,230.63c.56.87.88,2.81.89,5.44,0,.08-.01.15-.02.22h-21.18c-.01-.11-.02-.22-.02-.33.05-1.12.88-2.05,1.99-2.21,1.03-.15,2.76-.29,2.78-.29.7-.12,1.34-.32,1.95-.6l1.72,1.91.79-.71-1.53-1.69,1.31-.69,1.8,1.99.79-.71-1.62-1.79,2.03-1.07c4.02,2.41,7.2,1.14,8.32.53Z"/>
    <path class="cls-10" d="M174.4,170.55c7.05,0,12.31,2.21,15.65,6.57,7.41,9.7,3.07,26.7,2.55,28.6-.86,3.16.34,8.73,1.62,14.62.71,3.3,1.45,6.72,1.88,9.91.84,6.22.27,9.86-.36,11.82-.31.96-1.2,1.6-2.23,1.6h-6.61c-1.3,0-2.35-1.06-2.35-2.35,0-.78.39-1.51,1.04-1.95l3.15-2.13c.14-.09.22-.25.23-.41.53-9.84-4.87-22.91-10.22-30.21-5.39-7.36-13.28-7.83-24.86-1.49-6.56,3.6-12.6,5.37-16.94,6.24,1.47-4.1,6.8-20.19,8.13-40.83h29.33Z"/>
    <path class="cls-10" d="M137.46,177.14c-.17,1.18-.36,2.46-.57,3.84-1.64.93-3.25,1.75-4.82,2.47l5.39-6.31Z"/>
    <path class="cls-4" d="M168.89,169.49l-2.86-29.84,6.49-9.09h9.31c.68,2.92,1.04,5.91,1.04,8.91v31.31c-2.48-.86-5.3-1.29-8.47-1.29h-5.51Z"/>
    <path class="cls-4" d="M158.64,203.98l-1.28,19.8h-9.91s-.14-14.38-.14-14.38c2.25-.89,4.63-1.98,7.08-3.33,1.48-.81,2.89-1.51,4.24-2.09Z"/>
    <path class="cls-4" d="M146.81,138.09c.13-2.49.35-5.03.65-7.53h3.78c.29,0,.53-.24.53-.53.01-2.93.15-6.57.36-10.57h12.16s-8.5,15.25-8.5,15.25l-4.9,2.54c-1.7.94-2.64,2.79-2.47,4.66-.49.18-.93.48-1.27.89l-.31.36-.04-5.08Z"/>
    <path class="cls-6" d="M155.36,78.84c-.75,7.86-2.39,25.66-3.16,39.57h12.7s2.84-5.1,2.84-5.1c-.67-12.76-1.19-27.34-1.42-34.47-.97.36-3.02.98-5.59.98-1.63,0-3.47-.25-5.37-.97ZM157.28,100.96l.97-.44c1.8,3.94,4.02,7.7,6.59,11.18l-.85.63c-2.61-3.54-4.87-7.37-6.7-11.37Z"/>
    <path class="cls-8" d="M130.77,84.05l-5.18,2.56-3.13-4.42c-.68-.89-.57-2.15.25-2.89l1.6-1.45c.29-.26.74-.25,1.02.03l.64.65c.23.24.28.61.1.9l-.53.87c-.1.16-.3.23-.48.15-.09-.04-.16-.12-.2-.22-.03-.1-.03-.2.02-.29l.35-.72-.96-.46-.35.72c-.17.35-.19.75-.06,1.12s.4.66.76.82c.66.3,1.45.06,1.83-.56l.19-.32c.24.08.8.32,1.16.9.38.62.43,1.48.15,2.54l1.03.27c.36-1.36.27-2.5-.28-3.38-.46-.74-1.12-1.1-1.55-1.27.02-.06.04-.13.05-.2.52-.29.86-.77.97-1.35,0-.02,0-.05,0-.07.49-.25.82-.7.95-1.25.48-.2.84-.58.99-1.11.17-.6.02-1.26-.39-1.73-.28-.31-.63-.63-1.03-.96-.06-.14-.08-.32.13-.49.19-.14.31-.13.41-.1.39.13.96.87,1.32,2.18.47,1.72.29,3.23.29,3.24,0,.07,0,.13.01.2,0,.04.87,3.59-.08,6.08Z"/>
    <path class="cls-4" d="M146.86,144.8l1.1-1.29c.19-.22.42-.39.67-.51l.67,2.68c.21.85.97,1.45,1.85,1.45.46,0,.88-.17,1.22-.46.36.52.97.86,1.65.86s1.23-.32,1.59-.8c.3.24.67.4,1.08.4h.27c.56,0,1.06-.27,1.37-.69.28.21.63.34,1.01.34.85,0,1.57-.61,1.7-1.46l.38-2.47c.62.13,1.13.53,1.41,1.14.34.75.23,1.56-.3,2.19l-15.57,18.2-.14-19.56Z"/>
    <path class="cls-7" d="M145.16,129.5c.28-3.19,1.61-18.64,1.21-25.59,0-.05-.01-.1-.03-.14l-1.28-3.76c-.95-2.78-.95-5.85,0-8.63l1.73-5.1-1.01-.34-1.73,5.1c-1.02,3-1.02,6.31,0,9.32l1.19,3.5-1.42,1.91c-1.42,1.91-3.7,3.05-6.08,3.05-2.86,0-5.44-1.58-6.75-4.12l-8.01-15.61,7.97-3.94,4.94,9.82,2.38,4.98.96-.46-2.29-4.79,3.52-11c.97-3.03,3.39-5.34,6.46-6.16l7.69-2.06c-.54,5.46-3.75,38.68-3.9,54.03h-5.56Z"/>
    <path class="cls-11" d="M119.2,212.72c.05,2.35.21,16.36-2.62,24.22l-2.58,1.1c-1.26.54-2.08,1.77-2.08,3.14v.16c0,.27.04.54.1.8h-3.05c-1.3,0-2.35-1.06-2.35-2.35v-.36c0-.9.52-1.73,1.34-2.12l4.6-2.2c.13-.06.23-.18.28-.32,2.05-6.47,1.36-14.34.43-19.79-.55-3.22-1.25-6-1.77-7.87,3.25,3.46,6.65,5.14,7.72,5.61Z"/>
    <path class="cls-8" d="M152.01,145.18c0,.23-.08.45-.24.62-.16.17-.38.26-.61.26-.39,0-.73-.26-.82-.64l-.76-3.02c-.03-.13-.04-.25-.06-.38v-.29s-.03,0-.04,0c-.09-1.43.64-2.81,1.92-3.53l4.79-2.49,6.9,3.25c.01.5-.2,1.76-2.32,2.81-.16.08-.26.22-.29.4l-.46,2.97c-.05.32-.33.56-.65.56-.36,0-.66-.3-.66-.66v-1.95s0-.84,0-.84h-1.06s0,.84,0,.84v1.95s0,.35,0,.35c0,.36-.3.66-.66.66h-.27c-.36,0-.66-.3-.66-.66v-2.3s0-.84,0-.84h-1.06s0,.84,0,.84v2.3s0,.1,0,.1c0,.53-.43.96-.96.96s-.94-.41-.96-.93v-.38s-.01,0-.01,0l-.04-1.24v-.3s-.05-1.37-.05-1.37l-1.06.03.05,1.66.04,1.26Z"/>
    <path class="cls-8" d="M127.83,75.57c.23.21.33.52.29.83-.01.09-.05.21-.12.33-.11-.23-.27-.44-.48-.62l-1.17-1.04c-.28-.25-.63-.41-.98-.48.16-.19.39-.31.64-.33.25-.02.5.07.69.25l1.13,1.06Z"/>
    <path class="cls-8" d="M143.75,49.32h.37c.09,4.34.93,18.54,7.78,18.54,4.33,0,7.35-2.43,10.26-4.78l.16-.12.67.83-.15.12c-2.09,1.68-4.37,3.52-7.23,4.43l.15,6.41s0,.04,0,.06h0c0,.06-.11,1.13-.29,2.94,5.06,2.03,9.8.38,10.81-.03-.07-2.02-.1-3.22-.1-3.26h0l-.51-15.03c0-.19.08-.36.24-.46.03-.02,3.47-2.31,2.32-5.06-.42-1.01-1.01-1.53-1.8-1.58-.29,2.56-1.03,4.41-2.23,5.51-1,.91-2.01.99-2.31.99-.05,0-.09,0-.09,0-.18-.01-.34-.12-.42-.27s-.09-.34,0-.5c.94-1.82.43-4.98-.3-7.65-1.07.16-2.06.23-2.98.23-5.28,0-8.24-2.31-9.73-4.05-.16.96-.35,2.45-.28,3.57.21.15.44.29.69.42l-.47.95c-1.93-.96-2.87-2.66-3.32-4.28-.46.4-1.03,1.09-1.21,2.09ZM151.95,56.57c0,.24-.16.44-.38.51-.01,0-1.05.34-.95.91.13.76,1.02,1.19,1.03,1.2l-.44.96c-.06-.03-1.41-.66-1.63-1.99-.17-1.01.63-1.65,1.32-1.96v-3.08h1.06v3.45ZM155.88,55.77c-.51,0-.93-.59-.93-1.33,0-.73.42-1.33.93-1.33s.93.59.93,1.33c0,.73-.42,1.33-.93,1.33ZM149.28,62.68l.49-.94c3.71,1.94,5.31-.74,5.37-.85l.92.52s-1.22,2.1-3.78,2.1c-.85,0-1.85-.23-3-.83ZM146.66,54.45c0-.73.42-1.33.93-1.33s.93.59.93,1.33c0,.73-.42,1.33-.93,1.33s-.93-.59-.93-1.33Z"/>
    <path class="cls-4" d="M167.22,74.02l-.49-14.35c.89-.66,3.75-3.1,2.47-6.18-.71-1.71-1.84-2.16-2.68-2.22.02-.38.04-.76.05-1.17h-1.06c-.05,4.23-1.11,6.09-1.99,6.92-.3.28-.59.45-.85.56,1.18-4.32-2.12-12.03-2.27-12.38l-.97.42s.7,1.64,1.34,3.74c-9.83,1.38-12.57-4.81-12.68-5.08l-.98.41s.37.85,1.25,1.88c-.16.96-.35,2.45-.28,3.57-2.92-2.13-2.38-6.85-2.37-6.9l-1.05-.13c-.02.14-.24,2.07.32,4.12-.46.4-1.03,1.09-1.21,2.09h-.69c.02.92.06,2.01.15,3.21-.7-.58-1.32-1.66-1.65-2.98-.34-1.38-1.08-6.22,3.8-10.67,4.17-3.81,12.3-4.87,18.51-2.43,3.05,1.2,5.54,3.6,7.02,6.74,1.42,3.02,2.54,6.68,2.99,9.78.27,1.87.37,3.81.46,5.69.16,3.31.33,6.73,1.47,9.93.68,1.91,2.06,3.9,3.99,4.32-.94,1.47-2.28,2.66-3.86,3.41l-8.73-2.28Z"/>
    <path class="cls-7" d="M178.69,120.12l-13.38,18.72-8.39-3.95,11.99-21.51c.5-.06,2-.1,4.74.88l.36-1c-2.47-.88-4.02-1-4.85-.97l2.39-26.18-1.06-.1-1.97,21.65c-.68-14.29-1.16-29.16-1.26-32.54l8.71,2.28c4.29,1.12,7.15,5.15,6.8,9.57l-2.19,27.82c-.13,1.92-.78,3.76-1.9,5.32Z"/>
    <path class="cls-7" d="M179.55,120.73c.45-.64.84-1.31,1.15-2.02,1.02,3.77,1.78,9.03,2.02,10.79h-9.44s6.27-8.77,6.27-8.77Z"/>
    <path class="cls-8" d="M129.1,75.32s-.04.1-.07.15c-.11-.25-.26-.49-.47-.68l-1.13-1.06c-.23-.21-.5-.36-.79-.45.25-.15.56-.15.81.02.63.44,1.12.87,1.48,1.27.17.2.24.48.17.74Z"/>
    <path class="cls-8" d="M126.82,76.91c.26.23.38.58.31.93-.02.12-.07.23-.13.32-.08-.13-.16-.26-.27-.37l-.64-.65c-.68-.69-1.77-.72-2.49-.08l-1.39,1.26c.07-.59.37-1.14.86-1.5l1.35-1c.37-.27.88-.25,1.23.05l1.17,1.04Z"/>
    <path class="cls-10" d="M79.95,163.68c.51,1.33,1.34,2.82,2.7,4.14.4.39.83.75,1.28,1.08,4.69,1.31,6.2-2.26,6.26-2.41l.49.2.49.19s-1.3,3.15-4.92,3.36c2.38,1.06,5.29,1.55,8.7,1.47.04,0,.07,0,.1,0,4.51,0,6.43,6.81,9.07,16.21.03.12.07.24.1.36,1.84.33,12.05,1.76,25.61-3.86l7.9-9.23c.3-2.19.51-3.82.61-4.64-8.47-.09-19.2-2.07-24.19-10.65-2,2.3-5.01,4.32-7.71,5.84-.57.32-1.19.48-1.82.48s-1.31-.18-1.9-.53c-1.16-.69-1.85-1.91-1.83-3.26.13-8.9,1.37-13.77,3.91-15.32-5-.92-8.95-.35-11.77,1.71-4,2.92-4.3,7.93-4.3,7.98-.01.22-.16.41-.37.48l-5.8,1.86c.12,1.3-.03,3.78-2.62,4.54ZM94.15,157.19c.26-1.19,1.04-2.03,1.74-1.88.7.15,1.06,1.24.79,2.44-.26,1.19-1.04,2.03-1.74,1.88-.7-.15-1.06-1.24-.79-2.44Z"/>
    <path class="cls-4" d="M139.01,173.7c.2-1.48.33-2.57.4-3.14h2.29s-2.69,3.14-2.69,3.14Z"/>
    <path class="cls-4" d="M128.36,186.15l-3.96,4.63.81.69,5.27-6.16c2-.84,4.07-1.83,6.19-2.99-.27,1.72-.58,3.55-.91,5.44-8.92,4.5-16.64,5.86-21.57,6.21-4.47.31-7.49-.13-8.41-.29-.43-1.45-.84-2.87-1.24-4.26.96.14,2.69.33,5.06.33,4.41,0,10.99-.67,18.76-3.6Z"/>
    <path class="cls-10" d="M114.22,195.02c4.9-.34,12.52-1.67,21.31-5.97-1.24,6.87-2.86,14.43-4.81,20.61-.12-3.81-.54-7.78-1.39-11.82l-1.04.22c4.31,20.38-2.46,38.98-4.64,44.19-.37.87-1.22,1.44-2.17,1.44h-6.15c-1.3,0-2.35-1.06-2.35-2.35v-.16c0-.94.56-1.79,1.43-2.17l2.79-1.19c.13-.06.24-.17.29-.3,3.25-8.7,2.78-24.51,2.76-25.17,0-.21-.14-.4-.33-.48-.1-.04-9.68-3.95-13.07-14.73-.25-.79-.5-1.57-.73-2.33.95.14,2.64.33,4.96.33.95,0,1.99-.03,3.14-.11Z"/>
    <path class="cls-5" d="M105.92,164.81c-.83.47-1.83.46-2.66-.03-.83-.49-1.32-1.37-1.31-2.33.12-8.36,1.29-13.23,3.47-14.48,1.2-.68,2.77-.37,5.24,1.05,3.12,1.79,4.7,3.76,4.69,5.84-.01,3-3.36,6.53-9.44,9.95Z"/>
    <path class="cls-2" d="M78.06,159.86c0,.2.04,4.99,3.84,8.72,2.97,2.91,7.35,4.32,13.07,4.19,3.76-.1,5.69,6.76,8.13,15.44.79,2.82,1.69,6.01,2.73,9.25.96,3.05,2.37,5.56,3.92,7.61.49,1.5,5.62,17.65,2.12,29.16l-4.39,2.1c-1.18.56-1.94,1.77-1.94,3.08v.36c0,1.88,1.53,3.42,3.42,3.42h3.48s0-.04,0-.04c.61.96,1.67,1.59,2.88,1.59h6.15c1.38,0,2.62-.82,3.15-2.09,1.64-3.92,5.84-15.32,6.11-29.39,1.73-.08,7.76-.56,15.51-3.46l.14,14.51c0,.29.24.53.53.53h1.98v3.07s-1.72,1.11-1.72,1.11l-5.16,2.71c-.62.32-1.28.55-1.96.66-.03,0-1.74.14-2.8.29-1.62.23-2.84,1.58-2.9,3.21-.04.93.3,1.81.94,2.49.64.67,1.51,1.04,2.44,1.04h16.58c.91,0,1.76-.35,2.4-1,.64-.64.98-1.48.98-2.38-.01-3.21-.45-5.34-1.29-6.33l.21-4.89h1.24c.28,0,.51-.22.53-.5l1.34-20.81c1.28-.51,2.49-.9,3.65-1.19.9,1.51,4.84,8.06,9.43,13.92l.78,8.1c.03.27.25.48.53.48h.57v3.07s-1.72,1.11-1.72,1.11l-5.16,2.71c-.62.32-1.28.55-1.96.66-.03,0-1.74.14-2.8.29-1.62.23-2.84,1.58-2.9,3.21-.04.93.3,1.82.94,2.49.64.67,1.51,1.04,2.44,1.04h11.38c0,.1-.02.2-.02.31,0,1.91,1.53,3.44,3.42,3.44h5.73s0-.04,0-.04c.61.96,1.67,1.59,2.88,1.59h6.61c1.49,0,2.8-.94,3.24-2.34.66-2.06,1.26-5.86.4-12.29-.44-3.23-1.18-6.67-1.9-9.99-1.25-5.77-2.43-11.21-1.63-14.12.43-1.56,1.82-7.17,1.78-13.62,0-.47-.01-.94-.03-1.4,2.21,1.2,4.18,1.62,5.85,1.62,3.81,0,6.08-2.15,6.12-2.19.14-.14.2-.35.14-.54-.06-.19-.22-.33-.42-.36-3.75-.6-4.89-3.41-6.47-7.3-.85-2.1-1.82-4.48-3.37-6.89-1.44-2.23-3.23-3.59-5.32-4.03-2.64-.56-4.95.53-5.74.97-.7-.41-1.43-.77-2.2-1.09v-31.71c0-3-.34-5.99-1.01-8.91h.4c.15,0,.3-.07.4-.18.1-.11.15-.27.13-.42-.04-.35-1.08-8.46-2.56-12.98.18-.69.3-1.39.35-2.11l2.19-27.82c.36-4.54-2.32-8.7-6.48-10.31,1.6-.98,2.93-2.38,3.8-4.06.09-.17.08-.37-.02-.53-.1-.16-.28-.26-.47-.25-.03,0-.07,0-.1,0-1.79,0-3.11-1.89-3.75-3.69-1.09-3.05-1.25-6.39-1.41-9.62-.09-1.9-.19-3.87-.47-5.79-.47-3.2-1.62-6.96-3.08-10.08-1.59-3.39-4.29-5.97-7.59-7.28-6.55-2.58-15.17-1.43-19.62,2.63-5.31,4.85-4.49,10.19-4.11,11.71.49,1.97,1.56,3.48,2.79,4.01.61,6.5,2.56,15.11,8.59,15.11.94,0,1.81-.11,2.65-.3l.13,5.73-8.02,2.15c-3.43.92-6.12,3.49-7.2,6.87l-3.19,9.96-4.49-8.94c.97-2.59.27-5.97.13-6.59.04-.4.14-1.87-.33-3.56-.42-1.54-1.17-2.63-2.01-2.9-.47-.16-.97-.06-1.39.26-.25.2-.4.42-.49.65-.72-.28-1.57-.09-2.07.54l-.57.7c-.2.12-.38.26-.52.44l-.93,1.15-1.17.87c-1.09.81-1.54,2.22-1.16,3.51-.52,1.06-.42,2.37.33,3.35l3.02,4.27-2.59,1.28c-.13.06-.22.17-.27.31-.04.13-.03.28.03.41l8.26,16.09c1.49,2.9,4.43,4.7,7.69,4.7,2.72,0,5.31-1.3,6.93-3.48l.69-.92c.18,8.29-1.3,24.35-1.32,24.52-.01.15.04.3.14.41.1.11.24.17.39.17h1.82c-.3,2.49-.52,5.01-.64,7.51l.04,6.34-19.82,23.23c-4.55-1.52-8.65-4.17-11.11-8.64.95-1.31,1.55-2.7,1.55-4.13.01-2.5-1.75-4.77-5.22-6.77-1.19-.68-2.48-1.31-3.75-1.49-6.46-1.68-11.52-1.22-15.04,1.37-3.79,2.78-4.55,7.11-4.69,8.41l-9.28,2.97c-.22.07-.37.27-.37.5ZM105.92,164.81c-.83.47-1.83.46-2.66-.03-.83-.49-1.32-1.37-1.31-2.33.12-8.36,1.29-13.23,3.47-14.48,1.2-.68,2.77-.37,5.24,1.05,3.12,1.79,4.7,3.76,4.69,5.84-.01,3-3.36,6.53-9.44,9.95ZM145.94,165.59l-3.34,3.9h-3.66c-3.71,0-7.92-.36-11.87-1.51l18.73-21.95.14,19.56ZM139.42,170.55h2.29s-2.69,3.14-2.69,3.14c.2-1.48.33-2.57.4-3.14ZM145.97,169.49h-1.97s1.95-2.28,1.95-2.28l.02,2.28ZM125.65,75.86l1.17,1.04c.26.23.38.58.31.93-.02.12-.07.23-.13.32-.08-.13-.16-.26-.27-.37l-.64-.65c-.68-.69-1.77-.72-2.49-.08l-1.39,1.26c.07-.59.37-1.14.86-1.5l1.35-1c.37-.27.88-.25,1.23.05ZM126.01,74.27c.25-.02.5.07.69.25l1.13,1.06c.23.21.33.52.29.83-.01.09-.05.21-.12.33-.11-.23-.27-.44-.48-.62l-1.17-1.04c-.28-.25-.63-.41-.98-.48.16-.19.39-.31.64-.33ZM128.93,74.59c.17.2.24.48.17.74-.01.04-.04.1-.07.15-.11-.25-.26-.49-.47-.68l-1.13-1.06c-.23-.21-.5-.36-.79-.45.25-.15.56-.15.81.02.63.44,1.12.87,1.48,1.27ZM130.84,77.77c0,.07,0,.13.01.2,0,.04.87,3.59-.08,6.08l-5.18,2.56-3.13-4.42c-.68-.89-.57-2.15.25-2.89l1.6-1.45c.29-.26.74-.25,1.02.03l.64.65c.23.24.28.61.1.9l-.53.87c-.1.16-.3.23-.48.15-.09-.04-.16-.12-.2-.22-.03-.1-.03-.2.02-.29l.35-.72-.96-.46-.35.72c-.17.35-.19.75-.06,1.12s.4.66.76.82c.66.3,1.45.06,1.83-.56l.19-.32c.24.08.8.32,1.16.9.38.62.43,1.48.15,2.54l1.03.27c.36-1.36.27-2.5-.28-3.38-.46-.74-1.12-1.1-1.55-1.27.02-.06.04-.13.05-.2.52-.29.86-.77.97-1.35,0-.02,0-.05,0-.07.49-.25.82-.7.95-1.25.48-.2.84-.58.99-1.11.17-.6.02-1.26-.39-1.73-.28-.31-.63-.63-1.03-.96-.06-.14-.08-.32.13-.49.19-.14.31-.13.41-.1.39.13.96.87,1.32,2.18.47,1.72.29,3.23.29,3.24ZM154.62,75.47c-.54,5.46-3.75,38.68-3.9,54.03h-5.56c.28-3.19,1.61-18.64,1.21-25.59,0-.05-.01-.1-.03-.14l-1.28-3.76c-.95-2.78-.95-5.85,0-8.63l1.73-5.1-1.01-.34-1.73,5.1c-1.02,3-1.02,6.31,0,9.32l1.19,3.5-1.42,1.91c-1.42,1.91-3.7,3.05-6.08,3.05-2.86,0-5.44-1.58-6.75-4.12l-8.01-15.61,7.97-3.94,4.94,9.82,2.38,4.98.96-.46-2.29-4.79,3.52-11c.97-3.03,3.39-5.34,6.46-6.16l7.69-2.06ZM147,164.36l-.14-19.56,1.1-1.29c.19-.22.42-.39.67-.51l.67,2.68c.21.85.97,1.45,1.85,1.45.46,0,.88-.17,1.22-.46.36.52.97.86,1.65.86s1.23-.32,1.59-.8c.3.24.67.4,1.08.4h.27c.56,0,1.06-.27,1.37-.69.28.21.63.34,1.01.34.85,0,1.57-.61,1.7-1.46l.38-2.47c.62.13,1.13.53,1.41,1.14.34.75.23,1.56-.3,2.19l-15.57,18.2ZM161.48,149.06l-1.05,20.43h-13.39s-.02-3.51-.02-3.51l14.47-16.92ZM151.92,142.27l.05,1.66.04,1.26c0,.23-.08.45-.24.62-.16.17-.38.26-.61.26-.39,0-.73-.26-.82-.64l-.76-3.02c-.03-.13-.04-.25-.06-.38v-.29s-.03,0-.04,0c-.09-1.43.64-2.81,1.92-3.53l4.79-2.49,6.9,3.25c.01.5-.2,1.76-2.32,2.81-.16.08-.26.22-.29.4l-.46,2.97c-.05.32-.33.56-.65.56-.36,0-.66-.3-.66-.66v-1.95s0-.84,0-.84h-1.06s0,.84,0,.84v1.95s0,.35,0,.35c0,.36-.3.66-.66.66h-.27c-.36,0-.66-.3-.66-.66v-2.3s0-.84,0-.84h-1.06s0,.84,0,.84v2.3s0,.1,0,.1c0,.53-.43.96-.96.96s-.94-.41-.96-.93v-.38s-.01,0-.01,0l-.04-1.24v-.3s-.05-1.37-.05-1.37l-1.06.03ZM164.13,139.45l.86.41,2.84,29.64h-6.33s1.12-21.75,1.12-21.75l.76-.89c.8-.93.97-2.21.46-3.32-.31-.67-.82-1.18-1.45-1.49,1.23-.91,1.64-1.89,1.74-2.59ZM146.85,143.17l-.04-5.08c.13-2.49.35-5.03.65-7.53h3.78c.29,0,.53-.24.53-.53.01-2.93.15-6.57.36-10.57h12.16s-8.5,15.25-8.5,15.25l-4.9,2.54c-1.7.94-2.64,2.79-2.47,4.66-.49.18-.93.48-1.27.89l-.31.36ZM155.36,78.84c1.9.72,3.74.97,5.37.97,2.57,0,4.61-.62,5.59-.98.24,7.13.75,21.71,1.42,34.47l-2.84,5.1h-12.7c.77-13.9,2.41-31.71,3.16-39.57ZM175.95,76.3l-8.73-2.28-.49-14.35c.89-.66,3.75-3.1,2.47-6.18-.71-1.71-1.84-2.16-2.68-2.22.02-.38.04-.76.05-1.17h-1.06c-.05,4.23-1.11,6.09-1.99,6.92-.3.28-.59.45-.85.56,1.18-4.32-2.12-12.03-2.27-12.38l-.97.42s.7,1.64,1.34,3.74c-9.83,1.38-12.57-4.81-12.68-5.08l-.98.41s.37.85,1.25,1.88c.09-.56.17-.94.17-.94,0,0-.08.38-.17.94,1.48,1.74,4.45,4.05,9.73,4.05.92,0,1.92-.07,2.98-.23.73,2.68,1.24,5.83.3,7.65-.08.16-.08.35,0,.5s.24.26.42.27c0,0,.04,0,.09,0,.31,0,1.31-.08,2.31-.99,1.2-1.09,1.94-2.95,2.23-5.51.79.05,1.38.57,1.8,1.58,1.14,2.75-2.29,5.04-2.32,5.06-.16.1-.25.28-.24.46l.51,15.03h0s.04,1.24.1,3.26c-1.02.41-5.76,2.06-10.81.03.17-1.81.28-2.87.29-2.94h0s0-.04,0-.07l-.15-6.41c2.85-.91,5.14-2.75,7.23-4.43l.15-.12-.67-.83-.16.12c-2.92,2.35-5.93,4.78-10.26,4.78-6.85,0-7.69-14.2-7.78-18.55h-.37c-.05.27-.07.56-.05.88-.02-.31,0-.6.05-.87h-.69c.02.92.06,2.01.15,3.21-.7-.58-1.32-1.66-1.65-2.98-.34-1.38-1.08-6.22,3.8-10.67,4.17-3.81,12.3-4.87,18.51-2.43,3.05,1.2,5.54,3.6,7.02,6.74,1.42,3.02,2.54,6.68,2.99,9.78.27,1.87.37,3.81.46,5.69.16,3.31.33,6.73,1.47,9.93.68,1.91,2.06,3.9,3.99,4.32-.94,1.47-2.28,2.66-3.86,3.41ZM180.59,114.8c-.13,1.92-.78,3.76-1.9,5.32l-13.38,18.72-8.39-3.95,11.99-21.51c.5-.06,2-.1,4.74.88l.36-1c-2.47-.88-4.02-1-4.85-.97l2.39-26.18-1.06-.1-1.97,21.65c-.68-14.29-1.16-29.16-1.26-32.54l8.71,2.28c4.29,1.12,7.15,5.15,6.8,9.57l-2.19,27.82ZM182.73,129.5h-9.44s6.27-8.77,6.27-8.77c.45-.64.84-1.31,1.15-2.02,1.02,3.77,1.78,9.03,2.02,10.79ZM182.88,170.78c-2.48-.86-5.3-1.29-8.47-1.29h-5.51s-2.86-29.84-2.86-29.84l6.49-9.09h9.31c.68,2.92,1.04,5.91,1.04,8.91v31.31ZM195.3,189.72c-.38-5.46-1.86-9.91-4.4-13.24-1.06-1.38-2.3-2.56-3.71-3.54.94-.43,2.64-.99,4.49-.6,1.79.38,3.36,1.58,4.64,3.56,1.5,2.32,2.45,4.65,3.28,6.71,1.43,3.53,2.69,6.63,6.15,7.69-1.59,1-5.29,2.51-10.45-.58ZM161.6,237.35h14.27c-.29.3-.54.64-.7,1.03h-11.64s0,0,0,0c-.64,0-1.23-.25-1.67-.71-.09-.1-.17-.21-.25-.32ZM173.22,230.1c2.41,1.44,4.52,1.55,6.04,1.29.12,2.11-.09,3.62-.19,4.18l-1.48.71h-16.37c-.01-.11-.02-.22-.02-.33.05-1.12.88-2.05,1.99-2.21,1.03-.15,2.76-.29,2.78-.29.7-.12,1.34-.32,1.95-.6l1.72,1.91.79-.71-1.53-1.69,1.32-.69,1.8,1.99.79-.71-1.62-1.79,2.03-1.07ZM175.51,228.65c.15-.1.24-.27.24-.45v-3.36h2.17c.72,2.01,1.08,3.88,1.25,5.49-1.23.22-2.94.17-4.92-.87l1.25-.81ZM174.03,217.79c1.58,2.03,2.7,4.06,3.49,5.99h-2.91s-.57-5.99-.57-5.99ZM164.47,202.09c5.76-1.13,10.06.58,13.42,5.17,5.19,7.09,10.43,19.7,10.03,29.26l-2.93,1.98c-.94.64-1.5,1.69-1.5,2.83,0,.27.04.54.1.8h-5.29c-1.3,0-2.35-1.06-2.35-2.35,0-.92.52-1.76,1.33-2.15l2.51-1.21c.14-.07.25-.2.29-.36.09-.4,2.17-9.84-5.58-19.4-4.64-5.73-8.79-12.51-10.01-14.56ZM135.81,237.35h20.43c-.08.12-.17.24-.28.34-.44.44-1.03.69-1.65.69h-16.58s0,0,0,0c-.64,0-1.23-.25-1.67-.71-.09-.1-.17-.21-.25-.32ZM147.43,230.1c4.02,2.41,7.2,1.14,8.32.53.56.87.88,2.81.89,5.44,0,.08-.01.15-.02.22h-21.18c-.01-.11-.02-.22-.02-.33.05-1.12.88-2.05,1.99-2.21,1.03-.15,2.76-.29,2.78-.29.7-.12,1.34-.32,1.95-.6l1.72,1.91.79-.71-1.53-1.69,1.31-.69,1.8,1.99.79-.71-1.62-1.79,2.03-1.07ZM149.72,228.65c.15-.1.24-.27.24-.45v-3.36h5.59s-.21,4.79-.21,4.79c-.74.43-3.39,1.67-6.88-.17l1.25-.81ZM147.31,209.4c2.25-.89,4.63-1.98,7.08-3.33,1.48-.81,2.89-1.51,4.24-2.09l-1.28,19.8h-9.91s-.14-14.38-.14-14.38ZM136.95,211.38c1.47-4.1,6.8-20.19,8.13-40.83h29.33c7.05,0,12.31,2.21,15.65,6.57,7.41,9.7,3.07,26.7,2.55,28.6-.86,3.16.34,8.73,1.62,14.62.71,3.3,1.45,6.72,1.88,9.91.84,6.22.27,9.86-.36,11.82-.31.96-1.2,1.6-2.23,1.6h-6.61c-1.3,0-2.35-1.06-2.35-2.35,0-.78.39-1.51,1.04-1.95l3.15-2.13c.14-.09.22-.25.23-.41.53-9.84-4.87-22.91-10.22-30.21-5.39-7.36-13.28-7.83-24.86-1.49-6.56,3.6-12.6,5.37-16.94,6.24ZM131.01,212.19c3.85-11.03,6.53-27.89,7.74-36.55l4.35-5.09h.91c-1.4,21.72-7.26,38.31-8.28,41.06-2.19.39-3.84.53-4.73.58ZM136.89,180.98c-1.64.93-3.25,1.75-4.82,2.47l5.39-6.31c-.17,1.18-.36,2.46-.57,3.84ZM111.48,207.1c3.25,3.46,6.65,5.14,7.72,5.61.05,2.35.21,16.36-2.62,24.22l-2.58,1.1c-1.26.54-2.08,1.77-2.08,3.14v.16c0,.27.04.54.1.8h-3.05c-1.3,0-2.35-1.06-2.35-2.35v-.36c0-.9.52-1.73,1.34-2.12l4.6-2.2c.13-.06.23-.18.28-.32,2.05-6.47,1.36-14.34.43-19.79-.55-3.22-1.25-6-1.77-7.87ZM106.12,194.8c.95.14,2.64.33,4.96.33.95,0,1.99-.03,3.14-.11,4.9-.34,12.52-1.67,21.31-5.97-1.24,6.87-2.86,14.43-4.81,20.61-.12-3.81-.54-7.78-1.39-11.82l-1.04.22c4.31,20.38-2.46,38.98-4.64,44.19-.37.87-1.22,1.44-2.17,1.44h-6.15c-1.3,0-2.35-1.06-2.35-2.35v-.16c0-.94.56-1.79,1.43-2.17l2.79-1.19c.13-.06.24-.17.29-.3,3.25-8.7,2.78-24.51,2.76-25.17,0-.21-.14-.4-.33-.48-.1-.04-9.68-3.95-13.07-14.73-.25-.79-.5-1.57-.73-2.33ZM104.55,189.41c.96.14,2.69.33,5.06.33,4.41,0,10.99-.67,18.76-3.6l-3.96,4.63.81.69,5.27-6.16c2-.84,4.07-1.83,6.19-2.99-.27,1.72-.58,3.55-.91,5.44-8.92,4.5-16.64,5.86-21.57,6.21-4.47.31-7.49-.13-8.41-.29-.43-1.45-.84-2.87-1.24-4.26ZM79.95,163.68c2.59-.76,2.74-3.24,2.62-4.54l5.8-1.86c.21-.07.36-.26.37-.48,0-.05.3-5.06,4.3-7.98,2.82-2.06,6.77-2.63,11.77-1.71-2.54,1.55-3.79,6.42-3.91,15.32-.02,1.35.66,2.57,1.83,3.26.59.35,1.25.53,1.9.53s1.25-.16,1.82-.48c2.7-1.52,5.71-3.54,7.71-5.84,4.99,8.58,15.73,10.57,24.19,10.65-.1.82-.3,2.44-.61,4.64l-7.9,9.23c-13.57,5.62-23.78,4.19-25.61,3.86-.03-.12-.07-.24-.1-.36-2.65-9.4-4.56-16.21-9.07-16.21-.03,0-.07,0-.1,0-3.41.08-6.32-.42-8.7-1.47,3.62-.2,4.91-3.32,4.92-3.36l-.49-.19-.49-.2c-.06.15-1.57,3.72-6.26,2.41-.45-.33-.88-.69-1.28-1.08-1.36-1.33-2.19-2.81-2.7-4.14Z"/>
    <path class="cls-2" d="M95.89,155.31c.7.15,1.06,1.24.79,2.44-.26,1.19-1.04,2.03-1.74,1.88-.7-.15-1.06-1.24-.79-2.44.26-1.19,1.04-2.03,1.74-1.88Z"/>
    <path class="cls-2" d="M151.56,57.08s-1.05.34-.95.91c.13.76,1.02,1.19,1.03,1.2l-.44.96c-.06-.03-1.41-.66-1.63-1.99-.17-1.01.63-1.65,1.32-1.96v-3.08h1.06v3.45c0,.24-.16.44-.38.51Z"/>
    <ellipse class="cls-2" cx="147.59" cy="54.45" rx=".93" ry="1.33"/>
    <ellipse class="cls-2" cx="155.88" cy="54.45" rx=".93" ry="1.33"/>
    <path class="cls-2" d="M148.28,51.51c-1.93-.96-2.87-2.66-3.32-4.28.35-.31.64-.45.64-.45,0,0-.29.14-.64.45-.57-2.05-.34-3.98-.32-4.12l1.05.13c0,.05-.55,4.77,2.37,6.9.02.26.05.5.1.71-.05-.21-.08-.45-.1-.71.21.15.44.29.69.42l-.47.95Z"/>
    <path class="cls-2" d="M155.14,60.89l.92.52s-1.22,2.1-3.78,2.1c-.85,0-1.85-.23-3-.83l.49-.94c3.71,1.94,5.31-.74,5.37-.85Z"/>
    <path class="cls-2" d="M164.83,111.7l-.85.63c-2.61-3.54-4.87-7.37-6.7-11.37l.97-.44c1.8,3.94,4.02,7.7,6.59,11.18Z"/>
  </g>
  <circle class="cls-2" cx="109.43" cy="116.43" r="2.17"/>
  <path class="cls-2" d="M109.43,116.98c-.22,0-.43-.13-.51-.35-.1-.28.04-.59.32-.7.18-.07,18.18-7.19,18.39-37.9,0-.3.26-.53.55-.54.3,0,.54.25.54.55-.11,16.43-5.27,26.11-9.58,31.35-4.7,5.71-9.33,7.48-9.52,7.55-.06.02-.13.03-.19.03Z"/>
  <path class="cls-2" d="M128.13,73.42s-.01,0-.02,0c-.3-.01-.53-.26-.52-.56.01-.28.28-6.95,1.56-11.09.09-.29.39-.45.68-.36.29.09.45.39.36.68-1.24,4-1.51,10.75-1.51,10.81-.01.29-.25.52-.54.52Z"/>
  <circle class="cls-3" cx="129.75" cy="61.98" r="1.35"/>
  <circle class="cls-3" cx="135.17" cy="65.78" r="1.35"/>
  <path class="cls-2" d="M128.94,73.63c-.1,0-.21-.03-.3-.09-.25-.17-.32-.5-.15-.75.09-.13,2.24-3.34,6.03-7.13.21-.21.55-.21.77,0,.21.21.21.55,0,.77-3.71,3.71-5.87,6.93-5.89,6.96-.1.16-.28.24-.45.24Z"/>
  <g>
    <path class="cls-2" d="M145.5,52.22h3c1.1,0,2,.9,2,2h0c0,1.66-1.34,3-3,3h-1c-1.66,0-3-1.34-3-3h0c0-1.1.9-2,2-2Z"/>
    <path class="cls-2" d="M155.5,52.22h3c1.1,0,2,.9,2,2h0c0,1.66-1.34,3-3,3h-1c-1.66,0-3-1.34-3-3h0c0-1.1.9-2,2-2Z"/>
    <path class="cls-2" d="M153.5,54.86c-.07,0-.15-.02-.22-.05-1.62-.72-2.4-.11-2.43-.08-.23.19-.57.16-.76-.06-.19-.22-.17-.56.05-.75.05-.05,1.29-1.12,3.59-.09.27.12.4.44.27.72-.09.2-.29.32-.49.32Z"/>
    <path class="cls-2" d="M160.5,54.86c-.25,0-.47-.17-.53-.42-.07-.29.11-.58.4-.65l1.71-.4c.29-.07.58.11.65.4.07.29-.11.58-.4.65l-1.71.4s-.08.01-.12.01Z"/>
  </g>
</svg>