<?xml version="1.0" encoding="UTF-8"?>
<svg id="Layer_2" data-name="Layer 2" xmlns="http://www.w3.org/2000/svg" viewBox="0 0 84.57 59.09">
  <defs>
    <style>
      .cls-1, .cls-2, .cls-3, .cls-4, .cls-5, .cls-6 {
        stroke-width: 0px;
      }

      .cls-2 {
        fill: #4080d4;
      }

      .cls-3 {
        fill: #d6d9f7;
      }

      .cls-4 {
        fill: #ffdba2;
      }

      .cls-5 {
        fill: #fff;
      }

      .cls-6 {
        fill: #ffb2b1;
      }
    </style>
  </defs>
  <g id="_圖層_4" data-name="圖層 4">
    <g>
      <g>
        <path class="cls-3" d="M8.79,45.65h.95c.91,0,1.65-.74,1.65-1.65,0-1.17-1.18-1.96-2.26-1.53l-2.49.99c1.01.37,1.8,1.17,2.15,2.19Z"/>
        <path class="cls-3" d="M21.6,45.87l-1.58,1.58c.56.38,1.01.92,1.29,1.55l1.71-1.71c.39-.39.39-1.03,0-1.42-.39-.39-1.03-.39-1.42,0Z"/>
        <path class="cls-3" d="M40.82,30.23l-30.34,16.59-6.55,3.58.7,1.31.03-.02,8.93-4.87,27.66-15.1c-.29-.45-.44-.97-.43-1.49Z"/>
      </g>
      <path class="cls-2" d="M54.91,56.32c-.4.29-.64.75-.64,1.24,0,.84.68,1.53,1.53,1.53h8.9c.84,0,1.53-.68,1.53-1.53v-3.09h-8.74l-2.58,1.85Z"/>
      <path class="cls-1" d="M70.45,5.7c-.03-.37-.12-1.05-.37-1.82-.53-1.6-1.82-3.57-4.89-3.83-.23-.02-.45-.04-.7-.04-1.86,0-3.55.25-4.98.58-1.58.37-1.8,2.4-.58,3.2.14.09.28.17.46.22,1.75.56,3.73,1.43,5.11,1.03,1.66-.47,2.22.12,2.28.94.07.91-.47,2.09-.84,2.44l3.21,1.33,1.34.55v-4.32s0-.11-.01-.29Z"/>
      <path class="cls-2" d="M84.12,50.18l-2.19-2.19-6.18,6.18h0l-.51,3.13c-.08.49.08.98.43,1.33.6.6,1.56.6,2.16,0l6.29-6.29c.6-.6.6-1.56,0-2.16Z"/>
      <path class="cls-4" d="M76.18,42.24v-11.29h-18.69v23.51h8.74v-18.09h1.21v6.35c0,2.01.8,3.93,2.22,5.35l6.1,6.1,6.18-6.18-5.75-5.75Z"/>
      <path class="cls-2" d="M76.18,13.47h-18.69c-.65.04-1.3.29-1.8.79l-12.87,12.87,3.83,3.83,10.84-10.84v10.84h18.69v3.42h5.41v-15.49c0-2.99-2.42-5.41-5.41-5.41Z"/>
      <g>
        <path class="cls-5" d="M10.47,46.82l-1.68-1.16c-.35-1.02-1.14-1.82-2.15-2.19-.38-.14-.79-.23-1.22-.23h-.45c-.97,0-1.9.4-2.58,1.1l-1.68,1.74c-.46.48-.71,1.11-.71,1.77,0,1.41,1.14,2.55,2.55,2.55h1.38l6.55-3.58Z"/>
        <path class="cls-5" d="M20.02,47.46c-.59-.4-1.31-.64-2.08-.64h-4.36l-8.93,4.87v4.52h-.36c-.8,0-1.44.65-1.44,1.44s.65,1.44,1.44,1.44h2.34c.8,0,1.44-.65,1.44-1.44v-3.75h10.13v2.31h-.36c-.8,0-1.44.65-1.44,1.44s.65,1.44,1.44,1.44h2.34c.8,0,1.44-.65,1.44-1.44v-7.13c0-.54-.12-1.04-.33-1.5-.28-.63-.73-1.17-1.29-1.55Z"/>
        <path class="cls-6" d="M70.25,4.45c-.05-.18-.1-.37-.17-.57.07.18.11.38.17.57Z"/>
        <path class="cls-6" d="M70.38,5.12c-.03-.23-.08-.45-.14-.67.06.25.1.47.14.67Z"/>
        <path class="cls-6" d="M70.38,5.12c.03.19.06.38.07.57-.01-.14-.04-.35-.07-.57Z"/>
        <path class="cls-6" d="M65.92,8.42c.37-.35.91-1.53.84-2.44-.06-.82-.62-1.42-2.28-.94-1.38.39-3.35-.48-5.11-1.03-.17-.05-.32-.13-.46-.22-.27.68-.42,1.42-.42,2.2,0,2.96,2.16,5.42,4.99,5.89v1.59h6.98v-3.16l-1.34-.55-3.21-1.33Z"/>
        <path class="cls-6" d="M76.18,34.37v1.71c0,1.49,1.21,2.71,2.71,2.71s2.71-1.21,2.71-2.71v-1.71h-5.41Z"/>
        <path class="cls-6" d="M41.61,28.34c-.52.52-.78,1.21-.79,1.89,0,.52.14,1.04.43,1.49.1.16.22.31.36.44,1.06,1.06,2.77,1.06,3.83,0l1.21-1.21-3.83-3.83-1.21,1.21Z"/>
      </g>
    </g>
  </g>
</svg>