<svg id="e0Osf1IRFHi1" xmlns="http://www.w3.org/2000/svg" xmlns:xlink="http://www.w3.org/1999/xlink" viewBox="0 0 250 301.17" shape-rendering="geometricPrecision" text-rendering="geometricPrecision">
<style><![CDATA[
#e0Osf1IRFHi52_to {animation: e0Osf1IRFHi52_to__to 1500ms linear infinite normal forwards}@keyframes e0Osf1IRFHi52_to__to { 0% {transform: translate(0px,0px);animation-timing-function: cubic-bezier(0.42,0,0.58,1)} 53.333333% {transform: translate(0px,-7px);animation-timing-function: cubic-bezier(0.42,0,0.58,1)} 100% {transform: translate(0px,0px)}} #e0Osf1IRFHi56_tr {animation: e0Osf1IRFHi56_tr__tr 1500ms linear infinite normal forwards}@keyframes e0Osf1IRFHi56_tr__tr { 0% {transform: translate(226.129997px,9.12px) rotate(0deg);animation-timing-function: cubic-bezier(0.42,0,0.58,1)} 100% {transform: translate(226.129997px,9.12px) rotate(360deg)}} #e0Osf1IRFHi57_tr {animation: e0Osf1IRFHi57_tr__tr 1500ms linear infinite normal forwards}@keyframes e0Osf1IRFHi57_tr__tr { 0% {transform: translate(236.705002px,29.395px) rotate(0deg);animation-timing-function: cubic-bezier(0.25,1,0.25,1)} 100% {transform: translate(236.705002px,29.395px) rotate(360deg)}}
]]></style>
<g><g><g><path d="M20.67,121.16l-6.72,17.12h94.09l-6.72-17.12h-80.65Zm14.09,11.86h-11.17v-1.46h11.17v1.46Zm1.99-5.93h-11.18v-1.46h11.18v1.46Zm48.51-1.46h11.17v1.46h-11.17v-1.46Zm13.16,7.39h-11.17v-1.46h11.17v1.46Z" fill="#fff" stroke-width="0"/><polygon points="36.18,71.69 37.15,68.43 35.2,68.43 36.18,71.69" fill="#7ba0e9" stroke-width="0"/><path d="M59.01,63.2h-.09c-.71,0-1.27.43-1.68,1.3s-.62,2.05-.62,3.54.2,2.72.61,3.59.97,1.3,1.68,1.3s1.28-.43,1.69-1.3.62-2.04.62-3.53-.2-2.68-.6-3.57-.93-1.33-1.6-1.33h-.01Z" fill="#7ba0e9" stroke-width="0"/><polygon points="28.99,71.69 29.97,68.43 28.01,68.43 28.99,71.69" fill="#7ba0e9" stroke-width="0"/><rect width="32.78" height="9.25" rx="0" ry="0" transform="translate(75.61 103.42)" fill="#d6d9f7" stroke-width="0"/><polygon points="48.09,18.3 46.04,23.42 50.3,23.42 48.09,18.3" fill="#d6d9f7" stroke-width="0"/><polygon points="31.88,67.03 33.25,67.03 32.57,64.75 31.88,67.03" fill="#7ba0e9" stroke-width="0"/><path d="M108.39,43.73h-94.77v50.71h94.77v-50.71Z" fill="#7ba0e9" stroke-width="0"/><path d="M1.46,299.71h119.09v-297.33h-119.09v297.33ZM109.72,139.42c-.14.2-.36.32-.6.32h-96.23c-.24,0-.47-.12-.6-.32-.14-.2-.16-.45-.08-.68l7.29-18.58c.11-.28.38-.46.68-.46h81.66c.3,0,.57.18.68.46l7.29,18.58c.09.22.06.48-.08.68h-.01Zm.13-26.02c0,.4-.33.73-.73.73h-34.24c-.4,0-.73-.33-.73-.73v-10.71c0-.4.33-.73.73-.73h34.24c.4,0,.73.33.73.73v10.71ZM67.71,15.28h1.86l4.55,5.8l4.52-5.8h1.83v14.11h-1.97v-10.98l-4.21,5.45h-.36l-4.26-5.45v10.98h-1.96v-14.11Zm-13.85-.02h11.43v1.8h-4.77v12.33h-1.97v-12.33h-4.69v-1.8Zm-6.44-.06h1.38l6.14,14.19h-2.01l-1.82-4.18h-5.84l-1.71,4.18h-2.01L47.43,15.2h-.01ZM12.16,43c0-.4.33-.73.73-.73h96.23c.4,0,.73.33.73.73v52.16c0,.4-.33.73-.73.73h-96.23c-.4,0-.73-.33-.73-.73v-52.16Z" fill="#d6d9f7" stroke-width="0"/><path d="M121.28,0.92h-120.55c-.4,0-.73.33-.73.73v298.79c0,.4.33.73.73.73h120.55c.4,0,.73-.33.73-.73v-298.79c0-.4-.33-.73-.73-.73Zm-.73,298.79h-119.09v-297.33h119.09v297.33Z" fill="#1a1a31" stroke-width="0"/><path d="M12.89,95.9h96.23c.4,0,.73-.33.73-.73v-52.16c0-.4-.33-.73-.73-.73h-96.23c-.4,0-.73.33-.73.73v52.16c0,.4.33.73.73.73Zm.73-52.17h94.77v50.71h-94.77v-50.71Z" fill="#1a1a31" stroke-width="0"/><path d="M45.27,25.21h5.84l1.82,4.18h2.01L48.8,15.2h-1.38L41.54,29.39h2.01l1.71-4.18h.01Zm2.82-6.91l2.21,5.11h-4.26l2.05-5.11Z" fill="#1a1a31" stroke-width="0"/><polygon points="58.55,29.39 60.52,29.39 60.52,17.06 65.3,17.06 65.3,15.26 53.86,15.26 53.86,17.06 58.55,17.06 58.55,29.39" fill="#1a1a31" stroke-width="0"/><polygon points="69.67,18.42 73.93,23.87 74.29,23.87 78.5,18.42 78.5,29.39 80.47,29.39 80.47,15.28 78.63,15.28 74.11,21.08 69.57,15.28 67.71,15.28 67.71,29.39 69.67,29.39 69.67,18.42" fill="#1a1a31" stroke-width="0"/><path d="M102.51,120.16c-.11-.28-.38-.46-.68-.46h-81.65c-.3,0-.57.18-.68.46l-7.29,18.58c-.09.22-.06.48.08.68s.36.32.6.32h96.23c.24,0,.47-.12.6-.32.14-.2.16-.45.08-.68l-7.29-18.58ZM13.96,138.28l6.72-17.12h80.66l6.72,17.12h-94.1Z" fill="#1a1a31" stroke-width="0"/><rect width="11.18" height="1.46" rx="0" ry="0" transform="translate(25.57 125.63)" fill="#1a1a31" stroke-width="0"/><rect width="11.17" height="1.46" rx="0" ry="0" transform="translate(23.59 131.56)" fill="#1a1a31" stroke-width="0"/><rect width="11.17" height="1.46" rx="0" ry="0" transform="translate(85.26 125.63)" fill="#1a1a31" stroke-width="0"/><rect width="11.17" height="1.46" rx="0" ry="0" transform="translate(87.25 131.56)" fill="#1a1a31" stroke-width="0"/><path d="M109.12,101.97h-34.24c-.4,0-.73.33-.73.73v10.71c0,.4.33.73.73.73h34.24c.4,0,.73-.33.73-.73v-10.71c0-.4-.33-.73-.73-.73Zm-.73,10.7h-32.78v-9.25h32.78v9.25Z" fill="#1a1a31" stroke-width="0"/></g><g><path d="M105.39,94.09c0,0,.01,0,.02-.01v0c0,0,.66-.55.66-.55.25-.2.33-.54.21-.84-.08-.19-.23-.34-.43-.41s-.41-.05-.59.04l-2.41,1.3c-.42.22-.73.61-.85,1.07l-.18.64c-.21.75.11,1.55.78,1.95.17.1.32.19.45.27.09-.5.31-.99.64-1.41l1.6-1.98c0,0,.05-.06.09-.09l.01.02Z" fill="#fff" stroke-width="0"/><path d="M123.05,92.32c-1.17-1.27-5.03-5.41-7.24-7.45-1.91-1.76-4.72-2.77-6.22-3.21-.43-.13-.87.09-1.03.5-.15.38.01.82.37,1.03l4.39,2.48c.08.04.15.1.2.17l5.58,6.76c.61.74.82,1.69.58,2.62s-.89,1.66-1.78,2.01l-6.76,2.66c-.35.14-.72.21-1.08.21-.86,0-1.7-.38-2.28-1.08l-.14-.17-.06.12-1.33-.6l1.1-2.44c.1-.22.06-.49-.09-.68-.11-.13-.27-.21-.44-.23-.17-.01-.31.03-.43.13l-1.56,1.92c-.48.59-.5,1.42-.05,2.03.28.38.6.72.95,1.01.85.69,2.62,1.86,4.93,1.86h6.95l5.42-9.64.02-.01Z" fill="#fff" stroke-width="0"/><path d="M102.16,92.34l1.41-.77c.41-.22.59-.72.42-1.15s-.63-.67-1.08-.56l-1.92.47c-.98.24-1.65,1.14-1.59,2.14.04.8.53,1.47,1.23,1.78.24-.81.8-1.5,1.54-1.9v0l-.01-.01Z" fill="#fff" stroke-width="0"/><path d="M144.03,298.73c.61.63,1.42.98,2.3.98h21.3c.86,0,1.66-.34,2.27-.94.14-.14.27-.3.38-.47h-26.59c.1.15.21.3.34.43Z" fill="#7ba0e9" stroke-width="0"/><path d="M100.59,88.36c.15-.32.07-.69-.18-.93-.33-.31-.84-.3-1.15.03l-.48.5c-.58.61-.6,1.56-.08,2.2.4-.5.94-.89,1.57-1.12l.31-.67.01-.01Z" fill="#fff" stroke-width="0"/><path d="M200.92,75.09l1.85-7.39-6.18-1.77c-.29-.08-.5-.34-.53-.65L194.6,44.21c-.02-.26.11-.51.33-.66.05-.03,4.75-3.19,3.19-6.95-.66-1.58-1.63-2.28-2.93-2.15-4.52.42-7.02-1.6-8.39-3.69-.34.11-.7.16-1.06.13l.2.89c-1.09.24-2.12.36-3.09.36-1.99,0-3.71-.51-5.13-1.52-.53-.38-.98-.8-1.36-1.24-.49.38-1.08.64-1.7.73l.13.58c-1.09.24-2.12.36-3.09.36-1.99,0-3.71-.51-5.13-1.52-.48-.34-.89-.72-1.26-1.12-.37.58-.62,1.23-.74,1.91h.47c.13,5.96,1.27,25.45,10.68,25.45c5.95,0,10.09-3.33,14.09-6.56l.21-.17.91,1.14-.21.17c-2.86,2.31-6,4.83-9.92,6.08l.21,8.8c0,.32-.2.61-.5.71l-6.53,2.16l1.98,7.71l24.96-.7v-.02ZM169.79,39.16c-.7,0-1.28-.82-1.28-1.82s.57-1.82,1.28-1.82s1.28.82,1.28,1.82-.57,1.82-1.28,1.82Zm11.39-3.64c.7,0,1.28.82,1.28,1.82s-.57,1.82-1.28,1.82-1.28-.82-1.28-1.82.57-1.82,1.28-1.82Zm-8.67,6.92c-.23-1.39.86-2.27,1.81-2.69v-4.23h1.46v4.74c0,.32-.21.61-.52.7-.01,0-1.44.46-1.31,1.25.18,1.05,1.4,1.64,1.41,1.64l-.61,1.32c-.08-.04-1.93-.91-2.24-2.73Zm3.6,7.42c-.88,0-1.48-.12-1.49-.13l.31-1.43c.2.04,4.88.97,6.87-3.38l1.33.61c-1.71,3.73-5.06,4.32-7.01,4.32l-.01.01Z" fill="#fff" stroke-width="0"/><path d="M162.89,23.21l1.45-.17c0,0,.45,3.43,3.08,5.29c1.76,1.25,4.13,1.56,7.05.92l.19.84c.62-.09,1.21-.34,1.7-.73-1.94-2.2-2.29-4.92-2.3-5.05l1.45-.17c0,0,.45,3.43,3.08,5.29c1.76,1.25,4.14,1.56,7.05.92l.12.53c.36.03.72-.01,1.06-.13-1.32-2.02-1.59-4.1-1.6-4.14l1.45-.17c.04.3.98,7.25,8.4,6.55c1.13-.11,3.21.14,4.42,3.04c1.76,4.21-2.14,7.55-3.38,8.47l1.39,20.16l17.9,5.14c2.59.74,4.93,2.07,6.88,3.82c2.14,0,5.61-1.65,6.86-5.44.93-2.82.08-6.23-2.19-8.69-.95-1.03-2.15-1.78-3.42-2.58-1.58-.99-3.22-2.02-4.37-3.63-1.28-1.8-1.43-3.81-1.58-5.76-.07-.89-.14-1.81-.32-2.67-.54-2.56-1.74-4.58-3.55-6.01-1.12-.88-2.38-1.53-3.6-2.16-2.44-1.26-4.97-2.57-6.27-5.73-.59-1.43-.9-2.94-1.19-4.4-.41-2.03-.8-3.95-1.89-5.64-1.61-2.5-3.33-3.75-6.55-4.78-.18-.06-.34-.19-.42-.36-2.3-4.41-6.41-5.93-9.45-6.42-6.27-1.02-13.63,1.34-18.3,5.86-3.47,3.36-5.16,6.78-5.04,10.18.1,2.93,1.57,5.23,2.65,6.54-.02-.57-.04-1.12-.05-1.62l.99-.02c.11-.68.37-1.33.74-1.91-2.03-2.22-2.4-5.04-2.41-5.18l-.03.01Zm38.27,23.12c2.21,3.95,6.56,6.53,11.09,6.57v1.46c-5.05-.04-9.9-2.92-12.36-7.31l1.27-.71v-.01Z" fill="#4080d4" stroke-width="0"/><path d="M158.18,288.34l-2.78,1.46l2.22,2.46-1.08.98-2.47-2.74-1.8.95l2.1,2.32-1.08.98-2.36-2.62c-.83.38-1.71.66-2.61.81-.01,0-.96.2-2.42.41-1.52.22-2.67,1.49-2.74,3.03c0,.15.01.3.03.45h27.62c0-.1.03-.2.03-.31-.01-3.61-.45-6.27-1.22-7.47-1.53.84-5.9,2.58-11.42-.72l-.02.01Z" fill="#7ba0e9" stroke-width="0"/><path d="M101.42,86.37c.6.57.83,1.41.63,2.19l.5-.12c1.15-.28,2.35.34,2.78,1.44.12.3.17.6.16.9.28-.01.57.02.84.12.58.21,1.05.65,1.29,1.22.22.54.21,1.12.01,1.63.28.13.54.31.75.56.15.18.27.39.35.61l7.85-3.09-4.1-4.97-4.27-2.42c-.98-.55-1.42-1.77-1.01-2.82.1-.25.24-.47.41-.67l-2.02-2.44c-.41-.5-1.1-.68-1.7-.44l-6.76,2.66c-.45.18-.78.55-.9,1.02s-.01.95.29,1.33l2.38,2.87c.82-.38,1.83-.25,2.52.41v.01Z" fill="#fff" stroke-width="0"/><path d="M108.69,96.53l-.38.84.6.73c.41.5,1.1.68,1.7.44l6.76-2.66c.45-.18.78-.55.9-1.02s.01-.95-.3-1.33l-.42-.51-8.87,3.48c0,0,0,.01,0,.02l.01.01Z" fill="#fff" stroke-width="0"/><path d="M171.78,237.15c-2.34.45-4.55.87-6.57.56-.33-.05-.65-.11-.95-.17l-3.34,48.25c-.01.19-.1.37-.24.5l-1.24,1.1c4.96,2.69,8.75.82,9.67.28l12.1-50.75c-.78-.23-1.54-.39-2.29-.46-2.41-.21-4.82.25-7.14.69Z" fill="#fff" stroke-width="0"/><polygon points="242.66,165.08 241.81,165.39 241.95,166.46 242.78,166.14 242.66,165.08" fill="#fff" stroke-width="0"/><path d="M243.05,155.4l-7.42,1.74c-.33.61-1.23,3.01,1.77,8.01.03.05.05.09.07.14l2.2,6.63c.13.3.51.49.88.4.38-.1.63-.46.58-.86l-1.09-8.42l1.45-.19.13,1.04l1.2-.43.6-.87l1.2.83-.58.84.24,2.26c.04.33-.16.64-.46.76l-1.68.64.27,2.08l1.72-.14c1.24-.1,2.31-.93,2.72-2.1l1.52-4.38c.37-1.06.14-2.25-.6-3.1l-4.71-4.9-.01.02Z" fill="#fff" stroke-width="0"/><path d="M198.98,298.73c.61.63,1.42.98,2.3.98h21.3c.86,0,1.66-.34,2.27-.94.14-.14.27-.3.38-.47h-26.59c.1.15.21.3.34.43Z" fill="#7ba0e9" stroke-width="0"/><path d="M213.13,288.34l-2.78,1.46l2.22,2.46-1.08.98-2.47-2.74-1.8.95l2.1,2.32-1.08.98-2.36-2.62c-.83.38-1.71.66-2.61.81-.01,0-.96.2-2.42.41-1.52.22-2.67,1.49-2.74,3.03c0,.15.01.3.03.45h27.62c0-.1.03-.2.03-.31-.01-3.61-.45-6.27-1.22-7.47-1.53.84-5.9,2.58-11.42-.72l-.02.01Z" fill="#7ba0e9" stroke-width="0"/><path d="M226.14,82.68c-1.41-5.51-5.69-9.91-11.16-11.48l-10.81-3.1-1.97,7.88c-.08.32-.36.54-.69.55l-26.1.73c0,0-.01,0-.02,0-.33,0-.62-.22-.71-.55l-2.1-8.18-8.69,2.88c-4.48,1.48-8.07,4.84-9.85,9.21L143.3,105.51c.46.81,1.57,3.05,2.53,7.49l-1.42.31c-1.02-4.7-2.19-6.79-2.46-7.23l-17.78-12.8-7.56,13.43l23.08,21.1c2.26,1.86,5.24,2.62,8.16,2.07c2.91-.55,5.42-2.35,6.87-4.93l7.17-12.79-1.83-5.87c-1.05-3.64-1.1-7.48-.16-11.13l2.21-8.61l1.41.36-2.21,8.61c-.87,3.4-.82,6.98.15,10.35l8.93,28.59h42.17l1.76-23.36-8.54-23.32l1.37-.5l25.32,69.1l11.87-2.78-18.19-70.92h-.01Z" fill="#90b9f2" stroke-width="0"/><path d="M219.31,238.1c-2.56.44-5.18-.09-7.72-.61-2.11-.43-4.11-.83-6.01-.7-.69.05-1.39.17-2.08.33l12.35,48.44c.07.26-.02.54-.22.73l-1.24,1.1c4.77,2.59,8.46.96,9.55.35l-3.71-49.83c-.3.08-.61.15-.92.2v-.01Z" fill="#fff" stroke-width="0"/><path d="M170.46,135.93l-16.83,95.06c2.58.77,3.74,1.67,4.86,2.53c1.37,1.06,2.66,2.06,6.96,2.74c1.76.28,3.85-.12,6.06-.55c2.42-.46,4.92-.95,7.54-.71c2,.18,3.96.94,6.04,1.74c2.31.9,4.71,1.82,7.14,1.86c2.13.04,4.31-.74,6.62-1.56c2.14-.76,4.35-1.54,6.63-1.7c2.1-.15,4.29.3,6.4.73c2.4.49,4.89.99,7.18.6c2.24-.38,4.31-1.63,6.5-2.96c1.67-1.01,3.38-2.04,5.21-2.69l-9.37-71.36c-1.15-8.49-4.04-16.47-8.59-23.73h-42.37.02Z" fill="#4080d4" stroke-width="0"/><path d="M175.35,43.84c0,0-1.23-.6-1.41-1.64-.13-.79,1.3-1.24,1.31-1.25.31-.09.52-.38.52-.7v-4.74h-1.46v4.23c-.95.42-2.04,1.31-1.81,2.69.3,1.82,2.16,2.69,2.24,2.73l.61-1.32Z" fill="#1a1a31" stroke-width="0"/><path d="M169.79,35.52c-.7,0-1.28.82-1.28,1.82s.57,1.82,1.28,1.82s1.28-.82,1.28-1.82-.57-1.82-1.28-1.82Z" fill="#1a1a31" stroke-width="0"/><path d="M181.18,39.16c.7,0,1.28-.82,1.28-1.82s-.57-1.82-1.28-1.82-1.28.82-1.28,1.82.57,1.82,1.28,1.82Z" fill="#1a1a31" stroke-width="0"/><path d="M167.41,28.33c-2.63-1.86-3.07-5.26-3.08-5.29l-1.45.17c.02.14.38,2.95,2.41,5.18.15-.24.33-.47.52-.68-.19.21-.37.44-.52.68.36.4.78.78,1.26,1.12c1.42,1.01,3.14,1.52,5.13,1.52.97,0,2-.12,3.09-.36l-.13-.58c-.29.04-.58.06-.88.03.29.03.59.02.88-.03l-.19-.84c-2.92.64-5.29.33-7.05-.92h.01Z" fill="#1a1a31" stroke-width="0"/><path d="M178.57,29.43c-2.63-1.86-3.07-5.26-3.08-5.29l-1.45.17c.02.14.37,2.85,2.3,5.05.11-.09.22-.18.32-.29-.1.1-.21.2-.32.29.39.44.84.87,1.36,1.24c1.42,1.01,3.14,1.52,5.13,1.52.97,0,2-.12,3.09-.36l-.2-.89c-.15-.01-.29-.03-.44-.07.14.04.29.06.44.07l-.12-.53c-2.92.64-5.29.33-7.05-.92l.02.01Z" fill="#1a1a31" stroke-width="0"/><path d="M244.7,155.02l.68-.16c.19-.04.36-.16.46-.33s.13-.37.08-.56L227.54,82.33c-.71-2.79-2.11-5.3-3.98-7.38c2.54-.52,5.67-2.47,6.94-6.3c1.1-3.32.12-7.29-2.5-10.13-1.08-1.17-2.42-2.02-3.72-2.83-1.53-.96-2.97-1.86-3.95-3.24-1.04-1.48-1.18-3.2-1.32-5.03-.07-.94-.15-1.9-.35-2.86-.61-2.9-1.98-5.2-4.08-6.86-1.23-.97-2.55-1.65-3.83-2.31-2.41-1.25-4.5-2.32-5.59-4.99-.54-1.31-.82-2.68-1.11-4.14-.42-2.08-.86-4.22-2.1-6.14-1.75-2.71-3.68-4.16-7.04-5.28-2.04-3.71-5.71-6.16-10.37-6.92-6.71-1.09-14.56,1.43-19.54,6.25-3.78,3.66-5.63,7.46-5.49,11.29.18,4.94,3.61,8.18,4.23,8.72.59,9.03,2.96,23.03,11.97,23.03c1.28,0,2.49-.15,3.63-.41l.18,7.9-16.09,5.33c-4.88,1.62-8.8,5.28-10.74,10.03l-10.52,24.39-17.75-12.78c-.5-.54-5.07-5.51-7.63-7.87-2.02-1.86-4.81-2.95-6.79-3.54-.37-.11-.75-.11-1.11-.04l-2.18-2.63c-.82-.99-2.16-1.34-3.36-.87l-6.76,2.66c-.89.35-1.54,1.08-1.78,2.01s-.03,1.88.58,2.62l2.38,2.88-.05.05c-1.18,1.24-1.14,3.21.09,4.4l.21.21c-.07.32-.12.64-.1.98.08,1.47,1.03,2.7,2.39,3.15-.03,1.14.53,2.24,1.54,2.84.87.53,1.25.74,1.43.84.09.2.19.4.33.58.35.48.76.91,1.2,1.27c1,.82,3.09,2.19,5.85,2.19h6.13l-1.74,3.09c-.17.3-.11.67.14.9l23.53,21.51c2.07,1.7,4.63,2.6,7.26,2.6.71,0,1.42-.07,2.13-.2c3.34-.63,6.21-2.69,7.87-5.65l6.5-11.58l6.61,21.16-17.02,96.14c-.07.37.16.73.53.83c2.76.73,3.84,1.57,4.99,2.46c1.17.9,2.37,1.83,5.23,2.55l-3.33,48.17-1.7,1.51-7.04,3.7c-.85.44-1.75.75-2.72.92c0,0-.95.2-2.36.4-2.22.32-3.9,2.17-3.99,4.41-.05,1.28.41,2.49,1.29,3.41s2.07,1.43,3.35,1.43h21.3c1.25,0,2.42-.49,3.3-1.37.87-.88,1.35-2.04,1.35-3.27-.01-4.34-.59-7.23-1.72-8.61l12.05-50.55c.64.23,1.29.48,1.95.74c2.43.94,4.95,1.92,7.65,1.96.05,0,.09,0,.14,0c2.34,0,4.7-.84,6.99-1.65.91-.32,1.83-.65,2.76-.92l12.24,48-1.59,1.41-7.04,3.7c-.85.44-1.75.75-2.72.92c0,0-.95.2-2.36.4-2.22.32-3.9,2.17-3.99,4.41-.05,1.28.41,2.49,1.29,3.41s2.07,1.43,3.35,1.43h21.3c1.25,0,2.42-.49,3.3-1.37.87-.88,1.35-2.04,1.35-3.27-.01-4.45-.62-7.38-1.81-8.72l-3.76-50.38c1.62-.64,3.16-1.56,4.66-2.46c1.77-1.07,3.59-2.17,5.47-2.73.34-.1.56-.44.51-.79l-9.44-71.96c-1.19-8.75-4.18-16.98-8.88-24.45l1.55-20.6l15.78,43.08c.11.29.38.48.68.48.05,0,.11,0,.17-.02l1.8-.42c-.36,1.5-.29,4.17,2.15,8.3l2.19,6.6c.35.84,1.18,1.37,2.07,1.37.18,0,.35-.02.53-.07c1.05-.26,1.73-1.22,1.68-2.27l1.66-.13c1.82-.15,3.38-1.35,3.98-3.08l1.52-4.38c.54-1.56.2-3.3-.91-4.57l-4.14-4.3.02-.01ZM180.5,65.91c.3-.1.51-.39.5-.71l-.21-8.8c3.92-1.25,7.06-3.77,9.92-6.08l.21-.17-.91-1.14-.21.17c-4,3.22-8.14,6.56-14.09,6.56-9.41,0-10.55-19.49-10.68-25.46h-.47c-.06.37-.09.74-.06,1.11-.02-.37,0-.74.06-1.1l-.99.02c.01.5.03,1.04.05,1.62-1.08-1.31-2.55-3.61-2.65-6.54-.12-3.39,1.58-6.82,5.04-10.18c4.67-4.52,12.02-6.88,18.3-5.86c3.04.49,7.16,2.01,9.45,6.42.09.17.24.3.42.36c3.22,1.03,4.93,2.28,6.55,4.78c1.09,1.69,1.48,3.61,1.89,5.64.3,1.46.6,2.97,1.19,4.4c1.29,3.16,3.82,4.46,6.27,5.73c1.22.63,2.48,1.28,3.6,2.16c1.82,1.43,3.01,3.46,3.55,6.01.18.86.25,1.78.32,2.67.15,1.94.3,3.95,1.58,5.76c1.14,1.62,2.78,2.64,4.37,3.63c1.27.8,2.48,1.55,3.42,2.58c2.26,2.46,3.12,5.87,2.19,8.69-1.26,3.79-4.72,5.45-6.86,5.44-1.95-1.75-4.29-3.08-6.88-3.82l-17.9-5.14-1.39-20.16c1.24-.93,5.14-4.26,3.38-8.47-1.21-2.9-3.28-3.15-4.42-3.04-7.43.69-8.36-6.26-8.4-6.55l-1.45.17c0,0,.28,2.13,1.6,4.14.24-.08.48-.19.69-.34-.21.15-.44.26-.69.34c1.37,2.09,3.87,4.11,8.39,3.69c1.31-.13,2.28.58,2.93,2.15c1.57,3.76-3.14,6.91-3.19,6.95-.22.14-.35.4-.33.66l1.46,21.07c.02.31.23.57.53.65l6.18,1.77-1.85,7.39-24.96.7-1.98-7.71l6.53-2.16ZM96.52,83.1c-.31-.37-.42-.86-.29-1.33.12-.47.45-.84.9-1.02l6.76-2.66c.6-.24,1.29-.06,1.7.44l2.02,2.44c-.17.19-.31.42-.41.67-.4,1.05.03,2.26,1.01,2.82l4.27,2.42l4.1,4.97-7.85,3.09c-.08-.22-.2-.43-.35-.61-.21-.25-.46-.43-.75-.56.2-.51.21-1.09-.01-1.63-.24-.57-.7-1.02-1.29-1.22-.27-.1-.56-.13-.84-.12c0-.3-.04-.61-.16-.9-.43-1.1-1.64-1.72-2.78-1.44l-.5.12c.2-.78-.03-1.62-.63-2.19-.69-.66-1.7-.79-2.52-.41l-2.38-2.87v-.01Zm21.05,9.93l.42.51c.31.37.42.86.3,1.33s-.45.84-.9,1.02l-6.76,2.66c-.6.24-1.29.06-1.7-.44l-.6-.73.38-.84c0,0,0-.01,0-.02l8.87-3.48-.01-.01ZM98.71,90.15c-.52-.64-.5-1.59.08-2.2l.48-.5c.31-.32.82-.34,1.15-.03.25.24.32.61.18.93l-.31.67c-.63.23-1.17.62-1.57,1.12l-.01.01Zm1.91,4.1c-.7-.31-1.19-.98-1.23-1.78-.05-1,.62-1.9,1.59-2.14l1.92-.47c.45-.11.91.13,1.08.56s0,.93-.42,1.15l-1.41.77v0c-.74.4-1.3,1.09-1.54,1.9l.01.01Zm3.08,1.91c-.34.42-.55.9-.64,1.41-.13-.08-.28-.17-.45-.27-.67-.4-.99-1.2-.78-1.95l.18-.64c.13-.46.44-.84.85-1.07l2.41-1.3c.18-.1.39-.11.59-.04s.35.21.43.41c.12.3.04.63-.21.84l-.66.55v0c0,0-.01,0-.02.01-.03.03-.06.06-.09.09l-1.6,1.98-.01-.02Zm6.97,5.81c-2.31,0-4.08-1.16-4.93-1.86-.35-.29-.67-.62-.95-1.01-.45-.61-.43-1.44.05-2.03l1.56-1.92c.12-.09.27-.14.43-.13.17.01.33.09.44.23.16.19.19.45.09.68l-1.1,2.44l1.33.6.06-.12.14.17c.57.7,1.41,1.08,2.28,1.08.36,0,.73-.07,1.08-.21l6.76-2.66c.89-.35,1.54-1.08,1.78-2.01s.03-1.88-.58-2.62l-5.58-6.76c-.06-.07-.13-.13-.2-.17l-4.39-2.48c-.36-.2-.52-.64-.37-1.03.16-.41.6-.63,1.03-.5c1.5.44,4.31,1.45,6.22,3.21c2.21,2.03,6.07,6.18,7.24,7.45l-5.42,9.64h-6.95l-.02.01Zm59.23,196.8c-.61.61-1.41.94-2.27.94h-21.3c-.87,0-1.69-.35-2.3-.98-.13-.13-.24-.28-.34-.43h26.59c-.11.17-.24.32-.38.47Zm.92-2.24c0,.1-.02.21-.03.31h-27.62c-.01-.15-.03-.3-.03-.45.06-1.54,1.21-2.81,2.74-3.03c1.46-.21,2.41-.41,2.42-.41.9-.15,1.78-.43,2.61-.81l2.36,2.62l1.08-.98-2.1-2.32l1.8-.95l2.47,2.74l1.08-.98-2.22-2.46l2.78-1.46c5.52,3.31,9.89,1.56,11.42.72.77,1.2,1.21,3.85,1.22,7.47l.02-.01Zm-1.7-8.87c-.92.54-4.71,2.41-9.67-.28l1.24-1.1c.14-.13.23-.3.24-.5l3.34-48.25c.3.06.62.11.95.17c2.01.32,4.22-.11,6.57-.56c2.32-.45,4.73-.91,7.14-.69.75.07,1.52.23,2.29.46l-12.1,50.75Zm55.72,11.11c-.61.61-1.41.94-2.27.94h-21.3c-.87,0-1.69-.35-2.3-.98-.13-.13-.24-.28-.34-.43h26.59c-.11.17-.24.32-.38.47Zm.93-2.24c0,.1-.02.21-.03.31h-27.62c-.01-.15-.03-.3-.03-.45.06-1.54,1.21-2.81,2.74-3.03c1.46-.21,2.41-.41,2.42-.41.9-.15,1.78-.43,2.61-.81l2.36,2.62l1.08-.98-2.1-2.32l1.8-.95l2.47,2.74l1.08-.98-2.22-2.46l2.78-1.46c5.52,3.31,9.89,1.56,11.42.72.77,1.2,1.21,3.85,1.22,7.47l.02-.01Zm-1.82-8.8c-1.09.61-4.79,2.24-9.55-.35l1.24-1.1c.2-.18.29-.46.22-.73l-12.35-48.44c.69-.16,1.39-.28,2.08-.33c1.9-.13,3.9.27,6.01.7c2.54.51,5.16,1.04,7.72.61.31-.05.62-.12.92-.2l3.71,49.83v.01Zm-2.54-128.07l9.37,71.36c-1.83.64-3.55,1.68-5.21,2.69-2.19,1.32-4.26,2.57-6.5,2.96-2.29.39-4.78-.11-7.18-.6-2.11-.43-4.3-.87-6.4-.73-2.28.16-4.49.94-6.63,1.7-2.31.82-4.49,1.6-6.62,1.56-2.43-.04-4.83-.96-7.14-1.86-2.08-.8-4.03-1.56-6.04-1.74-2.62-.23-5.12.25-7.54.71-2.21.42-4.3.83-6.06.55-4.3-.68-5.59-1.68-6.96-2.74-1.12-.87-2.28-1.76-4.86-2.53l16.83-95.06h42.37c4.54,7.26,7.43,15.24,8.59,23.73h-.02Zm11.05-3.27l-25.32-69.1-1.37.5l8.54,23.32-1.76,23.36h-42.17l-8.93-28.59c-.97-3.37-1.02-6.95-.15-10.35l2.21-8.61-1.41-.36-2.21,8.61c-.94,3.65-.88,7.49.16,11.13l1.83,5.87-7.17,12.79c-1.45,2.59-3.95,4.38-6.87,4.93s-5.9-.22-8.16-2.07l-23.08-21.1l7.56-13.43l17.78,12.8c.27.44,1.44,2.53,2.46,7.23l1.42-.31c-.96-4.44-2.07-6.68-2.53-7.49l10.74-24.89c1.78-4.37,5.37-7.73,9.85-9.21l8.69-2.88l2.1,8.18c.08.32.37.55.71.55c0,0,.01,0,.02,0l26.1-.73c.33,0,.61-.23.69-.55l1.97-7.88l10.81,3.1c5.47,1.57,9.75,5.97,11.16,11.48l18.19,70.92-11.87,2.78h.01Zm9.35,9l.85-.3.11,1.06-.83.32-.14-1.07.01-.01Zm6.56-1.99l-1.52,4.38c-.41,1.18-1.48,2-2.72,2.1l-1.72.14-.27-2.08l1.68-.64c.31-.12.5-.43.46-.76l-.24-2.26.58-.84-1.2-.83-.6.87-1.2.43-.13-1.04-1.45.19l1.09,8.42c.06.39-.19.76-.58.86-.37.09-.75-.1-.88-.4l-2.2-6.63c-.02-.05-.04-.1-.07-.14-2.99-5-2.1-7.4-1.77-8.01l7.42-1.74l4.71,4.9c.74.85.97,2.04.6,3.1l.01-.02Z" fill="#1a1a31" stroke-width="0"/><path d="M212.23,54.35v-1.46c-4.51-.04-8.86-2.62-11.07-6.57l-1.27.71c2.46,4.4,7.31,7.27,12.34,7.31v.01Z" fill="#1a1a31" stroke-width="0"/><path d="M174.92,48.31l-.31,1.43c0,0,.61.13,1.49.13c1.95,0,5.3-.59,7.01-4.32l-1.33-.61c-1.99,4.35-6.67,3.42-6.87,3.38l.01-.01Z" fill="#1a1a31" stroke-width="0"/></g></g><g id="e0Osf1IRFHi52_to" transform="translate(0,0)"><g transform="translate(0,0)"><path d="M118.05,65.78c.22.04.41.19.51.4l2.54,5.25l2.54-5.25c.1-.21.29-.35.51-.4c7.27-1.44,12.54-7.88,12.54-15.3c0-8.6-7-15.6-15.6-15.6s-15.6,7-15.6,15.6c0,7.42,5.27,13.85,12.54,15.3h.02Zm4.96-13.68c-.51-.45-1.2-.64-1.94-.84-.71-.19-1.44-.4-2.11-.84-1.59-1.06-2.25-2.81-1.72-4.57.44-1.48,1.63-2.55,3.08-2.85v-2.68c0,0,1.44,0,1.44,0v2.64c.98.11,1.76.44,2.35,1.05c1.12,1.15,1.09,2.75,1.09,2.82l-.73-.02-.73-.02c0,0,.01-1.08-.68-1.77-.43-.44-1.08-.65-1.92-.65-1.34,0-2.22.97-2.51,1.91-.34,1.14.08,2.24,1.13,2.94.47.31,1.06.47,1.68.65.82.23,1.76.48,2.52,1.15c1.18,1.04,1.54,2.66.95,4.24-.53,1.41-1.7,2.43-3.04,2.72v2.67c0,0-1.44,0-1.44,0v-2.65c-2.07-.28-3.42-1.78-3.44-3.95h1.46c.02,2.38,2.03,2.55,2.69,2.55c1.19,0,2.06-.94,2.41-1.86.38-1.02.17-2-.55-2.64h.01Z" fill="#ffd11a" stroke-width="0"/><path d="M121.15,56.6c-.66,0-2.67-.17-2.69-2.56h-1.46c.02,2.18,1.37,3.68,3.42,3.96v2.65c0,0,1.47,0,1.47,0v-2.67c1.32-.29,2.49-1.3,3.02-2.72.59-1.58.23-3.21-.95-4.24-.76-.67-1.69-.92-2.52-1.15-.62-.17-1.21-.33-1.68-.65-1.05-.7-1.48-1.8-1.13-2.94.28-.94,1.17-1.9,2.51-1.91.84,0,1.49.21,1.92.65.69.7.68,1.76.68,1.77l.73.02.73.02c0-.07.04-1.68-1.09-2.82-.59-.61-1.37-.94-2.34-1.05v-2.64c0,0-1.47,0-1.47,0v2.68c-1.43.31-2.62,1.37-3.06,2.85-.53,1.76.13,3.51,1.72,4.57.66.44,1.4.65,2.11.84.74.2,1.43.39,1.94.84.72.64.93,1.62.55,2.64-.34.92-1.22,1.85-2.41,1.86Z" fill="#1a1a31" stroke-width="0"/><path d="M117.4,67.13l3.04,6.29c.12.25.38.41.66.41s.53-.16.66-.41l3.04-6.29c7.76-1.72,13.36-8.66,13.36-16.65c0-9.4-7.65-17.06-17.06-17.06s-17.06,7.65-17.06,17.06c0,7.99,5.6,14.94,13.36,16.65Zm3.7-32.25c8.6,0,15.6,7,15.6,15.6c0,7.42-5.27,13.85-12.54,15.3-.22.04-.41.19-.51.4l-2.54,5.25-2.54-5.25c-.1-.21-.29-.35-.51-.4-7.27-1.44-12.54-7.88-12.54-15.3c0-8.6,7-15.6,15.6-15.6h-.02Z" fill="#1a1a31" stroke-width="0"/></g></g><g id="e0Osf1IRFHi56_tr" transform="translate(226.129997,9.12) rotate(0)"><polygon points="235.25,9.85 235.25,8.39 226.86,8.39 226.86,0 225.4,0 225.4,8.39 217.01,8.39 217.01,9.85 225.4,9.85 225.4,18.24 226.86,18.24 226.86,9.85 235.25,9.85" transform="translate(-226.129997,-9.12)" fill="#1a1a31" stroke-width="0"/></g><g id="e0Osf1IRFHi57_tr" transform="translate(236.705002,29.395) rotate(0)"><polygon points="241.81,28.67 237.43,28.67 237.43,24.29 235.97,24.29 235.97,28.67 231.6,28.67 231.6,30.12 235.97,30.12 235.97,34.5 237.43,34.5 237.43,30.12 241.81,30.12 241.81,28.67" transform="translate(-236.705002,-29.395)" fill="#1a1a31" stroke-width="0"/></g></g></svg>
