<?xml version="1.0" encoding="UTF-8"?>
<svg id="Layer_2" data-name="Layer 2" xmlns="http://www.w3.org/2000/svg" viewBox="0 0 53.86 36.73">
  <defs>
    <style>
      .cls-1 {
        fill: #4080d4;
      }

      .cls-1, .cls-2 {
        stroke-width: 0px;
      }

      .cls-2 {
        fill: #fff;
      }
    </style>
  </defs>
  <g id="_圖層_4" data-name="圖層 4">
    <g>
      <path class="cls-1" d="M50.59,26.63c0,3.77-3.06,6.83-6.83,6.83s-6.83-3.06-6.83-6.83c0-3.21,2.22-5.89,5.2-6.63v-3.33c-4.8.78-8.46,4.94-8.46,9.95,0,5.58,4.52,10.1,10.1,10.1s10.1-4.52,10.1-10.1c0-5.02-3.67-9.17-8.47-9.95v3.33c2.98.73,5.2,3.42,5.2,6.63Z"/>
      <path class="cls-1" d="M16.93,26.63c0,3.77-3.06,6.83-6.83,6.83s-6.83-3.06-6.83-6.83c0-3.21,2.21-5.89,5.2-6.63v-3.33C3.67,17.46,0,21.61,0,26.63c0,5.58,4.52,10.1,10.1,10.1s10.1-4.52,10.1-10.1c0-5.02-3.67-9.17-8.46-9.95v3.33c2.98.73,5.2,3.42,5.2,6.63Z"/>
      <path class="cls-1" d="M43.08,4.7h-5.65c-1.78,0-3.23,1.45-3.23,3.23h0c0,1.78,1.45,3.23,3.23,3.23h7.97v-5.95c-.82.2-1.67,0-2.32-.5Z"/>
      <path class="cls-2" d="M42.13,11.16H11.73V3.27h7.93V0h-11.19v26.63c0,.9.73,1.63,1.63,1.63s1.63-.73,1.63-1.63v-12.21h30.39v12.21c0,.9.73,1.63,1.63,1.63s1.63-.73,1.63-1.63v-15.48h-3.27Z"/>
    </g>
  </g>
</svg>