<?xml version="1.0" encoding="UTF-8"?>
<svg id="Layer_2" data-name="Layer 2" xmlns="http://www.w3.org/2000/svg" viewBox="0 0 93.13 53.12">
  <defs>
    <style>
      .cls-1, .cls-2, .cls-3, .cls-4, .cls-5, .cls-6, .cls-7, .cls-8, .cls-9, .cls-10 {
        stroke-width: 0px;
      }

      .cls-2 {
        fill: #413850;
      }

      .cls-3 {
        fill: #4080d4;
      }

      .cls-4 {
        fill: #4269ac;
      }

      .cls-5 {
        fill: #d6d9f7;
      }

      .cls-6 {
        fill: #98cbcb;
      }

      .cls-7 {
        fill: #ffdba2;
      }

      .cls-8 {
        fill: #fff;
      }

      .cls-9 {
        fill: #e3e1de;
      }

      .cls-10 {
        fill: #ffb2b1;
      }
    </style>
  </defs>
  <g id="_圖層_4" data-name="圖層 4">
    <g>
      <rect class="cls-8" x="0" y="19.11" width="93.13" height="34.01" transform="translate(93.13 72.22) rotate(-180)"/>
      <g>
        <path class="cls-3" d="M17.09,33.99h.29v.04s1.51,0,1.51,0h1.82s1.51,0,1.51,0v-.04h7.86s0,0,0,0v.04h5.41s0-.04,0-.04h17.22v8.74H15.12c-3.56,0-6.45-2.89-6.45-6.45v-2.29h2.71s5.71,0,5.71,0Z"/>
        <path class="cls-1" d="M54.56,31.45c.29-.4.75-.64,1.24-.64.84,0,1.53.68,1.53,1.53v8.9c0,.84-.68,1.53-1.53,1.53h-3.09v-8.74s1.85-2.58,1.85-2.58Z"/>
        <path class="cls-2" d="M17.1,8.73c.03-.37.12-1.05.37-1.82.53-1.6,1.82-3.57,4.89-3.83.23-.02.45-.04.7-.04,1.86,0,3.55.25,4.98.58,1.55.36,1.93,3.03.88,4.19-.14.16-.31.29-.5.38-2.3,1.09-3.99.28-5.36-.11-1.66-.47-2.22.12-2.28.94-.07.91.47,2.09.84,2.44l-3.21,1.33-1.34.55v-4.32s0-.11.01-.29Z"/>
        <polygon class="cls-9" points="22.21 34.03 20.7 34.03 18.89 34.03 17.38 34.03 17.38 33.99 22.21 33.99 22.21 34.03"/>
        <path class="cls-8" d="M19.8,31.28c0-1.49-1.21-2.71-2.71-2.71h-.05c-.33-.51-.52-1.1-.52-1.75v-3.76h6.56v3.76c0,1.49-1,2.74-2.37,3.14v2.68s1.51,0,1.51,0v1.34h-4.84v-.03c1.36-.15,2.42-1.28,2.42-2.68Z"/>
        <g>
          <path class="cls-10" d="M17.31,7.49c.05-.18.1-.37.17-.57-.07.18-.11.38-.17.57Z"/>
          <path class="cls-10" d="M17.18,8.16c.03-.23.08-.45.14-.67-.06.25-.1.47-.14.67Z"/>
          <path class="cls-10" d="M17.18,8.16c-.03.19-.06.38-.07.57.01-.14.04-.35.07-.57Z"/>
          <path class="cls-10" d="M17.09,16.5v-3.16s1.34-.55,1.34-.55l3.21-1.33c-.37-.35-.91-1.53-.84-2.44.06-.82.62-1.42,2.28-.94,1.38.39,3.06,1.2,5.36.11.19-.09.36-.22.5-.38.08.39.12.8.12,1.21,0,2.96-2.16,5.42-4.99,5.89v1.59h-6.98Z"/>
          <path class="cls-10" d="M17.04,28.57h.05c1.49,0,2.71,1.21,2.71,2.71,0,1.4-1.06,2.53-2.42,2.68-.1.01-.19.03-.29.03h-5.71v-5.41h5.66Z"/>
        </g>
        <g>
          <path class="cls-4" d="M17.38,33.99h-.29c.1,0,.19-.02.29-.03v.03Z"/>
          <path class="cls-5" d="M11.38,16.5h5.71s6.98,0,6.98,0h6s0,0,0,0c2.99,0,5.41,2.42,5.41,5.41v6.66s0,5.41,0,5.41v.04h-5.41v-.04h0s0,0,0,0h-7.86v-1.34s-1.51,0-1.51,0v-2.68c1.37-.4,2.37-1.64,2.37-3.14v-3.76s-6.56,0-6.56,0v3.76c0,.65.2,1.24.52,1.75h-5.66s0,5.41,0,5.41h-2.71c-1.49,0-2.71-1.21-2.71-2.71v-2.71s0-6.66,0-6.66c0-2.99,2.42-5.41,5.41-5.41Z"/>
        </g>
      </g>
      <g>
        <path class="cls-6" d="M75.78,12.83c0-1.13-.42-2.15-1.1-2.94.03-1.53,1-2.82,2.36-3.33V2.08h2.55v4.47c1.38.52,2.37,1.84,2.37,3.4v4.01h-6.33c.09-.36.15-.74.15-1.13Z"/>
        <path class="cls-3" d="M71.28,8.33c1.36,0,2.58.61,3.4,1.56.68.79,1.1,1.82,1.1,2.94,0,.39-.06.77-.15,1.13h-.95s-4.12,0-4.12,0l-3.25-3.25c.76-1.42,2.25-2.38,3.97-2.38Z"/>
        <path class="cls-5" d="M58.37,12.06l1.9,1.9h3.77c.12-.28.29-.57.54-.83.77-.77,1.96-.84,1.96-.84,0,0-.05.92-.59,1.67h.98s3.63,0,3.63,0l-3.25-3.25-3.79-3.79c-1.36-1.36-3.57-1.36-4.93,0l-.21.21c-1.36,1.36-1.36,3.57,0,4.93ZM60.27,11.72s.07-1.18.84-1.96c.77-.77,1.96-.84,1.96-.84,0,0-.07,1.18-.84,1.96-.77.77-1.96.84-1.96.84Z"/>
        <path class="cls-3" d="M63.07,8.92s-.07,1.18-.84,1.96c-.77.77-1.96.84-1.96.84,0,0,.07-1.18.84-1.96.77-.77,1.96-.84,1.96-.84Z"/>
        <path class="cls-3" d="M64.59,13.14c.77-.77,1.96-.84,1.96-.84,0,0-.05.92-.59,1.67h-1.91c.12-.28.29-.57.54-.83Z"/>
        <g>
          <rect class="cls-7" x="77.04" y="0" width="2.55" height="2.08"/>
          <path class="cls-7" d="M64.04,13.96h1.91s.98,0,.98,0h3.63s4.12,0,4.12,0h.95s6.33,0,6.33,0v2.92s0,4.23,0,4.23c0,2.74-2.23,4.97-4.97,4.97h-11.75c-2.74,0-4.97-2.23-4.97-4.97v-7.15h3.77Z"/>
        </g>
      </g>
    </g>
  </g>
</svg>