<?xml version="1.0" encoding="UTF-8"?>
<svg id="Layer_2" data-name="Layer 2" xmlns="http://www.w3.org/2000/svg" viewBox="0 0 141.62 77.48">
  <defs>
    <style>
      .cls-1, .cls-2 {
        stroke-width: 0px;
      }

      .cls-2 {
        fill: #fff;
      }
    </style>
  </defs>
  <g id="_圖層_4" data-name="圖層 4">
    <g>
      <path class="cls-1" d="M15.87,61.84c.17-.02.34-.05.51-.08v15.72h-4.22v-15.73c1.2.18,2.43.23,3.7.09Z"/>
      <path class="cls-2" d="M0,30.96c0-3.12,1.01-5.99,2.71-8.34C.66,19.78-.39,16.17.13,12.3,1,5.89,6.25.78,12.68.09c8.6-.93,15.87,5.78,15.87,14.19,0,3.12-1.01,5.99-2.71,8.34,1.7,2.35,2.71,5.22,2.71,8.34s-1.01,5.99-2.71,8.34c2.05,2.84,3.1,6.44,2.57,10.32-.85,6.24-5.84,11.23-12.03,12.14-.17.03-.34.06-.51.08-1.27.14-2.51.09-3.7-.09C5.29,60.73,0,54.81,0,47.64c0-3.12,1.01-5.99,2.71-8.34C1.01,36.95,0,34.08,0,30.96Z"/>
    </g>
    <g>
      <path class="cls-1" d="M71.13,61.75v15.73h-4.22v-15.73c.69.1,1.39.17,2.11.17s1.42-.07,2.11-.17Z"/>
      <path class="cls-2" d="M83.3,47.64c0,7.17-5.29,13.08-12.17,14.11-.69.1-1.39.17-2.11.17s-1.42-.07-2.11-.17c-6.88-1.02-12.17-6.94-12.17-14.11C54.75,22.65,69.02,0,69.02,0,69.02,0,83.3,22.95,83.3,47.64Z"/>
    </g>
    <g>
      <rect class="cls-1" x="121.24" y="60.33" width="4.22" height="17.15"/>
      <path class="cls-2" d="M110.45,26.6h-4.53S123.17,0,123.17,0l18.46,26.6h-5.05c-2.81,0-4.46,3.16-2.86,5.46l7.91,11.4h-5.05c-2.81,0-4.46,3.16-2.86,5.46l7.91,11.4h-16.17s-4.22,0-4.22,0h-15.32s7.45-11.49,7.45-11.49c1.5-2.31-.16-5.37-2.92-5.37h-4.53s7.45-11.49,7.45-11.49c1.5-2.31-.16-5.37-2.92-5.37Z"/>
    </g>
  </g>
</svg>