<?xml version="1.0" encoding="UTF-8"?>
<svg id="Layer_2" data-name="Layer 2" xmlns="http://www.w3.org/2000/svg" viewBox="0 0 70 82.51">
  <defs>
    <style>
      .cls-1, .cls-2 {
        stroke-width: 0px;
      }

      .cls-2 {
        fill: #ff8fc7;
      }
    </style>
  </defs>
  <g id="_內容" data-name="內容">
    <g>
      <path class="cls-2" d="M60.35,36.19c-4.93-2.33-10.39-.75-14.59,4.24-.46.54-1.38.54-1.84,0-2.92-3.47-6.46-5.29-10-5.29-1.55,0-3.09.35-4.59,1.06-5.32,2.51-8.19,8.82-6.98,15.33,1.9,10.25,19.12,20.47,22.49,22.37,3.37-1.91,20.58-12.13,22.49-22.37,1.21-6.51-1.66-12.81-6.98-15.33Z"/>
      <path class="cls-1" d="M61.37,34.03c-3.03-1.44-6.28-1.6-9.38-.66V10.29c0-3.29-2.68-5.97-5.97-5.97-1.36,0-2.61.48-3.62,1.25-.21-3.1-2.78-5.57-5.93-5.57-1.96,0-3.68.96-4.77,2.42-1.09-1.46-2.82-2.42-4.77-2.42-3.29,0-5.97,2.68-5.97,5.97v2.39c-1-.75-2.23-1.22-3.57-1.22-3.29,0-5.97,2.68-5.97,5.97v18.46c-.43-.54-.9-1.05-1.45-1.46-3.8-2.83-8.89-1.37-9.1-1.31-.51.15-.86.62-.86,1.15v30.49c0,8.77,7.34,12.12,9.97,13.03v7.83c0,.66.54,1.2,1.2,1.2s1.2-.54,1.2-1.2v-8.71c0-.55-.38-1.04-.92-1.17-.37-.09-9.05-2.27-9.05-10.98v-29.52c1.37-.22,4.09-.41,6.14,1.12,1.91,1.43,2.88,4.09,2.88,7.89v11.35c0,.59.43,1.09,1.01,1.18.06.01,5.62.96,10.22,5.69,5.62,8.77,17.86,16.04,20.92,17.76v5.39c0,.66.54,1.2,1.2,1.2s1.2-.54,1.2-1.2v-5.29c3.4-1.9,21.59-12.55,23.73-24.06,1.41-7.58-2.01-14.95-8.31-17.93ZM13.81,50.33V13.12c0-1.97,1.6-3.57,3.57-3.57s3.57,1.6,3.57,3.57v17.13c0,.66.54,1.2,1.2,1.2s1.2-.54,1.2-1.2V5.97c0-1.97,1.6-3.57,3.57-3.57s3.57,1.6,3.57,3.57v24.28c0,.66.54,1.2,1.2,1.2s1.2-.54,1.2-1.2V5.97c0-1.97,1.6-3.57,3.57-3.57s3.57,1.6,3.57,3.57v24.28c0,.66.54,1.2,1.2,1.2s1.2-.54,1.2-1.2V10.29c0-1.97,1.6-3.57,3.57-3.57s3.57,1.6,3.57,3.57v24.04c-1.68.85-3.29,2-4.75,3.53-4.78-4.98-11.01-6.45-16.53-3.84-6.3,2.98-9.72,10.35-8.31,17.93.08.45.24.9.37,1.35-2.7-1.74-5.22-2.63-6.56-2.98ZM67.33,51.52c-1.9,10.25-19.12,20.46-22.49,22.37-3.37-1.91-20.58-12.12-22.49-22.37-1.21-6.51,1.66-12.81,6.98-15.33,1.5-.71,3.05-1.06,4.59-1.06,3.54,0,7.07,1.82,10,5.29.46.54,1.38.54,1.84,0,4.2-4.98,9.66-6.57,14.59-4.24,5.32,2.51,8.19,8.82,6.98,15.33Z"/>
    </g>
  </g>
</svg>