<?xml version="1.0" encoding="UTF-8"?>
<svg id="Layer_2" data-name="Layer 2" xmlns="http://www.w3.org/2000/svg" viewBox="0 0 30.18 27.08">
  <defs>
    <style>
      .cls-1 {
        fill: #fff;
        stroke-width: 0px;
      }
    </style>
  </defs>
  <g id="_內容" data-name="內容">
    <g>
      <path class="cls-1" d="M14.28,24.21v2.87h-4.66c-1.12,0-1.91-.09-2.37-.26-.46-.17-.77-.43-.93-.77s-.24-.95-.24-1.84c-1.4-.04-2.6-.41-3.6-1.1s-1.67-1.58-1.99-2.64c-.32-1.07-.48-2.67-.48-4.8v-7.34c0-1.61.1-2.84.29-3.68s.58-1.64,1.18-2.39c.6-.75,1.36-1.31,2.3-1.69s1.98-.57,3.12-.57c1.38,0,2.6.23,3.68.7s1.88,1.06,2.42,1.79c.53.72.88,1.47,1.04,2.25s.24,1.93.24,3.46v7.7c0,2.11-.1,3.54-.31,4.29-.21.75-.6,1.35-1.18,1.79-.58.44-1.35.78-2.32,1.02.03.53.14.87.33,1s.64.21,1.35.21h2.14ZM8.1,6.59c0-1.1-.06-1.81-.18-2.12-.12-.31-.37-.46-.75-.46-.32,0-.57.12-.74.37-.17.25-.26.98-.26,2.2v11.07c0,1.38.06,2.23.17,2.55s.37.48.78.48.69-.19.81-.56.18-1.25.18-2.65V6.59Z"/>
      <path class="cls-1" d="M27.51,10.77c.9.3,1.57.8,2.01,1.49.44.69.66,2.3.66,4.84,0,1.89-.21,3.35-.64,4.39-.43,1.04-1.17,1.83-2.23,2.37s-2.41.81-4.06.81c-1.88,0-3.35-.31-4.42-.95-1.07-.63-1.77-1.4-2.11-2.31-.34-.91-.51-2.5-.51-4.75v-1.88h5.92v3.85c0,1.03.06,1.68.18,1.96.12.28.39.42.81.42.46,0,.76-.18.91-.53s.22-1.27.22-2.75v-1.64c0-.91-.1-1.57-.31-1.99s-.51-.7-.91-.83c-.4-.13-1.18-.21-2.33-.23v-3.44c1.41,0,2.28-.05,2.61-.16s.57-.34.72-.7.22-.93.22-1.7v-1.32c0-.83-.09-1.38-.26-1.64s-.44-.4-.8-.4c-.41,0-.69.14-.84.42-.15.28-.23.87-.23,1.78v1.95h-5.92v-2.02c0-2.27.52-3.8,1.55-4.59S20.45.03,22.71.03c2.82,0,4.74.55,5.74,1.65s1.51,2.63,1.51,4.6c0,1.33-.18,2.29-.54,2.88s-1,1.13-1.9,1.62Z"/>
    </g>
  </g>
</svg>