<?xml version="1.0" encoding="UTF-8"?>
<svg id="Layer_2" data-name="Layer 2" xmlns="http://www.w3.org/2000/svg" viewBox="0 0 574.41 113.12">
  <defs>
    <style>
      .cls-1, .cls-2, .cls-3, .cls-4, .cls-5 {
        stroke-width: 0px;
      }

      .cls-2 {
        fill: #76bb98;
      }

      .cls-3 {
        fill: #70abe0;
      }

      .cls-4 {
        fill: #4d6294;
      }

      .cls-5 {
        fill: #fff;
      }
    </style>
  </defs>
  <g id="_圖層_4" data-name="圖層 4">
    <g>
      <rect class="cls-5" x="44.62" y="41.33" width="57.28" height="71.79"/>
      <polygon class="cls-4" points="101.91 31.91 73.27 16.44 44.62 31.91 44.62 41.33 101.91 41.33 101.91 31.91"/>
      <g>
        <path class="cls-2" d="M61.73,62.82h-8.89v-4.44c0-2.45,1.99-4.44,4.44-4.44h0c2.45,0,4.44,1.99,4.44,4.44v4.44Z"/>
        <path class="cls-2" d="M77.71,62.82h-8.89v-4.44c0-2.45,1.99-4.44,4.44-4.44h0c2.45,0,4.44,1.99,4.44,4.44v4.44Z"/>
        <path class="cls-2" d="M93.69,62.82h-8.89v-4.44c0-2.45,1.99-4.44,4.44-4.44h0c2.45,0,4.44,1.99,4.44,4.44v4.44Z"/>
      </g>
      <g>
        <path class="cls-2" d="M61.73,92.06h-8.89v-4.44c0-2.45,1.99-4.44,4.44-4.44h0c2.45,0,4.44,1.99,4.44,4.44v4.44Z"/>
        <path class="cls-2" d="M77.71,92.06h-8.89v-4.44c0-2.45,1.99-4.44,4.44-4.44h0c2.45,0,4.44,1.99,4.44,4.44v4.44Z"/>
        <path class="cls-2" d="M93.69,92.06h-8.89v-4.44c0-2.45,1.99-4.44,4.44-4.44h0c2.45,0,4.44,1.99,4.44,4.44v4.44Z"/>
      </g>
      <rect class="cls-4" x="52.84" y="71.06" width="40.85" height="3.87"/>
    </g>
    <g>
      <polygon class="cls-3" points="101.91 71.06 101.91 113.12 127.77 113.12 127.77 85.03 101.91 71.06"/>
      <polygon class="cls-4" points="101.91 71.06 127.77 85.03 127.77 73.05 101.91 59.08 101.91 71.06"/>
      <rect class="cls-5" x="110.49" y="96.44" width="8.7" height="16.68"/>
    </g>
    <g>
      <path class="cls-2" d="M16.56,73c2.68-1.9,4.44-5.03,4.44-8.57,0-5.8-4.7-10.5-10.5-10.5S0,58.63,0,64.43c0,3.54,1.76,6.66,4.44,8.57-2.68,1.9-4.44,5.03-4.44,8.57,0,5.8,4.7,10.5,10.5,10.5s10.5-4.7,10.5-10.5c0-3.54-1.76-6.66-4.44-8.57Z"/>
      <rect class="cls-1" x="8.33" y="81.56" width="4.35" height="31.56"/>
    </g>
    <g>
      <path class="cls-4" d="M372.61,53.93h0c5.8,0,10.5,4.71,10.5,10.5v17.13c0,5.8-4.71,10.5-10.5,10.5h0c-5.8,0-10.5-4.71-10.5-10.5v-17.13c0-5.8,4.71-10.5,10.5-10.5Z"/>
      <rect class="cls-1" x="370.44" y="81.56" width="4.35" height="31.56"/>
    </g>
    <g>
      <circle class="cls-4" cx="254.35" cy="73" r="19.07" transform="translate(141.56 312.37) rotate(-80.78)"/>
      <rect class="cls-1" x="252.18" y="81.56" width="4.35" height="31.56"/>
    </g>
    <g>
      <path class="cls-3" d="M502.56,92.6h-9.25c-7.98,0-14.44-6.47-14.44-14.44h0c0-3.98,1.64-7.77,4.53-10.5l14.54-13.72,14.54,13.72c2.89,2.73,4.53,6.53,4.53,10.5h0c0,7.98-6.47,14.44-14.44,14.44Z"/>
      <rect class="cls-1" x="495.76" y="81.56" width="4.35" height="31.56"/>
    </g>
    <g>
      <path class="cls-3" d="M232.52,81.56c0,5.8-4.7,10.5-10.5,10.5s-10.5-4.7-10.5-10.5,10.5-27.63,10.5-27.63c0,0,10.5,21.83,10.5,27.63Z"/>
      <rect class="cls-1" x="219.84" y="81.56" width="4.35" height="31.56"/>
    </g>
    <g>
      <rect class="cls-2" x="156.06" y="15.25" width="45.44" height="97.86"/>
      <polygon class="cls-1" points="201.5 0 156.06 0 148.81 15.25 208.75 15.25 201.5 0"/>
      <g>
        <rect class="cls-4" x="167.41" y="26.88" width="3.84" height="7.71"/>
        <rect class="cls-4" x="176.86" y="26.88" width="3.84" height="7.71"/>
        <rect class="cls-4" x="186.31" y="26.88" width="3.84" height="7.71"/>
      </g>
      <g>
        <rect class="cls-4" x="167.41" y="46.22" width="3.84" height="7.71"/>
        <rect class="cls-4" x="176.86" y="46.22" width="3.84" height="7.71"/>
        <rect class="cls-4" x="186.31" y="46.22" width="3.84" height="7.71"/>
      </g>
      <g>
        <rect class="cls-4" x="167.41" y="65.56" width="3.84" height="7.71"/>
        <rect class="cls-4" x="176.86" y="65.56" width="3.84" height="7.71"/>
        <rect class="cls-4" x="186.31" y="65.56" width="3.84" height="7.71"/>
      </g>
      <g>
        <rect class="cls-4" x="167.41" y="84.89" width="3.84" height="7.71"/>
        <rect class="cls-4" x="176.86" y="84.89" width="3.84" height="7.71"/>
        <rect class="cls-4" x="186.31" y="84.89" width="3.84" height="7.71"/>
      </g>
    </g>
    <g>
      <rect class="cls-5" x="286.42" y="72.81" width="52.69" height="40.31"/>
      <g>
        <polygon class="cls-4" points="335.86 50.07 326.09 50.07 326.09 57.51 335.86 65.66 335.86 50.07"/>
        <polygon class="cls-2" points="335.86 65.66 326.09 57.51 312.77 46.41 281.1 72.81 344.43 72.81 335.86 65.66"/>
      </g>
      <rect class="cls-4" x="294.64" y="80.73" width="8.25" height="8.25"/>
      <rect class="cls-4" x="308.64" y="80.73" width="8.25" height="8.25"/>
      <rect class="cls-4" x="308.64" y="94.28" width="8.25" height="8.25"/>
      <rect class="cls-1" x="294.64" y="94.55" width="8.25" height="18.57"/>
    </g>
    <g>
      <rect class="cls-4" x="409.74" y="30.74" width="43.02" height="82.38"/>
      <polygon class="cls-3" points="452.76 18.61 409.74 18.61 402.49 30.74 460.01 30.74 452.76 18.61"/>
      <g>
        <rect class="cls-2" x="390.89" y="53.93" width="18.85" height="59.19"/>
        <polygon class="cls-1" points="390.89 41.8 383.63 53.93 409.74 53.93 409.74 41.8 390.89 41.8"/>
      </g>
      <g>
        <rect class="cls-2" x="452.76" y="53.93" width="18.85" height="59.19" transform="translate(924.38 167.05) rotate(180)"/>
        <polygon class="cls-1" points="471.62 41.8 478.87 53.93 452.76 53.93 452.76 41.8 471.62 41.8"/>
      </g>
      <g>
        <rect class="cls-5" x="418.17" y="44.28" width="4.67" height="7.15"/>
        <rect class="cls-5" x="428.91" y="44.28" width="4.67" height="7.15"/>
        <rect class="cls-5" x="439.66" y="44.28" width="4.67" height="7.15"/>
      </g>
      <g>
        <rect class="cls-5" x="418.17" y="60.85" width="4.67" height="7.15"/>
        <rect class="cls-5" x="428.91" y="60.85" width="4.67" height="7.15"/>
        <rect class="cls-5" x="439.66" y="60.85" width="4.67" height="7.15"/>
      </g>
      <rect class="cls-3" x="418.17" y="77.23" width="26.16" height="4.34"/>
      <g>
        <rect class="cls-5" x="397.98" y="60.85" width="4.67" height="7.15"/>
        <rect class="cls-5" x="397.98" y="77.43" width="4.67" height="7.15"/>
      </g>
      <g>
        <rect class="cls-5" x="459.85" y="60.85" width="4.67" height="7.15"/>
        <rect class="cls-5" x="459.85" y="77.43" width="4.67" height="7.15"/>
      </g>
      <rect class="cls-2" x="441.79" y="4.83" width="5.08" height="13.78"/>
      <g>
        <rect class="cls-1" x="422.02" y="92.06" width="7.52" height="21.06"/>
        <rect class="cls-1" x="432.95" y="92.06" width="7.52" height="21.06"/>
      </g>
    </g>
    <g>
      <rect class="cls-2" x="539.12" y="59.61" width="35.29" height="53.51"/>
      <g>
        <polygon class="cls-3" points="571.75 44.28 565.17 44.28 565.17 49.29 571.75 56.64 571.75 44.28"/>
        <polygon class="cls-1" points="571.75 56.64 565.17 49.29 556.76 39.91 539.12 59.61 574.41 59.61 571.75 56.64"/>
      </g>
      <g>
        <path class="cls-4" d="M553.84,76.09h-5.47v-3.71c0-1.51,1.23-2.74,2.74-2.74h0c1.51,0,2.74,1.23,2.74,2.74v3.71Z"/>
        <path class="cls-4" d="M565.17,76.09h-5.47v-3.71c0-1.51,1.23-2.74,2.74-2.74h0c1.51,0,2.74,1.23,2.74,2.74v3.71Z"/>
      </g>
      <g>
        <path class="cls-4" d="M553.84,88.47h-5.47v-3.71c0-1.51,1.23-2.74,2.74-2.74h0c1.51,0,2.74,1.23,2.74,2.74v3.71Z"/>
        <path class="cls-4" d="M565.17,88.47h-5.47v-3.71c0-1.51,1.23-2.74,2.74-2.74h0c1.51,0,2.74,1.23,2.74,2.74v3.71Z"/>
      </g>
      <g>
        <path class="cls-4" d="M553.84,100.84h-5.47v-3.71c0-1.51,1.23-2.74,2.74-2.74h0c1.51,0,2.74,1.23,2.74,2.74v3.71Z"/>
        <path class="cls-4" d="M565.17,100.84h-5.47v-3.71c0-1.51,1.23-2.74,2.74-2.74h0c1.51,0,2.74,1.23,2.74,2.74v3.71Z"/>
      </g>
    </g>
  </g>
</svg>