<?xml version="1.0" encoding="UTF-8"?>
<svg id="Layer_1" data-name="Layer 1" xmlns="http://www.w3.org/2000/svg" viewBox="0 0 240 275">
  <defs>
    <style>
      .cls-1 {
        fill: #7ba3ec;
      }

      .cls-1, .cls-2, .cls-3, .cls-4, .cls-5, .cls-6, .cls-7 {
        stroke-width: 0px;
      }

      .cls-2 {
        fill: #1a1a31;
      }

      .cls-3 {
        fill: #4080d4;
      }

      .cls-4 {
        fill: #d9dcfa;
      }

      .cls-5 {
        fill: #e0eaf4;
      }

      .cls-6 {
        fill: #90b9f2;
      }

      .cls-7 {
        fill: #fff;
      }
    </style>
  </defs>
  <g>
    <path class="cls-7" d="M33.42,81.82l-4.46,11.37h62.47l-4.46-11.37h-53.55ZM42.78,89.7h-7.42v-.97h7.42v.97ZM44.1,85.76h-7.42v-.97h7.42v.97ZM76.3,84.79h7.42v.97h-7.42v-.97ZM85.04,89.7h-7.42v-.97h7.42v.97Z"/>
    <polygon class="cls-1" points="43.72 48.99 44.36 46.82 43.06 46.82 43.72 48.99"/>
    <polygon class="cls-1" points="38.94 48.99 39.59 46.82 38.29 46.82 38.94 48.99"/>
    <rect class="cls-4" x="69.89" y="70.05" width="21.77" height="6.14"/>
    <polygon class="cls-4" points="51.63 13.54 50.27 16.93 53.09 16.93 51.63 13.54"/>
    <polygon class="cls-1" points="40.86 45.89 41.78 45.89 41.32 44.38 40.86 45.89"/>
    <path class="cls-1" d="M91.66,30.42H28.74v33.66h62.92V30.42Z"/>
    <path class="cls-4" d="M20.67,200.36h79.06V2.97H20.67v197.4ZM92.54,93.95c-.09.13-.24.21-.4.21H28.25c-.16,0-.31-.08-.4-.21-.09-.13-.11-.3-.05-.45l4.84-12.33c.07-.19.25-.31.45-.31h54.21c.2,0,.38.12.45.31l4.84,12.33c.06.15.04.32-.05.45ZM92.63,76.67c0,.27-.22.48-.48.48h-22.73c-.27,0-.48-.22-.48-.48v-7.11c0-.27.22-.48.48-.48h22.73c.27,0,.48.22.48.48v7.11ZM64.65,11.54h1.23l3.02,3.85,3-3.85h1.22v9.37h-1.31v-7.29l-2.79,3.62h-.24l-2.83-3.62v7.29h-1.3v-9.37ZM55.46,11.52h7.59v1.19h-3.17v8.19h-1.31v-8.19h-3.12v-1.19ZM51.18,11.48h.91l4.07,9.42h-1.33l-1.21-2.78h-3.88l-1.14,2.78h-1.34l3.9-9.42ZM27.77,29.94c0-.27.22-.48.48-.48h63.89c.27,0,.48.22.48.48v34.63c0,.27-.22.48-.48.48H28.25c-.27,0-.48-.22-.48-.48V29.94Z"/>
    <path class="cls-2" d="M100.21,2H20.18c-.27,0-.48.22-.48.48v198.36c0,.27.22.48.48.48h80.03c.27,0,.48-.22.48-.48V2.48c0-.27-.22-.48-.48-.48ZM99.73,200.36H20.67V2.97h79.06v197.4Z"/>
    <path class="cls-2" d="M28.25,65.05h63.89c.27,0,.48-.22.48-.48V29.94c0-.27-.22-.48-.48-.48H28.25c-.27,0-.48.22-.48.48v34.63c0,.27.22.48.48.48ZM28.74,30.42h62.92v33.66H28.74V30.42Z"/>
    <path class="cls-2" d="M49.75,18.13h3.88l1.21,2.78h1.33l-4.07-9.42h-.91l-3.9,9.42h1.34l1.14-2.78ZM51.63,13.54l1.47,3.39h-2.83l1.36-3.39Z"/>
    <polygon class="cls-2" points="58.57 20.9 59.88 20.9 59.88 12.72 63.05 12.72 63.05 11.52 55.46 11.52 55.46 12.72 58.57 12.72 58.57 20.9"/>
    <polygon class="cls-2" points="65.95 13.61 68.78 17.24 69.02 17.24 71.81 13.61 71.81 20.9 73.12 20.9 73.12 11.54 71.9 11.54 68.9 15.38 65.88 11.54 64.65 11.54 64.65 20.9 65.95 20.9 65.95 13.61"/>
    <path class="cls-2" d="M87.75,81.16c-.07-.19-.25-.31-.45-.31h-54.21c-.2,0-.38.12-.45.31l-4.84,12.33c-.06.15-.04.32.05.45.09.13.24.21.4.21h63.89c.16,0,.31-.08.4-.21.09-.13.11-.3.05-.45l-4.84-12.33ZM28.96,93.19l4.46-11.37h53.55l4.46,11.37H28.96Z"/>
    <rect class="cls-2" x="36.68" y="84.79" width="7.42" height=".97"/>
    <rect class="cls-2" x="35.36" y="88.73" width="7.42" height=".97"/>
    <rect class="cls-2" x="76.3" y="84.79" width="7.42" height=".97"/>
    <rect class="cls-2" x="77.62" y="88.73" width="7.42" height=".97"/>
    <path class="cls-2" d="M92.14,69.08h-22.73c-.27,0-.48.22-.48.48v7.11c0,.27.22.48.48.48h22.73c.27,0,.48-.22.48-.48v-7.11c0-.27-.22-.48-.48-.48ZM91.66,76.19h-21.77v-6.14h21.77v6.14Z"/>
  </g>
  <g>
    <path class="cls-7" d="M160.1,128.48l-7.75-4.56-7.8,4.53c2.77,13.14,5.97,26.88,7.57,33.66,1.7-6.76,5.08-20.49,7.97-33.63Z"/>
    <path class="cls-7" d="M150.66,122.39l-9.37-10.48c.77,4.31,1.74,9.23,2.8,14.3l6.58-3.82Z"/>
    <path class="cls-7" d="M181.62,63.92c-.33-1.21-1.04-2.15-1.96-2.56-.69-.31-1.46-.31-2.26-.04,0,.51-.02.97-.04,1.39-.02.65-.04,1.22-.03,1.75.09,3.57-.06,7.86-1.17,12.19,3.07-2.64,6.95-7.23,5.46-12.72Z"/>
    <polygon class="cls-7" points="127.79 60.53 127.8 60.53 127.79 60.53 127.79 60.53"/>
    <path class="cls-7" d="M126.84,62.35c0-.32-.02-.67-.02-1.04-.81-.28-1.59-.28-2.28.03-.92.42-1.63,1.35-1.96,2.56-1.49,5.49,2.38,10.08,5.46,12.72-1.11-4.33-1.26-8.62-1.17-12.19.01-.51,0-1.23-.02-2.09Z"/>
    <polygon class="cls-7" points="183.72 147.39 178.57 147.39 178.57 150.39 176.4 150.39 176.4 147.39 171.26 147.39 171.26 170.33 183.72 170.33 183.72 147.39"/>
    <path class="cls-7" d="M163.49,111.9l-9.43,10.5,6.54,3.85c1.1-5.09,2.11-10.03,2.9-14.35Z"/>
    <path class="cls-2" d="M130.43,127.77c1.27,3.65,9,25.03,19.81,35.78-2.33-9.83-9.08-38.73-11.73-55-.01-.09,0-.17,0-.26h-.01s.13-1.68.13-1.68c-2.54,1.86-6.78,5.69-8.17,11.32l4.17,2.17c.28.15.49.41.56.72.07.31,0,.64-.19.89l-4.56,6.05Z"/>
    <path class="cls-3" d="M132.21,109.74c2.47-3.12,5.3-5.08,6.63-5.9l.84-11.07c-.8-.54-1.61-1.11-2.42-1.75-4-3.13-6.49-6.87-8.03-10.74-2.96-2-11.05-8.4-8.74-16.93.5-1.84,1.65-3.29,3.16-3.97.99-.45,2.08-.55,3.18-.31.56-6.65,2.71-12.27,6.45-16.7.67-.79,1.43-1.59,2.45-2.03l.58,1.34c.46-.26.92-.51,1.4-.74.97-.45,2.04-.81,3.09-.73-.08-.24-.17-.48-.24-.73l2.1-.55c.64,2.45,2.32,4.65,4.48,5.99-.11-1.37-.05-2.74.21-4.09-.25-.27-.51-.55-.74-.81l1.65-1.41c5.99,7.03,20.56,15.47,30.37,15.83l-.08,2.17c-.42-.02-.86-.07-1.3-.11.08.96.12,1.8.14,2.57,1.1-.23,2.19-.13,3.18.31,1.51.68,2.66,2.13,3.16,3.97,2.32,8.54-5.78,14.93-8.74,16.93-1.54,3.86-4.03,7.61-8.03,10.73-.63.49-1.25.95-1.87,1.38l.85,11.14c.77.5,3.72,2.53,6.3,6.1l14.01,4.77c-3.48-6.93-2.69-13.99-1.64-23.33.76-6.74,1.62-14.37,1.3-24.28-.89-27.35-12.9-42.41-33.8-42.41s-32.9,15.06-33.79,42.41c-.32,9.9.54,17.54,1.3,24.28,1.07,9.44,1.85,16.55-1.76,23.55l14.36-4.89ZM144.91,26.77l1.88,1.09c-1.54,2.64-2.67,5.48-3.37,8.45l-2.11-.5c.75-3.18,1.96-6.23,3.61-9.05Z"/>
    <path class="cls-7" d="M147.12,44.91c.34.21.69.4,1.05.57l-.9,1.98c-3.06-1.39-5.43-4.07-6.5-7.25-1.04-.08-2.12.28-3.09.73-.48.22-.94.48-1.4.74l.28.66c-.64.28-1.19.89-1.65,1.44-3.68,4.36-5.71,10-6.05,16.76h.1c0,.64.02,1.25.04,1.79.02.91.04,1.66.02,2.2-.19,7.92.72,17.9,9.55,24.8,4.98,3.89,9.56,5.86,13.62,5.86.05,0,.09,0,.14,0,3.87-.04,8.33-2.01,13.26-5.86,8.84-6.9,9.75-16.88,9.55-24.8-.01-.56,0-1.17.03-1.87.05-1.57.11-3.51-.16-6.46-9.64-1.79-21.78-8.98-27.7-15.36-.26,1.35-.32,2.72-.21,4.09ZM137.64,57.68l-.72-2.05c.16-.05,3.91-1.34,8.33-.02l-.63,2.08c-3.75-1.13-6.95-.03-6.98-.02ZM141.11,66.76c-1.02,0-1.85-1.22-1.85-2.72s.83-2.72,1.85-2.72,1.85,1.22,1.85,2.72-.83,2.72-1.85,2.72ZM163.62,66.76c-1.02,0-1.85-1.22-1.85-2.72s.83-2.72,1.85-2.72,1.85,1.22,1.85,2.72-.83,2.72-1.85,2.72ZM167.76,55.61l-.63,2.08c-3.75-1.13-6.95-.03-6.98-.02l-.72-2.05c.16-.05,3.91-1.34,8.33-.02ZM160.39,79.44c0,4.57-3.72,8.29-8.29,8.29s-8.29-3.72-8.29-8.29c0-.6.49-1.09,1.09-1.09h14.41c.6,0,1.09.49,1.09,1.09ZM150.66,70.34c.56,1.14,1.55,2.07,2.72,2.55l-.84,2c-1.65-.69-3.04-2-3.83-3.6l1.95-.96Z"/>
    <path class="cls-4" d="M152.1,85.56c3,0,5.51-2.18,6.02-5.03h-12.05c.51,2.86,3.02,5.03,6.02,5.03Z"/>
    <path class="cls-2" d="M169.58,120.09l4.17-2.17c-1.41-5.86-5.4-9.76-7.61-11.54l.14,1.89h-.01c0,.09.01.17,0,.26-2.64,16.23-9.75,45.03-12.25,54.93,10.77-10.77,18.48-32.07,19.74-35.71l-4.56-6.05c-.19-.26-.26-.58-.19-.89.07-.31.27-.58.56-.72Z"/>
    <path class="cls-7" d="M163,93.77c-3.81,2.35-7.32,3.52-10.63,3.56-.05,0-.11,0-.16,0-3.25,0-6.76-1.11-10.45-3.26l-1.06,13.92,11.66,13.05,11.72-13.05-1.08-14.22Z"/>
    <path class="cls-6" d="M100.35,130.76l-16.94,47.47c-2.24,6.28.3,13.3,6.04,16.69,9.8,5.79,26.7,15.65,33.3,18.76l8.44-17.1-31.12-22.19,1.26-1.77,5.57,3.97,5.66-12.64h.03s-1.99-23.26-1.99-23.26l2.16-.18,3.67,42.88,16.27,11.6c2.99-1.2,8.88-2.19,12.26-2.69,1.57-.23,3.06.64,3.63,2.11.67,1.71-.18,3.66-1.88,4.35l-2.6,1.04,8.24,3.16,8.25-3.16-2.6-1.04c-1.71-.69-2.55-2.64-1.88-4.35.57-1.47,2.07-2.34,3.63-2.11,3.39.5,9.27,1.49,12.26,2.69l15.71-11.2,1.62-18.95h0s0,0,0,0l2.08-24.33,2.16.18-2.03,23.77,5.63,12.58,6.2-4.42,1.26,1.77-31.12,22.19,8.44,17.1c6.61-3.11,23.5-12.97,33.3-18.76,5.74-3.39,8.28-10.41,6.04-16.69l-16.94-47.47c-2.03-5.7-6.48-10.08-12.21-12.03l-18.15-6.18c.88,1.69,1.61,3.6,2.03,5.76.09.47-.14.95-.57,1.17l-3.77,1.96,4.13,5.49c.21.28.28.66.16.99-.39,1.17-9.6,28.75-23.23,39.59-.02.02-.04.03-.06.05,0,0,0,0,0,0-.07.05-.15.09-.24.13,0,0,0,0,0,0-.12.05-.25.07-.38.07h-.01c-.12,0-.24-.02-.36-.07,0,0,0,0,0,0h0c-.09-.04-.18-.08-.26-.14-.01-.01-.03-.02-.04-.03-13.64-10.84-22.85-38.42-23.23-39.59-.11-.34-.05-.71.16-.99l4.13-5.49-3.77-1.96c-.43-.22-.66-.7-.57-1.17.41-2.09,1.16-3.95,2.07-5.6l-17.67,6.02c-5.73,1.95-10.18,6.34-12.21,12.03ZM169.09,146.3c0-.6.49-1.09,1.09-1.09h6.23v-3.01h2.17v3.01h6.23c.6,0,1.09.49,1.09,1.09v25.12c0,.6-.49,1.09-1.09,1.09h-14.63c-.6,0-1.09-.49-1.09-1.09v-25.12ZM152.36,175.09c.87,0,1.58.71,1.58,1.58s-.71,1.58-1.58,1.58-1.58-.71-1.58-1.58.71-1.58,1.58-1.58ZM152.36,197.54c.87,0,1.58.71,1.58,1.58s-.71,1.58-1.58,1.58-1.58-.71-1.58-1.58.71-1.58,1.58-1.58Z"/>
    <path class="cls-6" d="M148.53,230.67l2.82-6.79c.17-.41.56-.67,1-.67s.87.26,1.04.67l2.82,6.79c17.92-.12,33.41-4.78,37.26-6.04l-3.03-12.92c-3.67,2.01-6.69,3.58-8.54,4.39-.14.06-.29.09-.43.09-.4,0-.79-.22-.97-.61l-1.89-3.83c-6.2,7.21-18.16,10.91-21.91,11.4-.13.02-.27.03-.41.03-1.39,0-3.07-.83-3.51-2.13-.1-.24-.15-.5-.17-.78l-.47-.13c-.01.33-.07.65-.2.96-.43,1.24-2.1,2.07-3.49,2.07-.14,0-.28,0-.41-.03-3.75-.49-15.71-4.19-21.91-11.4l-1.89,3.83c-.19.38-.57.61-.97.61-.14,0-.29-.03-.43-.09-1.85-.8-4.86-2.37-8.52-4.37l-3.03,12.91c3.85,1.25,19.34,5.91,37.26,6.04Z"/>
    <polygon class="cls-5" points="114.11 181.73 112.96 168.36 108.7 177.88 114.11 181.73"/>
    <path class="cls-2" d="M111.14,274.25h82.47c1.53-24.84-3.65-41.88-5.04-45.91-7.17,1.91-19.47,4.51-33.08,4.51-.44,0-.83-.26-1-.67l-2.12-5.09-2.12,5.09c-.17.41-.56.67-1,.67-13.6,0-25.9-2.61-33.08-4.51-1.38,4.03-6.57,21.07-5.04,45.91Z"/>
    <polygon class="cls-5" points="190.06 182.13 195.4 178.33 191.19 168.93 190.06 182.13"/>
    <path class="cls-7" d="M177.55,209.6l-6.19-12.54c-1.98-.84-6.27-1.78-11.91-2.62-.56-.08-1.09.23-1.29.75-.24.61.06,1.31.67,1.55l5.16,2.08c.41.17.68.57.68,1.02,0,.45-.28.85-.7,1.01l-8.57,3.28,3.1,1.19c.88.36,1.55,1.05,1.88,1.91.33.86.28,1.83-.14,2.66-.09.17-.19.33-.3.48.9.27,1.65.9,2.06,1.74.42.85.47,1.84.13,2.73-.51,1.33-1.79,2.17-3.16,2.17-.28,0-.57-.04-.86-.11l-.74-.18c.07.6,0,1.21-.25,1.78-.43.97-1.27,1.65-2.24,1.92.25.32,1.01.66,1.54.6,4.2-.54,15.87-4.57,21.13-11.4Z"/>
    <path class="cls-7" d="M141.36,214.98l8.69,2.29c.17.05.33.12.49.2l3.09.84c.61.17,1.25-.12,1.5-.69.15-.34.14-.71-.02-1.04-.13-.28-.37-.46-.64-.58l-9.03-2.25-2.01-.49h0s-.87-.23-.87-.23l.52-2.11,2.92.73,8.83,2.16c.12.03.22.08.33.13l3.47.86c.61.16,1.23-.16,1.46-.74.12-.32.11-.67-.05-.98-.15-.31-.42-.53-.75-.63l-2.95-.85s0,0,0,0l-12.11-3.28.57-2.1,11.16,3.02v-.02s.98.28.98.28c.55.15,1.11-.09,1.36-.59.15-.29.16-.62.05-.92-.11-.3-.34-.54-.64-.66l-16.94-6.49c-.42-.16-.69-.56-.7-1.01,0-.45.27-.85.68-1.02l5.16-2.08c.61-.24.91-.94.67-1.55-.2-.52-.73-.82-1.29-.75-5.64.83-9.93,1.78-11.91,2.62l-6.19,12.54c5.26,6.83,16.93,10.85,21.13,11.4.6.09,1.49-.38,1.59-.66.12-.31.06-.52,0-.62-.03-.07-.11-.16-.22-.24l-8.86-2.4h-.01s0,0,0,0l.28-1.05.28-1.05Z"/>
    <ellipse class="cls-2" cx="141.11" cy="64.04" rx="1.85" ry="2.72"/>
    <path class="cls-2" d="M163.62,61.32c-1.02,0-1.85,1.22-1.85,2.72s.83,2.72,1.85,2.72,1.85-1.22,1.85-2.72-.83-2.72-1.85-2.72Z"/>
    <path class="cls-2" d="M144.62,57.69l.63-2.08c-4.42-1.33-8.17-.04-8.33.02l.72,2.05s3.24-1.11,6.98.02Z"/>
    <path class="cls-2" d="M167.13,57.69l.63-2.08c-4.42-1.33-8.17-.04-8.33.02l.72,2.05s3.24-1.11,6.98.02Z"/>
    <path class="cls-2" d="M152.54,74.9l.84-2c-1.17-.49-2.16-1.42-2.72-2.55l-1.95.96c.79,1.6,2.19,2.91,3.83,3.6Z"/>
    <path class="cls-2" d="M152.36,178.25c.87,0,1.58-.71,1.58-1.58s-.71-1.58-1.58-1.58-1.58.71-1.58,1.58.71,1.58,1.58,1.58Z"/>
    <path class="cls-2" d="M152.36,200.69c.87,0,1.58-.71,1.58-1.58s-.71-1.58-1.58-1.58-1.58.71-1.58,1.58.71,1.58,1.58,1.58Z"/>
    <path class="cls-2" d="M143.81,79.44c0,4.57,3.72,8.29,8.29,8.29s8.29-3.72,8.29-8.29c0-.6-.49-1.09-1.09-1.09h-14.41c-.6,0-1.09.49-1.09,1.09ZM158.12,80.53c-.51,2.86-3.02,5.03-6.02,5.03s-5.51-2.18-6.02-5.03h12.05Z"/>
    <path class="cls-2" d="M147.28,47.45l.9-1.98c-.36-.16-.71-.36-1.05-.57.03.34.05.68.1,1.02-.05-.34-.07-.68-.1-1.02-2.16-1.34-3.83-3.54-4.48-5.99l-2.1.55c.06.25.16.48.24.73.24.02.49.05.73.13-.24-.07-.48-.11-.73-.13,1.06,3.18,3.43,5.86,6.5,7.25Z"/>
    <path class="cls-2" d="M146.78,27.86l-1.88-1.09c-1.65,2.82-2.86,5.87-3.61,9.05l2.11.5c.7-2.97,1.83-5.82,3.37-8.45Z"/>
    <path class="cls-2" d="M119.6,91.07c-.76-6.74-1.62-14.37-1.3-24.28.89-27.35,12.9-42.41,33.79-42.41s32.9,15.06,33.8,42.41c.32,9.9-.54,17.54-1.3,24.28-1.05,9.34-1.84,16.4,1.64,23.33l-14.01-4.77c-2.58-3.57-5.53-5.6-6.3-6.1l-.85-11.14c.61-.43,1.23-.89,1.87-1.38,4-3.12,6.49-6.87,8.03-10.73,2.96-2,11.05-8.39,8.74-16.93-.5-1.84-1.65-3.29-3.16-3.97-.99-.45-2.08-.55-3.18-.31-.02-.77-.06-1.61-.14-2.57.44.04.88.09,1.3.11l.08-2.17c-9.81-.36-24.39-8.81-30.37-15.83l-1.65,1.41c.23.27.49.54.74.81.1-.51.22-1.02.37-1.52-.15.5-.27,1.01-.37,1.52,5.92,6.38,18.06,13.57,27.7,15.36.27,2.94.21,4.88.16,6.46-.02.7-.04,1.31-.03,1.87.19,7.92-.72,17.9-9.55,24.8-4.93,3.84-9.39,5.82-13.26,5.86-.05,0-.09,0-.14,0-4.05,0-8.63-1.97-13.62-5.86-8.84-6.9-9.75-16.88-9.55-24.8.01-.54,0-1.29-.02-2.2-.01-.54-.03-1.14-.04-1.79h-.1c.34-6.76,2.37-12.4,6.05-16.76.46-.55,1.01-1.16,1.65-1.44l-.28-.66c-.58.32-1.14.66-1.71,1.01.56-.34,1.13-.68,1.71-1.01l-.58-1.34c-1.02.44-1.78,1.24-2.45,2.03-3.74,4.43-5.89,10.05-6.45,16.7-1.1-.23-2.19-.13-3.18.31-1.51.68-2.66,2.13-3.16,3.97-2.31,8.53,5.78,14.92,8.74,16.93,1.54,3.87,4.03,7.61,8.03,10.74.82.64,1.62,1.21,2.42,1.75l-.84,11.07c-1.33.82-4.16,2.78-6.63,5.9l-14.36,4.89c3.61-7.01,2.82-14.11,1.76-23.55ZM169.21,121.71l4.56,6.05c-1.26,3.64-8.97,24.94-19.74,35.71,2.49-9.91,9.6-38.71,12.25-54.93.01-.09,0-.17,0-.26h.01s-.14-1.9-.14-1.9c2.21,1.78,6.2,5.67,7.61,11.54l-4.17,2.17c-.28.15-.49.41-.56.72-.07.31,0,.64.19.89ZM135.18,120.82c-.07-.31-.27-.58-.56-.72l-4.17-2.17c1.39-5.63,5.63-9.46,8.17-11.32l-.13,1.68h.01c0,.09-.01.17,0,.26,2.65,16.26,9.4,45.17,11.73,55-10.81-10.74-18.54-32.13-19.81-35.78l4.56-6.05c.19-.26.26-.58.19-.89ZM152.36,121.04l-11.66-13.05,1.06-13.92c3.7,2.15,7.2,3.26,10.45,3.26.05,0,.11,0,.16,0,3.31-.04,6.82-1.21,10.63-3.56l1.08,14.22-11.72,13.05ZM163.49,111.9c-.78,4.33-1.79,9.26-2.9,14.35l-6.54-3.85,9.43-10.5ZM150.66,122.39l-6.58,3.82c-1.06-5.07-2.03-9.99-2.8-14.3l9.37,10.48ZM144.56,128.45l7.8-4.53,7.75,4.56c-2.89,13.13-6.28,26.86-7.97,33.63-1.6-6.78-4.81-20.52-7.57-33.66ZM177.33,64.45c-.01-.53,0-1.1.03-1.75.01-.42.03-.88.04-1.39.8-.27,1.58-.27,2.26.04.92.42,1.63,1.35,1.96,2.56,1.49,5.5-2.39,10.08-5.46,12.72,1.11-4.33,1.26-8.62,1.17-12.19ZM128.04,76.64c-3.07-2.64-6.95-7.23-5.46-12.72.33-1.21,1.04-2.15,1.96-2.56.69-.31,1.47-.31,2.28-.03,0,.36.01.71.02,1.04.02.87.04,1.58.02,2.09-.09,3.57.06,7.86,1.17,12.19ZM127.79,60.53h0s0,0,0,0h0ZM130.22,112.7c-.92,1.65-1.67,3.51-2.07,5.6-.09.47.14.95.57,1.17l3.77,1.96-4.13,5.49c-.21.28-.28.66-.16.99.39,1.17,9.6,28.75,23.23,39.59.01.01.03.02.04.03.08.06.17.11.26.14h0s0,0,0,0c.12.04.24.06.36.07h.01c.13,0,.26-.02.38-.07,0,0,0,0,0,0,.08-.03.16-.07.24-.13,0,0,0,0,0,0,.02-.01.04-.03.06-.05,13.63-10.85,22.85-38.42,23.23-39.59.11-.34.05-.71-.16-.99l-4.13-5.49,3.77-1.96c.43-.22.66-.7.57-1.17-.42-2.16-1.15-4.07-2.03-5.76l18.15,6.18c5.73,1.95,10.18,6.34,12.21,12.03l16.94,47.47c2.24,6.28-.3,13.3-6.04,16.69-9.8,5.79-26.7,15.65-33.3,18.76l-8.44-17.1,31.12-22.19-1.26-1.77-6.2,4.42-5.63-12.58,2.03-23.77-2.16-.18-2.08,24.33h0s0,0,0,0l-1.62,18.95-15.71,11.2c-2.99-1.2-8.88-2.19-12.26-2.69-1.57-.23-3.06.64-3.63,2.11-.67,1.71.18,3.66,1.88,4.35l2.6,1.04-8.25,3.16-8.24-3.16,2.6-1.04c1.7-.69,2.55-2.64,1.88-4.35-.57-1.47-2.07-2.34-3.63-2.11-3.39.5-9.27,1.49-12.26,2.69l-16.27-11.6-3.67-42.88-2.16.18,1.99,23.27h-.03s-5.66,12.63-5.66,12.63l-5.57-3.97-1.26,1.77,31.12,22.19-8.44,17.1c-6.61-3.11-23.5-12.97-33.3-18.76-5.74-3.39-8.28-10.41-6.04-16.69l16.94-47.47c2.03-5.7,6.48-10.08,12.21-12.03l17.67-6.02ZM140.81,217.08h.01s8.86,2.41,8.86,2.41c.11.08.19.17.22.24.05.1.12.31,0,.62-.1.28-.99.74-1.59.66-4.2-.54-15.87-4.57-21.13-11.4l6.19-12.54c1.98-.84,6.27-1.78,11.91-2.62.56-.07,1.09.23,1.29.75.24.61-.06,1.31-.67,1.55l-5.16,2.08c-.41.17-.68.57-.68,1.02,0,.45.28.85.7,1.01l16.94,6.49c.3.12.53.36.64.66.11.3.1.63-.05.92-.25.49-.81.74-1.36.59l-.98-.28v.02s-11.16-3.02-11.16-3.02l-.57,2.1,12.11,3.28s0,0,0,0l2.95.85c.33.1.6.32.75.63.15.31.17.66.05.98-.22.58-.84.9-1.46.74l-3.47-.86c-.11-.04-.22-.1-.33-.13l-8.83-2.16-2.92-.73-.52,2.11.87.22h0s2.01.5,2.01.5l9.03,2.25c.27.12.51.3.64.58.16.33.17.7.02,1.04-.25.57-.89.86-1.5.69l-3.09-.84c-.16-.08-.31-.15-.49-.2l-8.69-2.29-.28,1.05-.28,1.05h0ZM157.12,218.49c.25-.57.32-1.18.25-1.78l.74.18c.29.07.57.11.86.11,1.37,0,2.65-.84,3.16-2.17.34-.89.3-1.88-.13-2.73-.42-.84-1.17-1.47-2.06-1.74.11-.15.22-.31.3-.48.41-.83.46-1.8.14-2.66-.33-.86-1-1.56-1.88-1.91l-3.1-1.19,8.57-3.28c.42-.16.69-.56.7-1.01,0-.45-.27-.85-.68-1.02l-5.16-2.08c-.61-.24-.91-.94-.67-1.55.2-.52.74-.84,1.29-.75,5.64.83,9.93,1.78,11.91,2.62l6.19,12.54c-5.26,6.83-16.93,10.85-21.13,11.4-.53.07-1.29-.28-1.54-.6.97-.26,1.81-.94,2.24-1.92ZM190.06,182.13l1.13-13.21,4.21,9.4-5.34,3.81ZM114.11,181.73l-5.41-3.86,4.27-9.52,1.14,13.38ZM122.82,216.1c.14.06.29.09.43.09.4,0,.79-.22.97-.61l1.89-3.83c6.2,7.21,18.16,10.91,21.91,11.4.13.02.27.03.41.03,1.39,0,3.06-.82,3.49-2.07.13-.31.18-.64.2-.96l.47.13c.02.27.08.54.17.78.45,1.3,2.13,2.13,3.51,2.13.14,0,.28,0,.41-.03,3.75-.49,15.72-4.19,21.91-11.4l1.89,3.83c.19.38.57.61.97.61.14,0,.29-.03.43-.09,1.85-.8,4.87-2.38,8.54-4.39l3.03,12.92c-3.85,1.25-19.34,5.91-37.26,6.04l-2.82-6.79c-.17-.41-.6-.67-1.04-.67s-.83.26-1,.67l-2.82,6.79c-17.92-.12-33.41-4.78-37.26-6.04l3.03-12.91c3.66,2,6.67,3.57,8.52,4.37ZM149.26,232.85c.44,0,.83-.26,1-.67l2.12-5.09,2.12,5.09c.17.41.56.67,1,.67,13.6,0,25.9-2.61,33.08-4.51,1.38,4.03,6.57,21.07,5.04,45.91h-82.47c-1.53-24.84,3.65-41.88,5.04-45.91,7.17,1.91,19.47,4.51,33.08,4.51ZM195.79,274.25c1.51-24.85-3.61-42.05-5.12-46.49,2.79-.79,4.41-1.36,4.46-1.38.52-.19.82-.73.69-1.27l-3.4-14.48c7.17-3.98,16.24-9.27,23.97-13.83,6.63-3.92,9.57-12.03,6.98-19.29l-16.94-47.47c-2.26-6.32-7.2-11.19-13.55-13.36l-3.52-1.2c-4.51-7.03-3.75-13.89-2.59-24.15.73-6.47,1.64-14.53,1.31-24.59-.93-28.29-14.03-44.51-35.97-44.51s-35.04,16.22-35.97,44.51c-.33,10.06.58,18.12,1.31,24.59,1.17,10.37,1.94,17.27-2.74,24.38l-2.85.97c-6.36,2.16-11.3,7.03-13.55,13.36l-16.94,47.47c-2.59,7.26.34,15.37,6.98,19.29,7.74,4.57,16.82,9.87,23.99,13.85l-3.4,14.47c-.13.54.17,1.08.69,1.27.05.02,1.67.59,4.46,1.38-1.51,4.44-6.62,21.64-5.12,46.49"/>
    <path class="cls-2" d="M170.18,172.5h14.63c.6,0,1.09-.49,1.09-1.09v-25.12c0-.6-.49-1.09-1.09-1.09h-6.23v-3.01h-2.17v3.01h-6.23c-.6,0-1.09.49-1.09,1.09v25.12c0,.6.49,1.09,1.09,1.09ZM171.26,147.39h5.14v3.01h2.17v-3.01h5.14v22.95h-12.46v-22.95Z"/>
  </g>
</svg>