<?xml version="1.0" encoding="UTF-8"?>
<svg id="Layer_2" data-name="Layer 2" xmlns="http://www.w3.org/2000/svg" viewBox="0 0 38.09 65.65">
  <defs>
    <style>
      .cls-1 {
        fill: #413850;
      }

      .cls-1, .cls-2, .cls-3, .cls-4 {
        stroke-width: 0px;
      }

      .cls-2 {
        fill: #98cbcb;
      }

      .cls-3 {
        fill: #fff;
      }

      .cls-4 {
        fill: #ffb2b1;
      }
    </style>
  </defs>
  <g id="_圖層_4" data-name="圖層 4">
    <g>
      <path class="cls-3" d="M22.36,63.95c0,.94.76,1.7,1.7,1.7h9.89c.94,0,1.7-.76,1.7-1.7,0-.55-.26-1.06-.71-1.38l-2.87-2.06h-9.71v3.44Z"/>
      <path class="cls-3" d="M32.07,14.96H11.31c-.52,0-1.02.07-1.5.2-2.59.67-4.51,3.02-4.51,5.82v17.21h5.27l.74-3.8h20.77l.74,3.8h5.27v-17.21c0-3.32-2.69-6.01-6.01-6.01Z"/>
      <path class="cls-1" d="M29.83.65c-1.59-.37-3.46-.65-5.53-.65-.28,0-.52.03-.78.05-3.11.27-4.72,2.07-5.55,3.74-.86-.36-1.8-.56-2.79-.56-3.63,0-6.63,2.7-7.11,6.2-.29-.04-.59-.06-.89-.06-3.97,0-7.18,3.21-7.18,7.18,0,3.31,2.24,6.09,5.29,6.92v-2.49c0-2.8,1.92-5.15,4.51-5.82.48-.12.98-.2,1.5-.2h6.34l2.69-2.98,1.99-2.21.37-.41c-.41-.38-1.01-1.7-.94-2.71.07-.91.69-1.57,2.54-1.05,1.53.44,3.72-.53,5.67-1.15.19-.06.36-.15.51-.25,1.36-.89,1.11-3.15-.65-3.56Z"/>
      <path class="cls-3" d="M2.48,55.76c-.66.66-.66,1.74,0,2.4l6.99,6.99c.66.66,1.74.66,2.4,0,.39-.39.56-.94.47-1.47l-.57-3.48-6.87-6.87-2.43,2.43Z"/>
      <g>
        <rect class="cls-4" x="22.36" y="47.45" width="9.71" height="13.06"/>
        <path class="cls-4" d="M25.41,14.96v-1.76c3.14-.53,5.54-3.26,5.54-6.55,0-.86-.17-1.68-.47-2.44-.15.1-.32.19-.51.25-1.95.62-4.15,1.59-5.67,1.15-1.84-.53-2.47.13-2.54,1.05-.08,1.01.52,2.33.94,2.71l-.37.41-1.99,2.21-2.69,2.98h7.76Z"/>
        <path class="cls-4" d="M32.82,38.18l.89,4.57c.41.21.88.35,1.37.35,1.66,0,3.01-1.35,3.01-3.01v-1.91h-5.27Z"/>
        <path class="cls-4" d="M8.3,43.1c.5,0,.96-.13,1.37-.35l.89-4.57h-5.27v1.91c0,1.66,1.35,3.01,3.01,3.01Z"/>
        <path class="cls-4" d="M4.91,53.33l6.87,6.87,6.77-6.77c1.58-1.58,2.46-3.71,2.46-5.94v-.03h-10.23l-5.88,5.88Z"/>
      </g>
      <polygon class="cls-2" points="33.71 42.75 32.82 38.18 32.07 34.39 22.36 34.39 21.02 34.39 11.31 34.39 10.56 38.18 9.67 42.75 8.75 47.45 10.79 47.45 21.02 47.45 22.36 47.45 32.07 47.45 34.63 47.45 33.71 42.75"/>
    </g>
  </g>
</svg>