<?xml version="1.0" encoding="UTF-8"?>
<svg id="Layer_2" data-name="Layer 2" xmlns="http://www.w3.org/2000/svg" viewBox="0 0 83.3 77.48">
  <defs>
    <style>
      .cls-1, .cls-2 {
        stroke-width: 0px;
      }

      .cls-2 {
        fill: #fff;
      }
    </style>
  </defs>
  <g id="_圖層_4" data-name="圖層 4">
    <g>
      <g>
        <path class="cls-1" d="M67.43,61.84c-.17-.02-.34-.05-.51-.08v15.72h4.22v-15.73c-1.2.18-2.43.23-3.7.09Z"/>
        <path class="cls-2" d="M83.3,30.96c0-3.12-1.01-5.99-2.71-8.34,2.05-2.84,3.1-6.45,2.57-10.32-.87-6.41-6.12-11.52-12.55-12.21-8.6-.93-15.87,5.78-15.87,14.19,0,3.12,1.01,5.99,2.71,8.34-1.7,2.35-2.71,5.22-2.71,8.34s1.01,5.99,2.71,8.34c-2.05,2.84-3.1,6.44-2.57,10.32.85,6.24,5.84,11.23,12.03,12.14.17.03.34.06.51.08,1.27.14,2.51.09,3.7-.09,6.88-1.02,12.17-6.94,12.17-14.1,0-3.12-1.01-5.99-2.71-8.34,1.7-2.35,2.71-5.22,2.71-8.34Z"/>
      </g>
      <g>
        <path class="cls-1" d="M12.17,61.75v15.73h4.22v-15.73c-.69.1-1.39.17-2.11.17s-1.42-.07-2.11-.17Z"/>
        <path class="cls-2" d="M0,47.64c0,7.17,5.29,13.08,12.17,14.11.69.1,1.39.17,2.11.17s1.42-.07,2.11-.17c6.88-1.02,12.17-6.94,12.17-14.11C28.56,22.65,14.28,0,14.28,0,14.28,0,0,22.95,0,47.64Z"/>
      </g>
    </g>
  </g>
</svg>