<?xml version="1.0" encoding="UTF-8"?>
<svg id="Layer_2" data-name="Layer 2" xmlns="http://www.w3.org/2000/svg" viewBox="0 0 82.62 61.73">
  <defs>
    <style>
      .cls-1, .cls-2, .cls-3, .cls-4, .cls-5, .cls-6 {
        stroke-width: 0px;
      }

      .cls-2 {
        fill: #4080d4;
      }

      .cls-3 {
        fill: #4269ac;
      }

      .cls-4 {
        fill: #d6d9f7;
      }

      .cls-5 {
        fill: #fff;
      }

      .cls-6 {
        fill: #ffb2b1;
      }
    </style>
  </defs>
  <g id="_圖層_4" data-name="圖層 4">
    <g>
      <path class="cls-2" d="M52.96,58.96c-.4.29-.64.75-.64,1.24,0,.84.68,1.53,1.53,1.53h8.9c.84,0,1.53-.68,1.53-1.53v-3.09h-8.74l-2.58,1.85Z"/>
      <path class="cls-2" d="M82.17,52.83l-2.19-2.19-6.18,6.18h0s0,0,0,0l-.51,3.13c-.08.49.08.98.43,1.33.6.6,1.56.6,2.16,0l6.29-6.29c.6-.6.6-1.56,0-2.16Z"/>
      <polygon class="cls-3" points="79.98 50.64 73.8 56.82 73.8 56.82 79.98 50.64"/>
      <path class="cls-2" d="M74.23,16.11h-18.69c-.68.01-1.36.27-1.88.79l-12.87,12.87,3.83,3.83,10.92-10.92v10.92h18.69l.67,3.42h4.75v-15.49c0-2.99-2.42-5.41-5.41-5.41Z"/>
      <polygon class="cls-5" points="75.7 41.12 74.9 37.01 74.23 33.6 65.49 33.6 64.28 33.6 55.54 33.6 53.24 45.35 55.54 45.35 64.28 45.35 65.49 45.35 74.7 45.35 76.53 45.35 75.7 41.12"/>
      <path class="cls-5" d="M26.03,16.9c-.53-.53-1.23-.79-1.92-.79h0s-5.7,0-5.7,0H5.41c-2.99,0-5.41,2.42-5.41,5.41v15.49h5.41v-3.42h18.69v-10.96l10.96,10.96,3.83-3.83-12.87-12.87Z"/>
      <g>
        <rect class="cls-6" x="55.54" y="45.35" width="8.74" height="11.76"/>
        <path class="cls-6" d="M68.46,7.91c.02.14.04.29.05.43,0-.11-.03-.26-.05-.43Z"/>
        <path class="cls-6" d="M68.41,7.46s-.02,0-.03-.01c.03.17.06.32.08.47-.02-.15-.02-.3-.05-.45Z"/>
        <path class="cls-6" d="M61.54,14.53v1.59h6.98v-3.16l-1.34-.55-3.21-1.33c.37-.35.91-1.53.84-2.44-.06-.82-.62-1.42-2.28-.94-1.38.39-3.35-.48-5.11-1.03-.17-.05-.32-.13-.46-.22-.27.68-.42,1.42-.42,2.2,0,2.96,2.16,5.42,4.99,5.89Z"/>
        <path class="cls-6" d="M76.94,41.43c1.49,0,2.71-1.21,2.71-2.71v-1.71h-4.75l.8,4.11c.37.19.79.31,1.24.31Z"/>
        <path class="cls-6" d="M74.7,45.35h-9.21v.02c0,2.01.8,3.93,2.22,5.35l6.1,6.1,6.18-6.18-5.29-5.29Z"/>
        <path class="cls-6" d="M39.84,30.72l-.95-.95-3.83,3.83,1.21,1.21c.98.98,2.5,1.04,3.57.21,1.06.82,2.59.76,3.57-.21l1.21-1.21-3.83-3.83-.95.95Z"/>
        <path class="cls-6" d="M22.52,6.66c-1.75.56-3.73,1.43-5.11,1.03-1.66-.47-2.22.12-2.28.94-.07.91.47,2.09.84,2.44l-3.21,1.33-1.34.55v3.16h6.98v-1.59c2.83-.48,4.99-2.93,4.99-5.89,0-.78-.15-1.52-.42-2.2-.14.09-.28.17-.46.22Z"/>
        <path class="cls-6" d="M11.65,7.1c-.06.22-.1.44-.14.67.03-.2.07-.42.14-.67Z"/>
        <path class="cls-6" d="M11.65,7.1c.05-.19.1-.39.17-.57-.07.2-.12.39-.17.57Z"/>
        <path class="cls-6" d="M11.51,7.77c-.04.23-.06.43-.07.57,0-.2.04-.38.07-.57Z"/>
        <path class="cls-6" d="M0,38.73c0,1.49,1.21,2.71,2.71,2.71s2.71-1.21,2.71-2.71v-1.71H0v1.71Z"/>
      </g>
      <path class="cls-4" d="M24.1,44.89v-11.29H5.41v23.51h8.74v-18.09h1.21v6.35c0,2.01.8,3.93,2.22,5.35l6.1,6.1,6.18-6.18-5.75-5.75Z"/>
      <g>
        <path class="cls-1" d="M68.38,7.45s.02,0,.03.01c2.76,1.51,8.53,3.42,8.53,3.42,0,0-2.71-8.22-4.23-9.74-1.52-1.52-3.98-1.52-5.5,0-.7.7-1.06,1.6-1.12,2.51-.71-.5-1.65-.85-2.84-.96-.23-.02-.45-.04-.7-.04-1.86,0-3.55.25-4.98.58-1.58.37-1.8,2.4-.58,3.2.14.09.28.17.46.22,1.75.56,3.73,1.43,5.11,1.03,1.66-.47,2.22.12,2.28.94.07.91-.47,2.09-.84,2.44l3.21,1.33,1.34.55v-4.32s0-.11-.01-.29c-.02-.21-.05-.53-.13-.9Z"/>
        <path class="cls-1" d="M2.83,58.96c-.4.29-.64.75-.64,1.24,0,.84.68,1.53,1.53,1.53h8.9c.84,0,1.53-.68,1.53-1.53v-3.09H5.41l-2.58,1.85Z"/>
        <path class="cls-1" d="M22.39,3.23c-1.43-.33-3.12-.58-4.98-.58-.25,0-.47.02-.7.04-3.07.27-4.36,2.23-4.89,3.83-.26.77-.35,1.45-.37,1.82-.01.18-.01.29-.01.29v4.32l1.34-.55,3.21-1.33c-.37-.35-.91-1.53-.84-2.44.06-.82.62-1.42,2.28-.94,1.38.39,3.35-.48,5.11-1.03.17-.05.32-.13.46-.22,1.22-.8,1-2.83-.58-3.2Z"/>
        <path class="cls-1" d="M29.86,50.64l-6.18,6.18-.51,3.13c-.08.49.08.98.43,1.33.6.6,1.56.6,2.16,0l6.29-6.29c.6-.6.6-1.56,0-2.16l-2.19-2.19Z"/>
      </g>
    </g>
  </g>
</svg>