<?xml version="1.0" encoding="UTF-8"?>
<svg id="Layer_1" data-name="Layer 1" xmlns="http://www.w3.org/2000/svg" viewBox="0 0 240 260">
  <defs>
    <style>
      .cls-1 {
        fill: #7ba0e9;
      }

      .cls-1, .cls-2, .cls-3, .cls-4, .cls-5, .cls-6, .cls-7, .cls-8 {
        stroke-width: 0px;
      }

      .cls-2 {
        fill: #4d6294;
      }

      .cls-3 {
        fill: #1a1a31;
      }

      .cls-4 {
        fill: #4080d4;
      }

      .cls-5 {
        fill: #d9dcfa;
      }

      .cls-6 {
        fill: #d6d9f7;
      }

      .cls-7 {
        fill: #ff6b79;
      }

      .cls-8 {
        fill: #fff;
      }
    </style>
  </defs>
  <g>
    <g>
      <path class="cls-1" d="M127.69,102.4s29.01,3,41.97,9.28c12.95,6.28,13.11,19.91,13.11,19.91H45.63s.16-13.63,13.11-19.91c12.95-6.28,41.95-9.28,41.95-9.28l13.62,11,13.38-11Z"/>
      <path class="cls-3" d="M182.77,132.49H45.63c-.24,0-.47-.1-.64-.27s-.26-.4-.26-.64c0-.14.32-14.27,13.62-20.71,12.95-6.27,41.06-9.24,42.25-9.36.24-.02.47.05.66.2l13.04,10.54,12.82-10.53c.19-.15.43-.22.66-.2,1.19.12,29.32,3.09,42.27,9.36,13.3,6.45,13.62,20.57,13.62,20.71,0,.24-.09.47-.26.64s-.4.27-.64.27ZM46.59,130.69h135.21c-.32-3.08-2.16-13.17-12.54-18.2-11.88-5.76-37.88-8.77-41.3-9.15l-13.09,10.76c-.33.27-.8.27-1.14,0l-13.32-10.77c-3.4.38-29.41,3.4-41.29,9.15-10.41,5.04-12.22,15.13-12.54,18.2Z"/>
    </g>
    <g>
      <polyline class="cls-8" points="101.19 87.9 100.83 102.22 114.31 113.4 127.96 102.59 128.05 88.08"/>
      <path class="cls-3" d="M114.31,114.3c-.2,0-.41-.07-.57-.21l-13.48-11.18c-.21-.18-.33-.44-.32-.72l.36-14.32c.01-.5.43-.9.92-.88.5.01.89.43.88.92l-.35,13.88,12.58,10.44,12.75-10.08.08-14.09c0-.5.42-.89.91-.89.5,0,.9.41.89.91l-.08,14.52c0,.27-.13.53-.34.7l-13.66,10.81c-.16.13-.36.19-.56.19Z"/>
    </g>
    <g>
      <path class="cls-7" d="M115.26,81.93c3.91,0,7.14-2.96,7.56-6.76h-15.11c.42,3.8,3.65,6.76,7.56,6.76Z"/>
      <path class="cls-5" d="M101.42,88.98c-4.54-3.34-7.67-8.34-9.82-13.73l-.08.15c-13.12-7.09-12.32-13.79-11.37-16.34.56-1.51,1.51-2.68,2.71-3.44-1.23-2.74-5.13-12.48-2.25-20.47,2.99-8.29,8.94-9.92,10.74-10.22,2.31-5,6.06-8.51,11.14-10.42,9.08-3.41,20.32-.86,27.82,2.66,16.43,7.72,22.2,21.34,16.3,38.4,1.23.76,2.21,1.95,2.78,3.49.95,2.55,1.75,9.25-11.37,16.34l-.05-.1c-1.7,4.27-3.99,8.26-7.1,11.37-.89.89-1.83,1.69-2.81,2.4"/>
      <path class="cls-8" d="M147.81,59.65c-.9-2.41-3.01-3.63-5.58-3.32-.49,4.95-1.47,10.96-3.43,16.68,3.98-2.4,11.14-7.66,9.01-13.36Z"/>
      <path class="cls-8" d="M126.43,90.14c-3.41,2.03-7.32,3.05-11.67,3.05-4.64,0-8.5-1.18-11.73-3.13"/>
      <path class="cls-4" d="M145.06,54.88c5.49-16.07.02-28.91-15.48-36.19-7.19-3.38-17.93-5.84-26.52-2.61-4.79,1.8-8.28,5.15-10.39,9.95-.12.29-.4.48-.71.5-.27.02-6.71.63-9.79,9.18-2.63,7.31,1.06,16.61,2.2,19.19.85-.27,1.78-.37,2.75-.29-.05-.66-.1-1.29-.13-1.88-.53.04-1.07.08-1.62.09l-.05-1.68c2.35-.06,4.47-.39,6.15-.93,3.04-.99,5.02-3.36,5.58-6.67.43-2.55,1.08-6.4,4.42-7.54l.14.4c1.15-.75,2.88-2.17,3.32-4.08-1.29.02-2.61.2-3.93.58l-.46-1.62c6.76-1.95,13.45.47,17.46,6.31,2.95,4.3,5.81,8,10.99,9.67,1.48.48,9.14,2.63,15.05-1.92l1.02,1.33c-.76.59-1.56,1.08-2.39,1.49-.02,1.62-.09,3.84-.3,6.44.95-.07,1.85.02,2.67.27ZM137.34,41.45c-3.97,0-7.95-2.12-9.94-5.6l1.46-.83c2.17,3.8,7.13,5.7,11.29,4.31l.53,1.6c-1.08.36-2.21.53-3.34.53Z"/>
      <path class="cls-8" d="M81.72,59.65c-2.14,5.73,5.08,11.01,9.06,13.39-2.02-5.83-3.01-11.91-3.49-16.71-2.56-.31-4.67.91-5.57,3.32Z"/>
      <path class="cls-8" d="M128.49,48.87c-5.68-1.83-8.85-5.93-11.87-10.32-2.8-4.08-7.06-6.28-11.68-6.22-.45,1.91-2.17,3.33-3.32,4.08l.4,1.19c-2.39.81-2.9,3.81-3.31,6.22-.67,3.96-3.06,6.8-6.72,7.99-.98.32-2.11.56-3.32.74.39,6.73,1.66,16.43,5.46,24.52,4.51,9.59,11.45,14.44,20.63,14.44,5.9,0,10.92-2.03,14.91-6.02,9.76-9.77,11.17-28.81,11.32-36.62-1.97.7-4.04,1.01-6.03,1.01-2.34,0-4.58-.4-6.47-1.01ZM114.42,61.67v-7.53h1.68v8.13c0,.37-.25.7-.6.81-.03,0-2.82.87-2.54,2.6.34,2.02,2.63,3.12,2.65,3.13l-.71,1.53c-.13-.06-3.12-1.47-3.6-4.38-.38-2.25,1.57-3.66,3.12-4.28ZM104.06,61.38c-1.11,0-2.01-1.28-2.01-2.87s.9-2.87,2.01-2.87,2.01,1.28,2.01,2.87-.9,2.87-2.01,2.87ZM115.26,83.61c-5.12,0-9.28-4.16-9.28-9.28,0-.46.38-.84.84-.84h16.89c.46,0,.84.38.84.84,0,5.12-4.16,9.28-9.28,9.28ZM125.96,61.38c-1.11,0-2.01-1.28-2.01-2.87s.9-2.87,2.01-2.87,2.01,1.28,2.01,2.87-.9,2.87-2.01,2.87Z"/>
      <g>
        <path class="cls-3" d="M114.91,70.33l.71-1.53s-2.32-1.11-2.65-3.13c-.29-1.73,2.51-2.59,2.54-2.6.36-.11.6-.43.6-.81v-8.13h-1.68v7.53c-1.55.62-3.49,2.03-3.12,4.28.48,2.91,3.48,4.32,3.6,4.38Z"/>
        <path class="cls-3" d="M115.26,83.61c5.12,0,9.28-4.16,9.28-9.28,0-.46-.38-.84-.84-.84h-16.89c-.46,0-.84.38-.84.84,0,5.12,4.16,9.28,9.28,9.28ZM122.82,75.17c-.42,3.8-3.65,6.76-7.56,6.76s-7.14-2.96-7.56-6.76h15.11Z"/>
        <path class="cls-3" d="M104.06,61.38c1.11,0,2.01-1.28,2.01-2.87s-.9-2.87-2.01-2.87-2.01,1.28-2.01,2.87.9,2.87,2.01,2.87Z"/>
        <path class="cls-3" d="M125.96,61.38c1.11,0,2.01-1.28,2.01-2.87s-.9-2.87-2.01-2.87-2.01,1.28-2.01,2.87.9,2.87,2.01,2.87Z"/>
        <path class="cls-3" d="M137.34,41.45c1.13,0,2.26-.17,3.34-.53l-.53-1.6c-4.16,1.38-9.11-.51-11.29-4.31l-1.46.83c1.99,3.48,5.97,5.6,9.94,5.6Z"/>
        <path class="cls-3" d="M128.05,89.08c.98-.71,1.92-1.51,2.81-2.4,3.11-3.11,5.41-7.1,7.1-11.37l.05.1c13.12-7.09,12.32-13.79,11.37-16.34-.57-1.54-1.55-2.72-2.78-3.49,5.9-17.06.13-30.68-16.3-38.4-7.5-3.52-18.75-6.07-27.82-2.66-5.09,1.91-8.83,5.41-11.14,10.42-1.8.31-7.75,1.93-10.74,10.22-2.88,7.99,1.02,17.73,2.25,20.47-1.2.77-2.15,1.93-2.71,3.44-.95,2.55-1.75,9.25,11.37,16.34l.08-.15c2.15,5.39,5.28,10.39,9.82,13.73l1.61,1.08c3.23,1.96,7.09,3.13,11.73,3.13,4.35,0,8.25-1.02,11.67-3.05l1.62-1.06ZM87.29,56.33c.47,4.81,1.46,10.88,3.48,16.71-3.97-2.39-11.2-7.66-9.06-13.39.9-2.41,3.01-3.63,5.57-3.32ZM88.68,52.55c1.21-.17,2.34-.42,3.32-.74,3.66-1.19,6.05-4.03,6.72-7.99.41-2.41.91-5.41,3.31-6.22l-.4-1.19-.14-.4c-3.34,1.14-3.99,4.99-4.42,7.54-.56,3.31-2.54,5.68-5.58,6.67-1.67.55-3.8.87-6.15.93l.05,1.68c.55-.02,1.09-.05,1.62-.09.04.59.08,1.22.13,1.88-.97-.08-1.9.02-2.75.29-1.14-2.58-4.83-11.88-2.2-19.19,3.08-8.56,9.52-9.16,9.79-9.18.31-.02.59-.22.71-.5,2.1-4.8,5.6-8.15,10.39-9.95,8.59-3.22,19.33-.77,26.52,2.61,15.5,7.28,20.97,20.11,15.48,36.19-.83-.25-1.73-.34-2.67-.27.21-2.61.28-4.83.3-6.44.83-.41,1.63-.9,2.39-1.49l-1.02-1.33c-5.91,4.55-13.57,2.4-15.05,1.92-5.18-1.68-8.05-5.37-10.99-9.67-4-5.84-10.7-8.26-17.46-6.31l.46,1.62c1.32-.38,2.64-.56,3.93-.58,4.62-.06,8.88,2.14,11.68,6.22,3.01,4.39,6.19,8.49,11.87,10.32,1.89.61,4.14,1.01,6.47,1.01,2,0,4.06-.31,6.03-1.01-.15,7.8-1.57,26.85-11.32,36.62-3.99,3.99-9,6.02-14.91,6.02-9.18,0-16.12-4.86-20.63-14.44-3.8-8.08-5.07-17.78-5.46-24.52ZM142.23,56.33c2.57-.31,4.68.91,5.58,3.32,2.13,5.71-5.02,10.96-9.01,13.36,1.96-5.72,2.94-11.72,3.43-16.68Z"/>
      </g>
    </g>
    <g>
      <polygon class="cls-2" points="92.69 103.4 103.88 121.04 114.31 113.4 100.83 102.22 92.69 103.4"/>
      <path class="cls-3" d="M103.88,121.94c-.06,0-.11,0-.17-.02-.24-.05-.46-.19-.59-.4l-11.19-17.64c-.16-.26-.19-.58-.06-.86.13-.28.39-.47.69-.52l8.14-1.18c.25-.04.51.04.7.2l13.48,11.18c.21.18.33.44.32.72,0,.28-.14.53-.37.7l-10.42,7.64c-.16.11-.34.17-.53.17ZM94.2,104.09l9.93,15.65,8.72-6.39-12.28-10.19-6.37.93Z"/>
    </g>
    <g>
      <polygon class="cls-2" points="136.31 103.4 125.12 121.04 114.69 113.4 128.17 102.22 136.31 103.4"/>
      <path class="cls-3" d="M125.12,121.94c-.19,0-.38-.06-.53-.17l-10.42-7.64c-.22-.16-.36-.42-.37-.7,0-.28.11-.54.32-.72l13.48-11.18c.2-.16.45-.23.7-.2l8.14,1.18c.3.04.56.24.69.52.13.28.11.6-.06.86l-11.19,17.64c-.13.21-.35.36-.59.4-.06.01-.11.02-.17.02ZM116.15,113.36l8.72,6.39,9.93-15.65-6.37-.93-12.28,10.19Z"/>
    </g>
    <g>
      <rect class="cls-6" x="33.19" y="130.9" width="162" height="91"/>
      <path class="cls-3" d="M195.19,222.8H33.19c-.5,0-.9-.4-.9-.9v-91c0-.5.4-.9.9-.9h162c.5,0,.9.4.9.9v91c0,.5-.4.9-.9.9ZM34.09,221h160.2v-89.2H34.09v89.2Z"/>
    </g>
    <g>
      <rect class="cls-6" x="103.19" y="191.9" width="22" height="60"/>
      <path class="cls-3" d="M125.19,252.8h-22c-.5,0-.9-.4-.9-.9v-60c0-.5.4-.9.9-.9h22c.5,0,.9.4.9.9v60c0,.5-.4.9-.9.9ZM104.09,251h20.2v-58.2h-20.2v58.2Z"/>
    </g>
    <g>
      <rect class="cls-6" x="96.69" y="242.9" width="35" height="9"/>
      <path class="cls-3" d="M131.69,252.8h-35c-.5,0-.9-.4-.9-.9v-9c0-.5.4-.9.9-.9h35c.5,0,.9.4.9.9v9c0,.5-.4.9-.9.9ZM97.59,251h33.2v-7.2h-33.2v7.2Z"/>
    </g>
  </g>
  <g>
    <path class="cls-8" d="M221.1,2.9h-45c-8.84,0-16,7.16-16,16s7.16,16,16,16h1.83l2.09,8.81,8.09-8.81h33c8.84,0,16-7.16,16-16s-7.16-16-16-16Z"/>
    <path class="cls-3" d="M180.01,44.61c-.08,0-.15,0-.23-.03-.32-.08-.57-.34-.65-.66l-1.92-8.12h-1.11c-9.32,0-16.9-7.58-16.9-16.9s7.58-16.9,16.9-16.9h45c9.32,0,16.9,7.58,16.9,16.9s-7.58,16.9-16.9,16.9h-32.6l-7.82,8.52c-.17.19-.41.29-.66.29ZM176.1,3.8c-8.33,0-15.1,6.77-15.1,15.1s6.77,15.1,15.1,15.1h1.83c.42,0,.78.29.88.69l1.7,7.16,6.94-7.56c.17-.19.41-.29.66-.29h33c8.33,0,15.1-6.77,15.1-15.1s-6.77-15.1-15.1-15.1h-45Z"/>
  </g>
  <g>
    <circle class="cls-3" cx="182.6" cy="18.4" r="2"/>
    <circle class="cls-3" cx="214.6" cy="18.4" r="2"/>
    <circle class="cls-3" cx="198.6" cy="18.4" r="2"/>
  </g>
</svg>