<?xml version="1.0" encoding="UTF-8"?>
<svg id="_圖層_2" data-name="圖層 2" xmlns="http://www.w3.org/2000/svg" viewBox="0 0 422 95.26">
  <defs>
    <style>
      .cls-1, .cls-2, .cls-3 {
        stroke-width: 0px;
      }

      .cls-2 {
        fill: #6cd5ff;
      }

      .cls-3 {
        fill: #ffd11a;
      }
    </style>
  </defs>
  <g id="_內容" data-name="內容">
    <g>
      <g>
        <g>
          <path class="cls-1" d="M42.75,94.09c-5.6,0-7.07-2.84-7.32-5.23-.26-2.54.48-4.43,2.2-5.61,1.41-.97,3.32-1.46,5.68-1.46.28,0,.57,0,.87.02.48,0,1.08-.01,1.76-.04.72-.03,1.14-.05,1.27-.05.72-.06.98-.19,1.03-.22h0s.08-.12.14-.49l1.76-9.99h-16.73c-2,0-3.47-.55-4.37-1.62-.91-1.09-1.2-2.67-.84-4.69.69-3.9,3.12-5.96,7.02-5.96h17.08l.63-3.59c.45-2.55,2.1-3.96,4.65-3.98,1.34-.94,2.94-2.17,4.77-3.67h-17.95c-1.94,0-3.37-.53-4.25-1.58-.89-1.06-1.16-2.59-.82-4.55.67-3.78,3.02-5.78,6.81-5.78h31.34c2.77,0,4.43.89,4.94,2.66.46,1.61-.27,3.76-2.23,6.57-4.1,4.82-9,9.2-14.64,13.07l-.15.84h15.2c1.95,0,3.4.54,4.29,1.6.91,1.09,1.19,2.67.84,4.71-.69,3.9-3.08,5.96-6.93,5.96h-15.55l-1.87,10.61c-.53,2.99-1.32,5.34-2.34,6.98-1.08,1.72-2.77,3-5.03,3.79-2.64.99-6.27,1.55-10.77,1.68-.17,0-.34,0-.5,0ZM13.44,93.99c-2.18,0-3.77-.58-4.74-1.73-.95-1.13-1.25-2.76-.88-4.85l4.16-23.58c-.24.19-.5.39-.77.6-2.06,1.36-3.75,2-5.23,2-1.51,0-3.54-.7-4.62-4.02-1.12-3.78.3-7,4.23-9.61,7.79-5.68,14.98-13.18,21.36-22.3h-13.05c-2.06,0-3.57-.56-4.5-1.66-.94-1.12-1.23-2.74-.86-4.82.7-3.96,3.19-6.05,7.22-6.05h18.95c1.18-2.16,2.18-4.15,2.99-5.9,1.46-3.29,3.75-4.96,6.8-4.96.69,0,1.42.09,2.18.26,2.11.5,3.51,1.45,4.17,2.84.72,1.5.51,3.45-.62,5.78-.02.04-.05.08-.07.12-.15.22-.42.68-.86,1.59-.05.09-.09.19-.14.28h37.2c2.07,0,3.59.56,4.52,1.67.93,1.1,1.21,2.7.85,4.73-.71,4.02-3.21,6.14-7.23,6.14h-42.59c-4.81,7.46-9.66,13.85-14.4,19l-6.74,38.25c-.72,4.08-3.26,6.23-7.34,6.23Z"/>
          <path class="cls-1" d="M44.51,8.11c.61,0,1.27.08,1.95.24,3.8.9,4.76,3.3,2.87,7.2-.24.36-.56.93-.93,1.71-.38.78-.69,1.35-.93,1.71h38.9c3.54,0,5.01,1.74,4.39,5.22-.62,3.54-2.71,5.31-6.25,5.31h-43.13c-4.97,7.74-9.9,14.26-14.79,19.54l-6.8,38.54c-.64,3.6-2.75,5.4-6.36,5.4s-5.27-1.8-4.63-5.4l4.62-26.2c-.64.54-1.58,1.29-2.83,2.25-1.81,1.2-3.35,1.79-4.62,1.79-1.73,0-2.95-1.11-3.66-3.32-.98-3.3.3-6.12,3.83-8.46,8.4-6.12,15.97-14.17,22.71-24.13h-14.95c-3.54,0-5-1.77-4.38-5.31.61-3.48,2.69-5.22,6.23-5.22h19.54c1.32-2.4,2.43-4.56,3.3-6.48,1.29-2.92,3.26-4.38,5.89-4.38M77.5,36.62c2.28,0,3.61.65,3.98,1.94.37,1.29-.32,3.2-2.09,5.72-4.09,4.8-9,9.16-14.73,13.06l-.43,2.43h16.39c3.36,0,4.74,1.71,4.14,5.13-.6,3.42-2.59,5.13-5.95,5.13h-16.39l-2.02,11.44c-.51,2.88-1.24,5.09-2.2,6.62-.96,1.53-2.47,2.66-4.51,3.38-2.57.96-6.06,1.5-10.46,1.62-.16,0-.32,0-.48,0-3.92,0-6.03-1.44-6.33-4.33-.22-2.16.37-3.72,1.77-4.68,1.24-.85,2.95-1.28,5.11-1.28.27,0,.55,0,.83.02.54,0,1.16-.01,1.85-.05.69-.03,1.1-.04,1.22-.04.73-.06,1.25-.18,1.55-.36.3-.18.51-.57.61-1.17l1.97-11.17h-17.92c-3.42,0-4.83-1.71-4.23-5.13.6-3.42,2.62-5.13,6.04-5.13h17.92l.78-4.41c.37-2.1,1.61-3.15,3.71-3.15h.27c1.91-1.32,4.32-3.21,7.21-5.67h-20.71c-3.3,0-4.66-1.65-4.08-4.95.58-3.3,2.52-4.95,5.83-4.95h31.34M44.51,6.11c-2.4,0-5.68.97-7.72,5.57-.72,1.57-1.61,3.35-2.66,5.29H15.78c-4.51,0-7.42,2.44-8.2,6.88-.42,2.39-.06,4.28,1.08,5.64,1.13,1.34,2.9,2.02,5.27,2.02h11.11c-6.02,8.3-12.74,15.19-20.02,20.49C-.36,55.57-.46,59.78.4,62.68c1.34,4.14,4.07,4.75,5.58,4.75,1.39,0,2.9-.47,4.6-1.44l-3.75,21.25c-.42,2.39-.05,4.29,1.1,5.66,1.16,1.39,3.01,2.09,5.5,2.09,4.57,0,7.52-2.51,8.32-7.06l6.69-37.96c4.62-5.05,9.33-11.26,14.01-18.46h42.04c4.51,0,7.43-2.47,8.22-6.97.41-2.34.05-4.21-1.07-5.55-1.13-1.34-2.91-2.02-5.29-2.02h-35.56c.08-.15.14-.24.19-.3.05-.08.1-.16.14-.25,1.27-2.62,1.48-4.85.62-6.64-.79-1.67-2.42-2.81-4.84-3.38-.84-.19-1.65-.29-2.41-.29h0ZM77.5,34.62h-31.34c-4.28,0-7.04,2.35-7.8,6.6-.4,2.27-.05,4.07,1.04,5.37,1.08,1.28,2.76,1.93,5.01,1.93h15.1c-.81.63-1.56,1.19-2.25,1.68-2.86.14-4.79,1.87-5.3,4.8l-.49,2.76h-16.24c-4.39,0-7.24,2.41-8.01,6.78-.41,2.33-.05,4.18,1.06,5.5,1.1,1.31,2.83,1.98,5.14,1.98h15.54l-1.53,8.66c-.09.01-.19.03-.32.04-.2,0-.6.02-1.21.05-.63.03-1.21.04-1.72.04-.3-.01-.59-.02-.87-.02-2.56,0-4.67.55-6.24,1.63-1.41.96-3,2.88-2.63,6.53.24,2.29,1.63,6.13,8.31,6.13.17,0,.35,0,.53,0,4.67-.13,8.3-.7,11.1-1.75,2.44-.86,4.3-2.27,5.51-4.19,1.11-1.77,1.92-4.17,2.48-7.33l1.73-9.78h14.71c4.33,0,7.15-2.41,7.92-6.79.41-2.34.06-4.2-1.05-5.52-1.09-1.3-2.79-1.96-5.05-1.96h-13.09c5.12-3.68,9.62-7.77,13.38-12.19.04-.05.08-.1.12-.15,2.18-3.11,2.93-5.47,2.37-7.42-.45-1.55-1.83-3.38-5.9-3.38h0Z"/>
        </g>
        <g>
          <path class="cls-1" d="M155.09,92.91c-6.72,0-12.22-.97-16.36-2.88-3.75-1.73-6.69-4.86-8.78-9.31-2.03,3.35-4.44,6.47-7.17,9.28-1.72,1.52-3.14,2.31-4.4,2.46-.14.02-.29.02-.43.02-1.2,0-2.45-.58-3.71-1.72-1.66-1.58-2.35-3.15-2.08-4.7.26-1.45,1.32-2.93,3.25-4.52,4.43-4.67,8.07-10.9,10.82-18.52.59-1.88,1.56-3.4,2.86-4.48,1.16-.96,2.51-1.44,4.03-1.44.28,0,.56.02.85.05,1.8.2,3.07.87,3.78,1.98.78,1.22.81,2.9.11,5.01-.72,1.91-1.24,3.27-1.57,4.09.84,3.8,2.28,6.73,4.31,8.74l3.73-21.15h-15.83c-1.76,0-3.06-.49-3.87-1.44-.12-.14-.23-.29-.32-.45-.76,2.17-2.39,3.63-4.8,4.29l-5.17,1.45-3.69,20.9c-.49,2.77-1.12,4.86-1.94,6.38-.85,1.58-2.11,2.82-3.73,3.69-1.47.88-3.31,1.52-5.43,1.9-.81.14-1.61.22-2.37.22-1.29,0-2.54-.21-3.7-.62-2.07-.73-3.24-2.22-3.39-4.29-.2-2.07.25-3.74,1.33-4.93,1.26-1.38,3.34-2.08,6.2-2.08h.45c.66,0,.82-.23.91-.7l2.98-16.92c-.12.03-.25.06-.38.1-.79.2-1.28.33-1.46.39-.92.24-1.72.35-2.43.35-1.66,0-4.47-.67-4.67-5.14-.17-4.09,1.78-6.68,5.62-7.5.56-.12,1.55-.34,2.99-.67,1.07-.25,1.95-.45,2.64-.61l2.55-14.48h-3.67c-1.97,0-3.42-.54-4.31-1.6-.9-1.07-1.18-2.63-.83-4.62.69-3.9,3.08-5.96,6.93-5.96h4.02l2.06-11.69c.66-3.72,2.97-5.69,6.7-5.69,1.91,0,3.32.52,4.18,1.55.88,1.04,1.15,2.55.81,4.48l-2,11.34h2.86c1.95,0,3.4.54,4.29,1.6.91,1.09,1.19,2.67.84,4.71-.68,3.84-3.07,5.87-6.92,5.87h-3.21l-1.99,11.26,1.8-.44c.8-.2,1.53-.3,2.19-.3,1.28,0,2.29.38,3.02,1.14.32.33.58.73.77,1.2.95-2.3,2.88-3.51,5.69-3.51h45.11c1.76,0,3.06.49,3.87,1.44.81.97,1.07,2.36.75,4.14-.6,3.43-2.74,5.24-6.17,5.24h-16.99l-1.08,6.1h11.95c1.7,0,2.96.47,3.74,1.4.79.94,1.03,2.29.73,4.01-.59,3.37-2.66,5.15-5.98,5.15h-12.31l-1.54,8.71c1.73.12,3.46.18,5.17.18h11.8c.13,0,.28,0,.43,0,2.42,0,3.96.54,4.73,1.66.82,1.2.66,2.98-.48,5.44-1.34,2.95-3.79,4.45-7.26,4.45h-11.44ZM136.83,42.76c-2.11,0-3.73-.69-4.81-2.04-1.07-1.34-1.42-3.08-1.05-5.16l3.49-19.81c.36-2.02,1.27-3.69,2.72-4.95,1.46-1.27,3.23-1.91,5.27-1.91h32.96c2.1,0,3.73.68,4.84,2.03,1.11,1.35,1.48,3.09,1.11,5.18l-3.49,19.81c-.36,2.03-1.29,3.7-2.77,4.96-1.49,1.26-3.27,1.9-5.31,1.9h-32.96ZM143.51,32.12c-.08.43-.03.67.03.75.06.07.27.15.69.15h20.26c1.02,0,1.48-.4,1.66-1.42l.24-1.35h-22.55l-.33,1.88ZM167.98,21.22l.31-1.78c.08-.43.03-.67-.03-.74-.06-.07-.28-.15-.69-.15h-20.26c-1.02,0-1.48.4-1.66,1.42l-.22,1.26h22.55Z"/>
          <path class="cls-1" d="M117.73,7.09c3.24,0,4.58,1.62,4.01,4.86l-2.21,12.52h4.05c3.36,0,4.74,1.71,4.14,5.13-.59,3.36-2.57,5.04-5.93,5.04h-4.05l-2.4,13.6,3.29-.81c.73-.18,1.37-.27,1.95-.27,2.25,0,3.32,1.41,3.21,4.24-.19,3.12-1.7,5.07-4.54,5.85l-5.78,1.62-3.79,21.52c-.47,2.64-1.08,4.67-1.84,6.08-.76,1.41-1.87,2.51-3.33,3.29-1.41.84-3.12,1.44-5.14,1.8-.76.14-1.49.2-2.2.2-1.18,0-2.31-.19-3.37-.56-1.69-.6-2.61-1.74-2.73-3.42-.38-3.96,1.8-5.94,6.54-5.94h.45c1.08,0,1.71-.51,1.89-1.53l3.25-18.46c-.44.12-1.07.29-1.89.5-.82.21-1.32.35-1.51.41-.79.21-1.5.31-2.13.31-2.32,0-3.54-1.39-3.67-4.18-.15-3.6,1.47-5.76,4.83-6.48.56-.12,1.56-.34,3-.68,1.44-.33,2.53-.59,3.29-.77l2.87-16.3h-4.86c-3.36,0-4.75-1.68-4.15-5.04.6-3.42,2.58-5.13,5.95-5.13h4.86l2.21-12.52c.57-3.24,2.48-4.86,5.72-4.86M175.41,9.88c1.8,0,3.16.56,4.07,1.67.91,1.11,1.21,2.57.9,4.37l-3.49,19.81c-.32,1.8-1.13,3.26-2.44,4.37-1.31,1.11-2.86,1.67-4.66,1.67h-32.96c-1.8,0-3.14-.55-4.03-1.67-.89-1.11-1.17-2.57-.85-4.37l3.49-19.81c.32-1.8,1.11-3.26,2.39-4.37,1.28-1.11,2.81-1.67,4.62-1.67h32.96M144.24,22.22h24.58l.46-2.61c.24-1.38-.33-2.07-1.71-2.07h-20.26c-1.5,0-2.38.75-2.65,2.25l-.43,2.43M167.58,29.24h-24.58l-.48,2.7c-.24,1.38.32,2.07,1.71,2.07h20.26c1.5,0,2.38-.75,2.65-2.25l.44-2.52M175.16,45.99c2.94,0,4.15,1.47,3.63,4.41-.52,2.94-2.25,4.41-5.19,4.41h-17.83l-1.43,8.1h13.15c2.82,0,3.98,1.41,3.49,4.23-.51,2.88-2.17,4.32-4.99,4.32h-13.15l-1.87,10.63c2.13.18,4.24.27,6.35.27h11.8c.15,0,.29,0,.43,0,2.04,0,3.35.41,3.91,1.22.6.87.41,2.36-.56,4.46-1.18,2.58-3.29,3.87-6.36,3.87h-11.44c-6.6,0-11.92-.93-15.94-2.79-4.02-1.86-7.05-5.4-9.07-10.63-2.2,3.96-4.88,7.56-8.03,10.81-1.49,1.32-2.76,2.04-3.8,2.16-.1.01-.21.02-.31.02-.95,0-1.96-.49-3.03-1.46-1.39-1.32-1.98-2.58-1.76-3.78.21-1.2,1.19-2.52,2.95-3.96,4.57-4.8,8.26-11.1,11.08-18.91.55-1.74,1.4-3.09,2.56-4.05.98-.81,2.11-1.21,3.39-1.21.24,0,.49.01.74.04,3.18.36,4.2,2.25,3.05,5.67-.79,2.1-1.34,3.54-1.66,4.32,1.04,4.98,3.05,8.55,6.03,10.72l4.24-24.04h-17.02c-2.94,0-4.15-1.47-3.63-4.41.52-2.94,2.25-4.41,5.19-4.41h45.11M117.73,5.09c-4.22,0-6.95,2.31-7.69,6.52l-1.92,10.86h-3.18c-4.33,0-7.15,2.41-7.92,6.79-.4,2.3-.05,4.12,1.05,5.43,1.09,1.3,2.8,1.96,5.08,1.96h2.48l-2.23,12.65c-.57.13-1.23.29-1.99.46-1.43.33-2.41.55-2.97.67-4.32.92-6.6,3.95-6.42,8.52.24,5.51,4.04,6.1,5.67,6.1.8,0,1.68-.12,2.64-.37.03,0,.06-.02.09-.03.03,0,.11-.03.3-.08l-2.69,15.26h-.39c-3.15,0-5.49.81-6.94,2.41-1.28,1.41-1.82,3.34-1.59,5.72.18,2.42,1.62,4.25,4.05,5.11,1.27.45,2.63.68,4.04.68.82,0,1.68-.08,2.55-.23,2.22-.4,4.16-1.08,5.77-2.03,1.78-.97,3.16-2.34,4.1-4.08.87-1.62,1.54-3.8,2.05-6.68l3.58-20.28,4.57-1.28c2.18-.6,3.8-1.77,4.81-3.47.97.74,2.28,1.11,3.91,1.11h1.44c-.52.25-1.02.57-1.49.96-1.45,1.2-2.52,2.87-3.18,4.95-2.69,7.44-6.24,13.52-10.55,18.09-2.09,1.74-3.26,3.4-3.55,5.08-.33,1.9.46,3.77,2.35,5.58,1.48,1.34,2.95,2.01,4.41,2.01.18,0,.36-.01.54-.03,1.48-.17,3.08-1.04,4.9-2.65.04-.03.07-.07.11-.1,2.37-2.44,4.5-5.1,6.37-7.95,2.12,3.83,4.96,6.58,8.46,8.19,4.27,1.98,9.92,2.98,16.78,2.98h11.44c3.85,0,6.67-1.74,8.18-5.04.47-1.03,1.93-4.17.39-6.42-.97-1.41-2.78-2.09-5.56-2.09-.15,0-.3,0-.45,0h-11.77c-1.32,0-2.65-.04-3.99-.11l1.2-6.78h11.47c3.81,0,6.28-2.12,6.96-5.97.36-2.02.04-3.65-.95-4.82-.98-1.17-2.49-1.76-4.51-1.76h-10.76l.72-4.1h16.15c3.93,0,6.47-2.15,7.16-6.06.37-2.08.04-3.75-.97-4.96-1-1.2-2.56-1.8-4.63-1.8h-45.11c-2.54,0-4.5.9-5.75,2.59-.64-.66-1.8-1.43-3.72-1.43-.73,0-1.55.11-2.44.33l-.3.07,1.57-8.92h2.37c4.33,0,7.14-2.38,7.9-6.7.41-2.34.06-4.2-1.05-5.52-1.09-1.3-2.79-1.96-5.05-1.96h-1.67l1.79-10.17c.39-2.24.05-4.02-1.03-5.3-1.06-1.27-2.73-1.91-4.95-1.91h0ZM136.53,56.81h6.6l-3.15,17.87c-1.17-1.67-2.06-3.8-2.65-6.38.33-.83.81-2.08,1.45-3.79,0-.02.02-.05.03-.07.8-2.41.73-4.38-.21-5.86-.49-.77-1.18-1.36-2.06-1.78h0ZM175.41,7.88h-32.96c-2.29,0-4.28.73-5.93,2.16-1.63,1.42-2.65,3.28-3.05,5.53l-3.49,19.81c-.42,2.38,0,4.39,1.26,5.96.88,1.1,2.56,2.42,5.59,2.42h32.96c2.28,0,4.28-.72,5.96-2.14,1.66-1.41,2.71-3.28,3.11-5.54l3.49-19.81c.42-2.39-.02-4.41-1.32-5.98-1.31-1.59-3.2-2.4-5.62-2.4h0ZM146.62,20.22v-.08c.12-.58.2-.6.69-.6h19.95l-.12.68h-20.52ZM144.68,31.24h20.52l-.03.17c-.1.58-.19.6-.68.6h-19.95l.14-.77h0Z"/>
        </g>
        <g>
          <path class="cls-1" d="M207.11,87.42c-7.66,0-13.67-2.58-17.85-7.66-4.18-5.08-5.54-11.98-4.03-20.53,1.45-8.23,5.13-15.03,10.94-20.2,5.82-5.19,12.18-7.82,18.88-7.82,7.23,0,12.49,2.46,15.62,7.3,3.07,4.76,3.95,11.03,2.61,18.64-.2,1.15-.5,2.48-.88,3.95,0,.03-.02.07-.03.1-.3.81-.91,1.5-1.8,2.07-.87.55-1.8.83-2.77.83h-28.11c0,3.38.91,6.04,2.69,7.9,1.98,2.06,4.71,3.07,8.36,3.07,2.16,0,4.55-.47,7.12-1.38,1.15-.53,2.27-.82,3.26-.82,1.46,0,3.42.62,4.48,3.59,1.07,3.2,0,5.73-3.09,7.34-5.12,2.41-10.29,3.62-15.4,3.62ZM220.32,53.18c.4-2.93.07-5.24-.98-6.88-1.11-1.72-3.06-2.56-5.97-2.56-2.57,0-5.02.92-7.28,2.75-1.99,1.61-3.53,3.85-4.6,6.69h18.82Z"/>
          <path class="cls-1" d="M215.05,32.21c6.9,0,11.83,2.28,14.78,6.84,2.95,4.56,3.77,10.54,2.47,17.92-.2,1.14-.49,2.43-.86,3.87-.23.6-.69,1.13-1.4,1.58s-1.46.68-2.24.68h-29.08c-.19,4.14.79,7.34,2.95,9.59,2.15,2.25,5.18,3.38,9.08,3.38,2.28,0,4.77-.48,7.46-1.44,1.1-.51,2.08-.76,2.93-.76,1.67,0,2.84.97,3.53,2.92.9,2.7.03,4.74-2.61,6.12-4.98,2.34-9.95,3.51-14.94,3.51-7.38,0-13.08-2.43-17.08-7.29-4-4.86-5.28-11.44-3.82-19.72,1.42-8.04,4.96-14.59,10.62-19.63,5.66-5.04,11.73-7.56,18.22-7.56M200.1,54.18h21.07c.64-3.6.3-6.41-.99-8.42-1.3-2.01-3.57-3.02-6.81-3.02-2.82,0-5.46.99-7.91,2.97-2.45,1.98-4.24,4.8-5.36,8.46M215.05,30.21c-6.96,0-13.53,2.72-19.55,8.07-5.98,5.33-9.77,12.32-11.26,20.78-1.56,8.85-.13,16.03,4.24,21.34,4.38,5.32,10.65,8.02,18.63,8.02,5.25,0,10.57-1.25,15.79-3.7.02-.01.05-.02.07-.04,3.53-1.84,4.8-4.87,3.58-8.53-1.32-3.73-3.97-4.29-5.43-4.29-1.13,0-2.33.3-3.68.9-2.43.86-4.69,1.3-6.71,1.3-3.36,0-5.86-.9-7.64-2.76-1.45-1.51-2.23-3.55-2.39-6.21h27.08c1.16,0,2.27-.33,3.31-.99,1.08-.69,1.82-1.55,2.2-2.56.03-.07.05-.14.06-.2.39-1.49.69-2.85.9-4.03,1.39-7.86.46-14.37-2.76-19.35-3.33-5.15-8.86-7.76-16.46-7.76h0ZM203,52.18c.95-2.03,2.2-3.68,3.72-4.91,2.1-1.7,4.28-2.53,6.65-2.53,2.54,0,4.21.69,5.13,2.1.82,1.27,1.13,3.06.93,5.33h-16.42Z"/>
        </g>
        <g>
          <path class="cls-1" d="M261.78,93.99c-4.83,0-7.67-1.69-8.42-5.01-.83-3.37.59-5.15,1.93-6.05,1.57-1.05,3.7-1.58,6.34-1.58.29,0,.59,0,.9.02h6.71c1.06-.06,1.59-.28,1.83-.45.36-.25.52-.82.6-1.25l2.41-13.68h-29.51c-2.09,0-3.62-.57-4.56-1.69-.95-1.13-1.24-2.78-.87-4.89.71-4.02,3.24-6.14,7.32-6.14h29.87l1.55-8.81h-23.48c-2.03,0-3.52-.55-4.44-1.64-.93-1.1-1.21-2.7-.85-4.75.71-4.02,3.18-6.14,7.14-6.14h23.83l1.52-8.62c-8.04.61-15.6,1.09-22.51,1.43-.17,0-.32,0-.47,0-1.65,0-2.94-.36-3.83-1.08-1-.8-1.61-2.11-1.79-3.88-.2-1.95.21-3.53,1.21-4.69,1.15-1.33,3.08-2.06,5.71-2.17,22-1.13,39.89-3.21,53.14-6.19.71-.19,1.39-.28,2-.28.72,0,1.36.14,1.9.41.94.48,1.81,1.34,2.68,2.63,1.52,2.21,1.98,4.14,1.36,5.71-.65,1.64-2.35,2.75-5.2,3.38-7.2,1.39-14.17,2.46-20.73,3.18l-1.79,10.15h24.29c2.01,0,3.5.55,4.41,1.64.94,1.12,1.23,2.75.86,4.84-.7,3.96-3.16,6.05-7.13,6.05h-24.64l-1.55,8.81h29.51c2.1,0,3.65.57,4.59,1.69.94,1.12,1.23,2.73.87,4.8-.72,4.08-3.26,6.23-7.34,6.23h-29.87l-2.51,14.21c-.61,3.48-1.52,6.04-2.78,7.83-1.28,1.81-3.19,3.19-5.68,4.1-3.15,1.13-7.89,1.74-14.51,1.86h-.02Z"/>
          <path class="cls-1" d="M315.07,7.46c.57,0,1.05.1,1.45.3.77.39,1.54,1.16,2.3,2.3,2.72,3.96,1.65,6.48-3.22,7.56-7.46,1.44-14.58,2.52-21.37,3.24l-2.13,12.07h25.48c3.48,0,4.91,1.77,4.29,5.31-.61,3.48-2.66,5.22-6.14,5.22h-25.48l-1.91,10.81h30.71c3.6,0,5.09,1.77,4.47,5.31-.64,3.6-2.75,5.4-6.36,5.4h-30.71l-2.65,15.04c-.58,3.3-1.45,5.78-2.62,7.43-1.16,1.65-2.9,2.9-5.21,3.74-3.01,1.08-7.74,1.68-14.18,1.8-4.32,0-6.81-1.41-7.45-4.23-.56-2.28-.06-3.95,1.51-5,1.41-.94,3.33-1.41,5.78-1.41.28,0,.56,0,.86.02h6.75c1.09-.06,1.89-.27,2.41-.63s.85-.99,1.01-1.89l2.62-14.86h-30.71c-3.6,0-5.08-1.8-4.45-5.4.62-3.54,2.74-5.31,6.34-5.31h30.71l1.91-10.81h-24.67c-3.48,0-4.92-1.74-4.3-5.22.62-3.54,2.68-5.31,6.16-5.31h24.67l1.89-10.72c-8.58.66-16.5,1.17-23.77,1.53-.14,0-.28,0-.42,0-1.42,0-2.49-.29-3.21-.86-.79-.63-1.26-1.7-1.42-3.2-.38-3.66,1.61-5.58,5.97-5.76,22.17-1.14,39.94-3.21,53.32-6.21.66-.17,1.26-.26,1.78-.26M315.07,5.46c-.68,0-1.44.11-2.25.31-13.2,2.96-31.02,5.03-52.95,6.16-2.9.12-5.06.97-6.41,2.52-1.19,1.38-1.68,3.21-1.45,5.45.21,2.05.94,3.58,2.16,4.56,1.08.86,2.58,1.3,4.46,1.3.16,0,.33,0,.49,0,6.57-.33,13.71-.78,21.28-1.34l-1.15,6.53h-22.99c-4.45,0-7.34,2.47-8.13,6.97-.42,2.36-.06,4.23,1.07,5.57,1.11,1.33,2.86,2,5.2,2h22.29l-1.2,6.81h-29.03c-4.57,0-7.52,2.47-8.31,6.97-.43,2.42-.06,4.34,1.09,5.71,1.14,1.36,2.93,2.04,5.33,2.04h28.32l-2.21,12.51c-.07.4-.17.58-.21.62t0,0s-.3.19-1.3.25h-6.66c-.31-.01-.6-.02-.9-.02-2.84,0-5.16.59-6.9,1.75-1.31.88-3.36,2.98-2.34,7.13.59,2.61,2.71,5.76,9.39,5.76,6.76-.13,11.61-.75,14.86-1.92,2.7-.98,4.77-2.49,6.17-4.47,1.35-1.92,2.31-4.61,2.95-8.23l2.36-13.38h29.03c4.57,0,7.52-2.51,8.32-7.06.42-2.37.05-4.26-1.08-5.61-1.14-1.36-2.94-2.04-5.35-2.04h-28.32l1.2-6.81h23.8c4.45,0,7.33-2.44,8.11-6.88.42-2.4.06-4.3-1.08-5.66-1.11-1.33-2.86-2-5.18-2h-23.1l1.45-8.24c6.38-.72,13.11-1.76,20.04-3.1.02,0,.04,0,.05-.01,3.16-.7,5.15-2.04,5.92-3.99.75-1.9.25-4.14-1.48-6.66-.95-1.42-1.95-2.39-3.04-2.95-.69-.35-1.48-.52-2.36-.52h0Z"/>
        </g>
        <g>
          <path class="cls-1" d="M356.01,94.26c-4.66,0-6.18-2.12-6.63-3.91-.72-2.8.39-4.23,1.45-4.95,1.25-.85,2.99-1.26,5.31-1.26.17,0,.34,0,.51,0,1.28.06,2.34.09,3.18.09s1.41-.03,1.79-.08c1.56-.07,1.67-.69,1.72-.98l.24-1.35h-30.23c-1.48,0-2.58-.42-3.27-1.24-.71-.85-.93-2.07-.66-3.62.51-2.9,2.32-4.43,5.22-4.43h30.59l.33-1.87h-24.83c-1.48,0-2.58-.42-3.28-1.24-.71-.85-.93-2.07-.66-3.62.51-2.9,2.32-4.43,5.22-4.43h25.18l.24-1.38c-6.61.22-12.5.33-17.52.33-1.09,0-2.14,0-3.15-.02-3.7,0-4.43-2.39-4.53-3.81-.11-1.54.26-2.77,1.08-3.65.92-.98,2.37-1.48,4.32-1.48,16.51-.18,30.3-.78,41.17-1.78h-32.58c-2.1,0-3.73-.66-4.84-1.97-1.12-1.31-1.5-3.04-1.13-5.14l1.05-5.94c.36-2.03,1.29-3.69,2.77-4.92,1.48-1.23,3.26-1.85,5.29-1.85h39.08c2.1,0,3.73.66,4.84,1.97,1.12,1.31,1.5,3.04,1.13,5.14l-1.05,5.94c-.36,2.03-1.29,3.69-2.77,4.92-.32.27-.66.51-1.01.72,1.22.13,2.32.78,3.27,1.93,1.58,1.83,2.12,3.35,1.64,4.65-.48,1.3-1.89,2.11-4.31,2.47-6.12.76-12.86,1.38-20.07,1.85l-.36,2.01h25.55c1.49,0,2.6.42,3.3,1.24.7.83.92,2.02.65,3.53-.52,2.96-2.33,4.52-5.24,4.52h-25.9l-.33,1.87h30.32c1.45,0,2.53.41,3.21,1.22.7.83.92,2.03.65,3.55-.52,2.96-2.3,4.52-5.15,4.52h-30.68l-.36,2.06c-.46,2.61-1.23,4.63-2.3,6.02-1.1,1.42-2.78,2.48-5.01,3.14-2.46.69-6.52,1.09-12.45,1.21h-.02ZM364.51,38.43c-1.02,0-1.48.37-1.65,1.33l-.08.45c-.08.48-.02.71.03.77.04.05.21.13.6.13h26.2c1.02,0,1.48-.4,1.66-1.42l.08-.45c.07-.41.02-.6-.03-.66-.05-.06-.25-.15-.71-.15h-26.11ZM412.1,39.7c-2.07,0-3.6-.56-4.52-1.66-.93-1.1-1.21-2.7-.85-4.73l.73-4.14c.08-.45.03-.7-.05-.79-.08-.1-.34-.2-.84-.2h-54.12c-1.02,0-1.48.37-1.65,1.33l-.76,4.32c-.68,3.84-3.07,5.87-6.92,5.87-1.97,0-3.42-.54-4.31-1.6-.9-1.07-1.18-2.63-.83-4.62l1.67-9.45c.36-2.03,1.27-3.68,2.72-4.91,1.45-1.23,3.22-1.86,5.26-1.86h6.01c-.34-.96-.73-1.97-1.19-3.01-.69-1.27-.85-2.51-.44-3.6.46-1.22,1.62-2.19,3.45-2.87l1.26-.45c.77-.28,1.53-.42,2.26-.42.91,0,1.8.22,2.62.66,1.41.76,2.52,1.9,3.27,3.4.79,1.38,1.01,2.93.61,4.56-.16.65-.41,1.23-.77,1.74h10.09l.89-5.03c.72-4.07,3.26-6.23,7.34-6.23,2.09,0,3.62.57,4.56,1.69.95,1.13,1.24,2.78.87,4.89l-.83,4.68h8.56c-.26-.33-.37-.67-.42-.96-.09-.56,0-1.4.98-2.22,1.51-1.48,2.76-2.79,3.64-3.84,1.88-2.27,4.02-3.43,6.36-3.43.81,0,1.65.14,2.49.42,2.18.65,3.46,1.7,3.78,3.11.39,1.73-.73,3.74-3.41,6.15-.33.28-.63.54-.92.78h6.29c2.11,0,3.72.67,4.81,1.98,1.08,1.31,1.44,3.04,1.07,5.13l-1.64,9.27c-.7,3.96-3.16,6.05-7.13,6.05Z"/>
          <path class="cls-1" d="M383.02,7c3.6,0,5.08,1.8,4.45,5.4l-1.03,5.85h13.87l-2.51-1.08c-.62-.24-.96-.59-1.03-1.04-.07-.45.14-.88.64-1.31,1.59-1.56,2.85-2.88,3.76-3.96,1.7-2.05,3.56-3.07,5.59-3.07.71,0,1.43.12,2.18.37,4.22,1.26,4.22,3.78.02,7.56-1.41,1.2-2.43,2.04-3.06,2.52h9.09c1.8,0,3.15.54,4.04,1.62.89,1.08,1.18,2.52.86,4.32l-1.64,9.27c-.61,3.48-2.66,5.22-6.14,5.22s-5.01-1.74-4.39-5.22l.73-4.14c.25-1.44-.37-2.16-1.87-2.16h-54.12c-1.5,0-2.38.72-2.63,2.16l-.76,4.32c-.59,3.36-2.57,5.04-5.93,5.04s-4.75-1.68-4.15-5.04l1.67-9.45c.32-1.8,1.11-3.24,2.38-4.32s2.81-1.62,4.61-1.62h7.38c-.42-1.38-.97-2.85-1.65-4.41-1.27-2.34-.46-4.05,2.44-5.13l1.25-.45c.66-.24,1.3-.36,1.92-.36.75,0,1.47.18,2.15.54,1.23.66,2.18,1.65,2.85,2.97.69,1.2.87,2.49.53,3.87-.33,1.38-1.21,2.34-2.62,2.88l-.2.09h13.96l1.03-5.85c.64-3.6,2.75-5.4,6.36-5.4M398.46,30.77c1.8,0,3.16.54,4.08,1.62.92,1.08,1.22,2.52.9,4.32l-1.05,5.94c-.32,1.8-1.13,3.24-2.43,4.32-1.3,1.08-2.85,1.62-4.65,1.62h-39.08c-1.8,0-3.16-.54-4.08-1.62-.92-1.08-1.22-2.52-.9-4.32l1.05-5.94c.32-1.8,1.13-3.24,2.43-4.32,1.3-1.08,2.85-1.62,4.65-1.62h39.08M363.41,42.12h26.2c1.5,0,2.38-.75,2.65-2.25l.08-.45c.23-1.32-.34-1.98-1.72-1.98h-26.11c-1.5,0-2.38.72-2.63,2.16l-.08.45c-.24,1.38.29,2.07,1.62,2.07M399.13,49.44c1.1,0,2.09.53,2.96,1.59,2.64,3.06,1.96,4.89-2.05,5.49-6.32.78-13.25,1.41-20.77,1.89l-.7,3.96h26.74c2.4,0,3.39,1.2,2.97,3.6-.43,2.46-1.85,3.69-4.25,3.69h-26.74l-.68,3.87h31.52c2.34,0,3.3,1.2,2.88,3.6-.43,2.46-1.82,3.69-4.16,3.69h-31.52l-.51,2.88c-.43,2.46-1.14,4.32-2.11,5.58-.97,1.26-2.47,2.19-4.5,2.79-2.34.66-6.4,1.05-12.18,1.17-3.24,0-5.13-1.05-5.66-3.15-.46-1.8-.12-3.09,1.04-3.87,1.08-.73,2.66-1.09,4.75-1.09.16,0,.32,0,.49,0,1.28.06,2.35.09,3.2.09s1.5-.03,1.93-.09c1.51-.06,2.37-.66,2.57-1.8l.44-2.52h-31.43c-2.4,0-3.38-1.23-2.95-3.69.42-2.4,1.83-3.6,4.24-3.6h31.43l.68-3.87h-26.02c-2.4,0-3.39-1.23-2.95-3.69.42-2.4,1.83-3.6,4.24-3.6h26.02l.6-3.42c-7.14.25-13.38.38-18.72.38-1.08,0-2.12,0-3.13-.02-2.22,0-3.4-.96-3.54-2.88-.18-2.7,1.28-4.05,4.41-4.05,21.95-.24,38.9-1.2,50.84-2.88.22-.04.43-.06.64-.06M383.02,5c-4.57,0-7.52,2.51-8.32,7.06l-.74,4.2h-7.66c.05-.16.1-.33.14-.5.45-1.87.21-3.65-.72-5.29-.85-1.66-2.09-2.94-3.67-3.79-.97-.52-2.01-.78-3.09-.78-.85,0-1.72.16-2.61.49l-1.24.45c-2.13.8-3.49,1.96-4.05,3.47-.51,1.35-.34,2.84.5,4.42.23.52.44,1.04.64,1.54h-4.57c-2.28,0-4.27.71-5.9,2.1-1.63,1.39-2.66,3.24-3.06,5.5l-1.67,9.46c-.4,2.3-.05,4.12,1.05,5.43,1.09,1.3,2.8,1.96,5.08,1.96,3.47,0,5.96-1.53,7.21-4.35,0,0,0,.02,0,.02l-1.05,5.94c-.42,2.41.03,4.42,1.35,5.97.84.98,1.9,1.66,3.19,2.02-2.02.04-4.09.07-6.2.09-2.22,0-3.92.6-5.03,1.8-1.02,1.09-1.47,2.57-1.35,4.39.12,1.69.85,3,2.05,3.81h-1.28c-3.36,0-5.62,1.92-6.21,5.25-.33,1.86-.03,3.35.88,4.44.64.76,1.52,1.26,2.63,1.47h-4.67c-3.36,0-5.62,1.92-6.21,5.25-.33,1.86-.03,3.35.88,4.44.89,1.06,2.25,1.6,4.04,1.6h29.04l-.03.17s0,.03,0,.03c-.08.04-.3.1-.67.11-.07,0-.13,0-.2.02-.23.03-.71.07-1.66.07-.82,0-1.87-.03-3.11-.09-.22,0-.4,0-.58,0-2.52,0-4.44.47-5.87,1.43-1.08.73-2.77,2.49-1.86,6.03.53,2.12,2.29,4.65,7.59,4.65,6.05-.13,10.2-.53,12.73-1.25,2.45-.73,4.31-1.9,5.54-3.49,1.19-1.54,2-3.65,2.5-6.46l.22-1.23h29.84c3.3,0,5.53-1.95,6.13-5.34.32-1.83.03-3.3-.87-4.37-.88-1.05-2.22-1.58-3.98-1.58h-2.66c2.57-.48,4.29-2.33,4.8-5.22.32-1.81.03-3.28-.87-4.35-.89-1.06-2.26-1.6-4.06-1.6h-24.36v-.07c6.95-.47,13.45-1.07,19.33-1.8.02,0,.03,0,.05,0,1.03-.15,4.18-.62,5.1-3.11.92-2.48-1.15-4.88-1.83-5.67-.62-.75-1.27-1.27-1.9-1.61,1.41-1.34,2.3-3.05,2.66-5.11l1.05-5.94c.42-2.41-.03-4.41-1.35-5.97-.77-.91-1.74-1.55-2.9-1.93h5.27l-.7,3.96c-.41,2.34-.05,4.21,1.07,5.55,1.13,1.34,2.91,2.02,5.29,2.02,4.45,0,7.33-2.44,8.11-6.88l1.64-9.27c.42-2.39-.01-4.39-1.28-5.94-1.28-1.56-3.16-2.35-5.58-2.35h-3.68c1.64-1.65,3.22-3.82,2.7-6.14-.4-1.78-1.9-3.08-4.47-3.85-.94-.31-1.87-.46-2.78-.46-2.64,0-5.04,1.28-7.13,3.8-.85,1-2.05,2.27-3.58,3.77-1.21,1.06-1.34,2.2-1.28,2.89h-5.94l.62-3.51c.43-2.42.06-4.34-1.09-5.71-1.14-1.36-2.93-2.04-5.33-2.04h0ZM351.01,34.08s0-.05.01-.08l.76-4.32c.08-.44.09-.51.66-.51h4.12c-1.14.34-2.18.91-3.12,1.68-1.07.89-1.88,1.97-2.44,3.22h0ZM363.81,40.12l.03-.17c.08-.44.09-.51.66-.51h25.8v.08c-.12.58-.2.6-.69.6h-25.8Z"/>
        </g>
      </g>
      <g>
        <g>
          <path class="cls-3" d="M42.75,89.09c-5.6,0-7.07-2.84-7.32-5.23-.26-2.54.48-4.43,2.2-5.61,1.41-.97,3.32-1.46,5.68-1.46.28,0,.57,0,.87.02.48,0,1.08-.01,1.76-.04.72-.03,1.14-.05,1.27-.05.72-.06.98-.19,1.03-.22h0s.08-.12.14-.49l1.76-9.99h-16.73c-2,0-3.47-.55-4.37-1.62-.91-1.09-1.2-2.67-.84-4.69.69-3.9,3.12-5.96,7.02-5.96h17.08l.63-3.59c.45-2.55,2.1-3.96,4.65-3.98,1.34-.94,2.94-2.17,4.77-3.67h-17.95c-1.94,0-3.37-.53-4.25-1.58-.89-1.06-1.16-2.59-.82-4.55.67-3.78,3.02-5.78,6.81-5.78h31.34c2.77,0,4.43.89,4.94,2.66.46,1.61-.27,3.76-2.23,6.57-4.1,4.82-9,9.2-14.64,13.07l-.15.84h15.2c1.95,0,3.4.54,4.29,1.6.91,1.09,1.19,2.67.84,4.71-.69,3.9-3.08,5.96-6.93,5.96h-15.55l-1.87,10.61c-.53,2.99-1.32,5.34-2.34,6.98-1.08,1.72-2.77,3-5.03,3.79-2.64.99-6.27,1.55-10.77,1.68-.17,0-.34,0-.5,0ZM13.44,88.99c-2.18,0-3.77-.58-4.74-1.73-.95-1.13-1.25-2.76-.88-4.85l4.16-23.58c-.24.19-.5.39-.77.6-2.06,1.36-3.75,2-5.23,2-1.51,0-3.54-.7-4.62-4.02-1.12-3.78.3-7,4.23-9.61,7.79-5.68,14.98-13.18,21.36-22.3h-13.05c-2.06,0-3.57-.56-4.5-1.66-.94-1.12-1.23-2.74-.86-4.82.7-3.96,3.19-6.05,7.22-6.05h18.95c1.18-2.16,2.18-4.15,2.99-5.9,1.46-3.29,3.75-4.96,6.8-4.96.69,0,1.42.09,2.18.26,2.11.5,3.51,1.45,4.17,2.84.72,1.5.51,3.45-.62,5.78-.02.04-.05.08-.07.12-.15.22-.42.68-.86,1.59-.05.09-.09.19-.14.28h37.2c2.07,0,3.59.56,4.52,1.67.93,1.1,1.21,2.7.85,4.73-.71,4.02-3.21,6.14-7.23,6.14h-42.59c-4.81,7.46-9.66,13.85-14.4,19l-6.74,38.25c-.72,4.08-3.26,6.23-7.34,6.23Z"/>
          <path class="cls-1" d="M44.51,3.11c.61,0,1.27.08,1.95.24,3.8.9,4.76,3.3,2.87,7.2-.24.36-.56.93-.93,1.71-.38.78-.69,1.35-.93,1.71h38.9c3.54,0,5.01,1.74,4.39,5.22-.62,3.54-2.71,5.31-6.25,5.31h-43.13c-4.97,7.74-9.9,14.26-14.79,19.54l-6.8,38.54c-.64,3.6-2.75,5.4-6.36,5.4s-5.27-1.8-4.63-5.4l4.62-26.2c-.64.54-1.58,1.29-2.83,2.25-1.81,1.2-3.35,1.79-4.62,1.79-1.73,0-2.95-1.11-3.66-3.32-.98-3.3.3-6.12,3.83-8.46,8.4-6.12,15.97-14.17,22.71-24.13h-14.95c-3.54,0-5-1.77-4.38-5.31.61-3.48,2.69-5.22,6.23-5.22h19.54c1.32-2.4,2.43-4.56,3.3-6.48,1.29-2.92,3.26-4.38,5.89-4.38M77.5,31.62c2.28,0,3.61.65,3.98,1.94.37,1.29-.32,3.2-2.09,5.72-4.09,4.8-9,9.16-14.73,13.06l-.43,2.43h16.39c3.36,0,4.74,1.71,4.14,5.13-.6,3.42-2.59,5.13-5.95,5.13h-16.39l-2.02,11.44c-.51,2.88-1.24,5.09-2.2,6.62-.96,1.53-2.47,2.66-4.51,3.38-2.57.96-6.06,1.5-10.46,1.62-.16,0-.32,0-.48,0-3.92,0-6.03-1.44-6.33-4.33-.22-2.16.37-3.72,1.77-4.68,1.24-.85,2.95-1.28,5.11-1.28.27,0,.55,0,.83.02.54,0,1.16-.01,1.85-.05.69-.03,1.1-.04,1.22-.04.73-.06,1.25-.18,1.55-.36.3-.18.51-.57.61-1.17l1.97-11.17h-17.92c-3.42,0-4.83-1.71-4.23-5.13.6-3.42,2.62-5.13,6.04-5.13h17.92l.78-4.41c.37-2.1,1.61-3.15,3.71-3.15h.27c1.91-1.32,4.32-3.21,7.21-5.67h-20.71c-3.3,0-4.66-1.65-4.08-4.95.58-3.3,2.52-4.95,5.83-4.95h31.34M44.51,1.11c-2.4,0-5.68.97-7.72,5.57-.72,1.57-1.61,3.35-2.66,5.29H15.78c-4.51,0-7.42,2.44-8.2,6.88-.42,2.39-.06,4.28,1.08,5.64,1.13,1.34,2.9,2.02,5.27,2.02h11.11c-6.02,8.3-12.74,15.19-20.02,20.49C-.36,50.57-.46,54.78.4,57.68c1.34,4.14,4.07,4.75,5.58,4.75,1.39,0,2.9-.47,4.6-1.44l-3.75,21.25c-.42,2.39-.05,4.29,1.1,5.66,1.16,1.39,3.01,2.09,5.5,2.09,4.57,0,7.52-2.51,8.32-7.06l6.69-37.96c4.62-5.05,9.33-11.26,14.01-18.46h42.04c4.51,0,7.43-2.47,8.22-6.97.41-2.34.05-4.21-1.07-5.55-1.13-1.34-2.91-2.02-5.29-2.02h-35.56c.08-.15.14-.24.19-.3.05-.08.1-.16.14-.25,1.27-2.62,1.48-4.85.62-6.64-.79-1.67-2.42-2.81-4.84-3.38-.84-.19-1.65-.29-2.41-.29h0ZM77.5,29.62h-31.34c-4.28,0-7.04,2.35-7.8,6.6-.4,2.27-.05,4.07,1.04,5.37,1.08,1.28,2.76,1.93,5.01,1.93h15.1c-.81.63-1.56,1.19-2.25,1.68-2.86.14-4.79,1.87-5.3,4.8l-.49,2.76h-16.24c-4.39,0-7.24,2.41-8.01,6.78-.41,2.33-.05,4.18,1.06,5.5,1.1,1.31,2.83,1.98,5.14,1.98h15.54l-1.53,8.66c-.09.01-.19.03-.32.04-.2,0-.6.02-1.21.05-.63.03-1.21.04-1.72.04-.3-.01-.59-.02-.87-.02-2.56,0-4.67.55-6.24,1.63-1.41.96-3,2.88-2.63,6.53.24,2.29,1.63,6.13,8.31,6.13.17,0,.35,0,.53,0,4.67-.13,8.3-.7,11.1-1.75,2.44-.86,4.3-2.27,5.51-4.19,1.11-1.77,1.92-4.17,2.48-7.33l1.73-9.78h14.71c4.33,0,7.15-2.41,7.92-6.79.41-2.34.06-4.2-1.05-5.52-1.09-1.3-2.79-1.96-5.05-1.96h-13.09c5.12-3.68,9.62-7.77,13.38-12.19.04-.05.08-.1.12-.15,2.18-3.11,2.93-5.47,2.37-7.42-.45-1.55-1.83-3.38-5.9-3.38h0Z"/>
        </g>
        <g>
          <path class="cls-3" d="M155.09,87.91c-6.72,0-12.22-.97-16.36-2.88-3.75-1.73-6.69-4.86-8.78-9.31-2.03,3.35-4.44,6.47-7.17,9.28-1.72,1.52-3.14,2.31-4.4,2.46-.14.02-.29.02-.43.02-1.2,0-2.45-.58-3.71-1.72-1.66-1.58-2.35-3.15-2.08-4.7.26-1.45,1.32-2.93,3.25-4.52,4.43-4.67,8.07-10.9,10.82-18.52.59-1.88,1.56-3.4,2.86-4.48,1.16-.96,2.51-1.44,4.03-1.44.28,0,.56.02.85.05,1.8.2,3.07.87,3.78,1.98.78,1.22.81,2.9.11,5.01-.72,1.91-1.24,3.27-1.57,4.09.84,3.8,2.28,6.73,4.31,8.74l3.73-21.15h-15.83c-1.76,0-3.06-.49-3.87-1.44-.12-.14-.23-.29-.32-.45-.76,2.17-2.39,3.63-4.8,4.29l-5.17,1.45-3.69,20.9c-.49,2.77-1.12,4.86-1.94,6.38-.85,1.58-2.11,2.82-3.73,3.69-1.47.88-3.31,1.52-5.43,1.9-.81.14-1.61.22-2.37.22-1.29,0-2.54-.21-3.7-.62-2.07-.73-3.24-2.22-3.39-4.29-.2-2.07.25-3.74,1.33-4.93,1.26-1.38,3.34-2.08,6.2-2.08h.45c.66,0,.82-.23.91-.7l2.98-16.92c-.12.03-.25.06-.38.1-.79.2-1.28.33-1.46.39-.92.24-1.72.35-2.43.35-1.66,0-4.47-.67-4.67-5.14-.17-4.09,1.78-6.68,5.62-7.5.56-.12,1.55-.34,2.99-.67,1.07-.25,1.95-.45,2.64-.61l2.55-14.48h-3.67c-1.97,0-3.42-.54-4.31-1.6-.9-1.07-1.18-2.63-.83-4.62.69-3.9,3.08-5.96,6.93-5.96h4.02l2.06-11.69c.66-3.72,2.97-5.69,6.7-5.69,1.91,0,3.32.52,4.18,1.55.88,1.04,1.15,2.55.81,4.48l-2,11.34h2.86c1.95,0,3.4.54,4.29,1.6.91,1.09,1.19,2.67.84,4.71-.68,3.84-3.07,5.87-6.92,5.87h-3.21l-1.99,11.26,1.8-.44c.8-.2,1.53-.3,2.19-.3,1.28,0,2.29.38,3.02,1.14.32.33.58.73.77,1.2.95-2.3,2.88-3.51,5.69-3.51h45.11c1.76,0,3.06.49,3.87,1.44.81.97,1.07,2.36.75,4.14-.6,3.43-2.74,5.24-6.17,5.24h-16.99l-1.08,6.1h11.95c1.7,0,2.96.47,3.74,1.4.79.94,1.03,2.29.73,4.01-.59,3.37-2.66,5.15-5.98,5.15h-12.31l-1.54,8.71c1.73.12,3.46.18,5.17.18h11.8c.13,0,.28,0,.43,0,2.42,0,3.96.54,4.73,1.66.82,1.2.66,2.98-.48,5.44-1.34,2.95-3.79,4.45-7.26,4.45h-11.44ZM136.83,37.76c-2.11,0-3.73-.69-4.81-2.04-1.07-1.34-1.42-3.08-1.05-5.16l3.49-19.81c.36-2.02,1.27-3.69,2.72-4.95,1.46-1.27,3.23-1.91,5.27-1.91h32.96c2.1,0,3.73.68,4.84,2.03,1.11,1.35,1.48,3.09,1.11,5.18l-3.49,19.81c-.36,2.03-1.29,3.7-2.77,4.96-1.49,1.26-3.27,1.9-5.31,1.9h-32.96ZM143.51,27.12c-.08.43-.03.67.03.75.06.07.27.15.69.15h20.26c1.02,0,1.48-.4,1.66-1.42l.24-1.35h-22.55l-.33,1.88ZM167.98,16.22l.31-1.78c.08-.43.03-.67-.03-.74-.06-.07-.28-.15-.69-.15h-20.26c-1.02,0-1.48.4-1.66,1.42l-.22,1.26h22.55Z"/>
          <path class="cls-1" d="M117.73,2.09c3.24,0,4.58,1.62,4.01,4.86l-2.21,12.52h4.05c3.36,0,4.74,1.71,4.14,5.13-.59,3.36-2.57,5.04-5.93,5.04h-4.05l-2.4,13.6,3.29-.81c.73-.18,1.37-.27,1.95-.27,2.25,0,3.32,1.41,3.21,4.24-.19,3.12-1.7,5.07-4.54,5.85l-5.78,1.62-3.79,21.52c-.47,2.64-1.08,4.67-1.84,6.08-.76,1.41-1.87,2.51-3.33,3.29-1.41.84-3.12,1.44-5.14,1.8-.76.14-1.49.2-2.2.2-1.18,0-2.31-.19-3.37-.56-1.69-.6-2.61-1.74-2.73-3.42-.38-3.96,1.8-5.94,6.54-5.94h.45c1.08,0,1.71-.51,1.89-1.53l3.25-18.46c-.44.12-1.07.29-1.89.5-.82.21-1.32.35-1.51.41-.79.21-1.5.31-2.13.31-2.32,0-3.54-1.39-3.67-4.18-.15-3.6,1.47-5.76,4.83-6.48.56-.12,1.56-.34,3-.68,1.44-.33,2.53-.59,3.29-.77l2.87-16.3h-4.86c-3.36,0-4.75-1.68-4.15-5.04.6-3.42,2.58-5.13,5.95-5.13h4.86l2.21-12.52c.57-3.24,2.48-4.86,5.72-4.86M175.41,4.88c1.8,0,3.16.56,4.07,1.67.91,1.11,1.21,2.57.9,4.37l-3.49,19.81c-.32,1.8-1.13,3.26-2.44,4.37-1.31,1.11-2.86,1.67-4.66,1.67h-32.96c-1.8,0-3.14-.55-4.03-1.67-.89-1.11-1.17-2.57-.85-4.37l3.49-19.81c.32-1.8,1.11-3.26,2.39-4.37,1.28-1.11,2.81-1.67,4.62-1.67h32.96M144.24,17.22h24.58l.46-2.61c.24-1.38-.33-2.07-1.71-2.07h-20.26c-1.5,0-2.38.75-2.65,2.25l-.43,2.43M167.58,24.24h-24.58l-.48,2.7c-.24,1.38.32,2.07,1.71,2.07h20.26c1.5,0,2.38-.75,2.65-2.25l.44-2.52M175.16,40.99c2.94,0,4.15,1.47,3.63,4.41-.52,2.94-2.25,4.41-5.19,4.41h-17.83l-1.43,8.1h13.15c2.82,0,3.98,1.41,3.49,4.23-.51,2.88-2.17,4.32-4.99,4.32h-13.15l-1.87,10.63c2.13.18,4.24.27,6.35.27h11.8c.15,0,.29,0,.43,0,2.04,0,3.35.41,3.91,1.22.6.87.41,2.36-.56,4.46-1.18,2.58-3.29,3.87-6.36,3.87h-11.44c-6.6,0-11.92-.93-15.94-2.79-4.02-1.86-7.05-5.4-9.07-10.63-2.2,3.96-4.88,7.56-8.03,10.81-1.49,1.32-2.76,2.04-3.8,2.16-.1.01-.21.02-.31.02-.95,0-1.96-.49-3.03-1.46-1.39-1.32-1.98-2.58-1.76-3.78.21-1.2,1.19-2.52,2.95-3.96,4.57-4.8,8.26-11.1,11.08-18.91.55-1.74,1.4-3.09,2.56-4.05.98-.81,2.11-1.21,3.39-1.21.24,0,.49.01.74.04,3.18.36,4.2,2.25,3.05,5.67-.79,2.1-1.34,3.54-1.66,4.32,1.04,4.98,3.05,8.55,6.03,10.72l4.24-24.04h-17.02c-2.94,0-4.15-1.47-3.63-4.41.52-2.94,2.25-4.41,5.19-4.41h45.11M117.73.09c-4.22,0-6.95,2.31-7.69,6.52l-1.92,10.86h-3.18c-4.33,0-7.15,2.41-7.92,6.79-.4,2.3-.05,4.12,1.05,5.43,1.09,1.3,2.8,1.96,5.08,1.96h2.48l-2.23,12.65c-.57.13-1.23.29-1.99.46-1.43.33-2.41.55-2.97.67-4.32.92-6.6,3.95-6.42,8.52.24,5.51,4.04,6.1,5.67,6.1.8,0,1.68-.12,2.64-.37.03,0,.06-.02.09-.03.03,0,.11-.03.3-.08l-2.69,15.26h-.39c-3.15,0-5.49.81-6.94,2.41-1.28,1.41-1.82,3.34-1.59,5.72.18,2.42,1.62,4.25,4.05,5.11,1.27.45,2.63.68,4.04.68.82,0,1.68-.08,2.55-.23,2.22-.4,4.16-1.08,5.77-2.03,1.78-.97,3.16-2.34,4.1-4.08.87-1.62,1.54-3.8,2.05-6.68l3.58-20.28,4.57-1.28c2.18-.6,3.8-1.77,4.81-3.47.97.74,2.28,1.11,3.91,1.11h1.44c-.52.25-1.02.57-1.49.96-1.45,1.2-2.52,2.87-3.18,4.95-2.69,7.44-6.24,13.52-10.55,18.09-2.09,1.74-3.26,3.4-3.55,5.08-.33,1.9.46,3.77,2.35,5.58,1.48,1.34,2.95,2.01,4.41,2.01.18,0,.36-.01.54-.03,1.48-.17,3.08-1.04,4.9-2.65.04-.03.07-.07.11-.1,2.37-2.44,4.5-5.1,6.37-7.95,2.12,3.83,4.96,6.58,8.46,8.19,4.27,1.98,9.92,2.98,16.78,2.98h11.44c3.85,0,6.67-1.74,8.18-5.04.47-1.03,1.93-4.17.39-6.42-.97-1.41-2.78-2.09-5.56-2.09-.15,0-.3,0-.45,0h-11.77c-1.32,0-2.65-.04-3.99-.11l1.2-6.78h11.47c3.81,0,6.28-2.12,6.96-5.97.36-2.02.04-3.65-.95-4.82-.98-1.17-2.49-1.76-4.51-1.76h-10.76l.72-4.1h16.15c3.93,0,6.47-2.15,7.16-6.06.37-2.08.04-3.75-.97-4.96-1-1.2-2.56-1.8-4.63-1.8h-45.11c-2.54,0-4.5.9-5.75,2.59-.64-.66-1.8-1.43-3.72-1.43-.73,0-1.55.11-2.44.33l-.3.07,1.57-8.92h2.37c4.33,0,7.14-2.38,7.9-6.7.41-2.34.06-4.2-1.05-5.52-1.09-1.3-2.79-1.96-5.05-1.96h-1.67l1.79-10.17c.39-2.24.05-4.02-1.03-5.3-1.06-1.27-2.73-1.91-4.95-1.91h0ZM136.53,51.81h6.6l-3.15,17.87c-1.17-1.67-2.06-3.8-2.65-6.38.33-.83.81-2.08,1.45-3.79,0-.02.02-.05.03-.07.8-2.41.73-4.38-.21-5.86-.49-.77-1.18-1.36-2.06-1.78h0ZM175.41,2.88h-32.96c-2.29,0-4.28.73-5.93,2.16-1.63,1.42-2.65,3.28-3.05,5.53l-3.49,19.81c-.42,2.38,0,4.39,1.26,5.96.88,1.1,2.56,2.42,5.59,2.42h32.96c2.28,0,4.28-.72,5.96-2.14,1.66-1.41,2.71-3.28,3.11-5.54l3.49-19.81c.42-2.39-.02-4.41-1.32-5.98-1.31-1.59-3.2-2.4-5.62-2.4h0ZM146.62,15.22v-.08c.12-.58.2-.6.69-.6h19.95l-.12.68h-20.52ZM144.68,26.24h20.52l-.03.17c-.1.58-.19.6-.68.6h-19.95l.14-.77h0Z"/>
        </g>
        <g>
          <path class="cls-2" d="M207.11,82.42c-7.66,0-13.67-2.58-17.85-7.66-4.18-5.08-5.54-11.98-4.03-20.53,1.45-8.23,5.13-15.03,10.94-20.2,5.82-5.19,12.18-7.82,18.88-7.82,7.23,0,12.49,2.46,15.62,7.3,3.07,4.76,3.95,11.03,2.61,18.64-.2,1.15-.5,2.48-.88,3.95,0,.03-.02.07-.03.1-.3.81-.91,1.5-1.8,2.07-.87.55-1.8.83-2.77.83h-28.11c0,3.38.91,6.04,2.69,7.9,1.98,2.06,4.71,3.07,8.36,3.07,2.16,0,4.55-.47,7.12-1.38,1.15-.53,2.27-.82,3.26-.82,1.46,0,3.42.62,4.48,3.59,1.07,3.2,0,5.73-3.09,7.34-5.12,2.41-10.29,3.62-15.4,3.62ZM220.32,48.18c.4-2.93.07-5.24-.98-6.88-1.11-1.72-3.06-2.56-5.97-2.56-2.57,0-5.02.92-7.28,2.75-1.99,1.61-3.53,3.85-4.6,6.69h18.82Z"/>
          <path class="cls-1" d="M215.05,27.21c6.9,0,11.83,2.28,14.78,6.84,2.95,4.56,3.77,10.54,2.47,17.92-.2,1.14-.49,2.43-.86,3.87-.23.6-.69,1.13-1.4,1.58s-1.46.68-2.24.68h-29.08c-.19,4.14.79,7.34,2.95,9.59,2.15,2.25,5.18,3.38,9.08,3.38,2.28,0,4.77-.48,7.46-1.44,1.1-.51,2.08-.76,2.93-.76,1.67,0,2.84.97,3.53,2.92.9,2.7.03,4.74-2.61,6.12-4.98,2.34-9.95,3.51-14.94,3.51-7.38,0-13.08-2.43-17.08-7.29-4-4.86-5.28-11.44-3.82-19.72,1.42-8.04,4.96-14.59,10.62-19.63,5.66-5.04,11.73-7.56,18.22-7.56M200.1,49.18h21.07c.64-3.6.3-6.41-.99-8.42-1.3-2.01-3.57-3.02-6.81-3.02-2.82,0-5.46.99-7.91,2.97-2.45,1.98-4.24,4.8-5.36,8.46M215.05,25.21c-6.96,0-13.53,2.72-19.55,8.07-5.98,5.33-9.77,12.32-11.26,20.78-1.56,8.85-.13,16.03,4.24,21.34,4.38,5.32,10.65,8.02,18.63,8.02,5.25,0,10.57-1.25,15.79-3.7.02-.01.05-.02.07-.04,3.53-1.84,4.8-4.87,3.58-8.53-1.32-3.73-3.97-4.29-5.43-4.29-1.13,0-2.33.3-3.68.9-2.43.86-4.69,1.3-6.71,1.3-3.36,0-5.86-.9-7.64-2.76-1.45-1.51-2.23-3.55-2.39-6.21h27.08c1.16,0,2.27-.33,3.31-.99,1.08-.69,1.82-1.55,2.2-2.56.03-.07.05-.14.06-.2.39-1.49.69-2.85.9-4.03,1.39-7.86.46-14.37-2.76-19.35-3.33-5.15-8.86-7.76-16.46-7.76h0ZM203,47.18c.95-2.03,2.2-3.68,3.72-4.91,2.1-1.7,4.28-2.53,6.65-2.53,2.54,0,4.21.69,5.13,2.1.82,1.27,1.13,3.06.93,5.33h-16.42Z"/>
        </g>
        <g>
          <path class="cls-3" d="M261.78,88.99c-4.83,0-7.67-1.69-8.42-5.01-.83-3.37.59-5.15,1.93-6.05,1.57-1.05,3.7-1.58,6.34-1.58.29,0,.59,0,.9.02h6.71c1.06-.06,1.59-.28,1.83-.45.36-.25.52-.82.6-1.25l2.41-13.68h-29.51c-2.09,0-3.62-.57-4.56-1.69-.95-1.13-1.24-2.78-.87-4.89.71-4.02,3.24-6.14,7.32-6.14h29.87l1.55-8.81h-23.48c-2.03,0-3.52-.55-4.44-1.64-.93-1.1-1.21-2.7-.85-4.75.71-4.02,3.18-6.14,7.14-6.14h23.83l1.52-8.62c-8.04.61-15.6,1.09-22.51,1.43-.17,0-.32,0-.47,0-1.65,0-2.94-.36-3.83-1.08-1-.8-1.61-2.11-1.79-3.88-.2-1.95.21-3.53,1.21-4.69,1.15-1.33,3.08-2.06,5.71-2.17,22-1.13,39.89-3.21,53.14-6.19.71-.19,1.39-.28,2-.28.72,0,1.36.14,1.9.41.94.48,1.81,1.34,2.68,2.63,1.52,2.21,1.98,4.14,1.36,5.71-.65,1.64-2.35,2.75-5.2,3.38-7.2,1.39-14.17,2.46-20.73,3.18l-1.79,10.15h24.29c2.01,0,3.5.55,4.41,1.64.94,1.12,1.23,2.75.86,4.84-.7,3.96-3.16,6.05-7.13,6.05h-24.64l-1.55,8.81h29.51c2.1,0,3.65.57,4.59,1.69.94,1.12,1.23,2.73.87,4.8-.72,4.08-3.26,6.23-7.34,6.23h-29.87l-2.51,14.21c-.61,3.48-1.52,6.04-2.78,7.83-1.28,1.81-3.19,3.19-5.68,4.1-3.15,1.13-7.89,1.74-14.51,1.86h-.02Z"/>
          <path class="cls-1" d="M315.07,2.46c.57,0,1.05.1,1.45.3.77.39,1.54,1.16,2.3,2.3,2.72,3.96,1.65,6.48-3.22,7.56-7.46,1.44-14.58,2.52-21.37,3.24l-2.13,12.07h25.48c3.48,0,4.91,1.77,4.29,5.31-.61,3.48-2.66,5.22-6.14,5.22h-25.48l-1.91,10.81h30.71c3.6,0,5.09,1.77,4.47,5.31-.64,3.6-2.75,5.4-6.36,5.4h-30.71l-2.65,15.04c-.58,3.3-1.45,5.78-2.62,7.43-1.16,1.65-2.9,2.9-5.21,3.74-3.01,1.08-7.74,1.68-14.18,1.8-4.32,0-6.81-1.41-7.45-4.23-.56-2.28-.06-3.95,1.51-5,1.41-.94,3.33-1.41,5.78-1.41.28,0,.56,0,.86.02h6.75c1.09-.06,1.89-.27,2.41-.63s.85-.99,1.01-1.89l2.62-14.86h-30.71c-3.6,0-5.08-1.8-4.45-5.4.62-3.54,2.74-5.31,6.34-5.31h30.71l1.91-10.81h-24.67c-3.48,0-4.92-1.74-4.3-5.22.62-3.54,2.68-5.31,6.16-5.31h24.67l1.89-10.72c-8.58.66-16.5,1.17-23.77,1.53-.14,0-.28,0-.42,0-1.42,0-2.49-.29-3.21-.86-.79-.63-1.26-1.7-1.42-3.2-.38-3.66,1.61-5.58,5.97-5.76,22.17-1.14,39.94-3.21,53.32-6.21.66-.17,1.26-.26,1.78-.26M315.07.46c-.68,0-1.44.11-2.25.31-13.2,2.96-31.02,5.03-52.95,6.16-2.9.12-5.06.97-6.41,2.52-1.19,1.38-1.68,3.21-1.45,5.45.21,2.05.94,3.58,2.16,4.56,1.08.86,2.58,1.3,4.46,1.3.16,0,.33,0,.49,0,6.57-.33,13.71-.78,21.28-1.34l-1.15,6.53h-22.99c-4.45,0-7.34,2.47-8.13,6.97-.42,2.36-.06,4.23,1.07,5.57,1.11,1.33,2.86,2,5.2,2h22.29l-1.2,6.81h-29.03c-4.57,0-7.52,2.47-8.31,6.97-.43,2.42-.06,4.34,1.09,5.71,1.14,1.36,2.93,2.04,5.33,2.04h28.32l-2.21,12.51c-.07.4-.17.58-.21.62t0,0s-.3.19-1.3.25h-6.66c-.31-.01-.6-.02-.9-.02-2.84,0-5.16.59-6.9,1.75-1.31.88-3.36,2.98-2.34,7.13.59,2.61,2.71,5.76,9.39,5.76,6.76-.13,11.61-.75,14.86-1.92,2.7-.98,4.77-2.49,6.17-4.47,1.35-1.92,2.31-4.61,2.95-8.23l2.36-13.38h29.03c4.57,0,7.52-2.51,8.32-7.06.42-2.37.05-4.26-1.08-5.61-1.14-1.36-2.94-2.04-5.35-2.04h-28.32l1.2-6.81h23.8c4.45,0,7.33-2.44,8.11-6.88.42-2.4.06-4.3-1.08-5.66-1.11-1.33-2.86-2-5.18-2h-23.1l1.45-8.24c6.38-.72,13.11-1.76,20.04-3.1.02,0,.04,0,.05-.01,3.16-.7,5.15-2.04,5.92-3.99.75-1.9.25-4.14-1.48-6.66-.95-1.42-1.95-2.39-3.04-2.95-.69-.35-1.48-.52-2.36-.52h0Z"/>
        </g>
        <g>
          <path class="cls-3" d="M356.01,89.26c-4.66,0-6.18-2.12-6.63-3.91-.72-2.8.39-4.23,1.45-4.95,1.25-.85,2.99-1.26,5.31-1.26.17,0,.34,0,.51,0,1.28.06,2.34.09,3.18.09s1.41-.03,1.79-.08c1.56-.07,1.67-.69,1.72-.98l.24-1.35h-30.23c-1.48,0-2.58-.42-3.27-1.24-.71-.85-.93-2.07-.66-3.62.51-2.9,2.32-4.43,5.22-4.43h30.59l.33-1.87h-24.83c-1.48,0-2.58-.42-3.28-1.24-.71-.85-.93-2.07-.66-3.62.51-2.9,2.32-4.43,5.22-4.43h25.18l.24-1.38c-6.61.22-12.5.33-17.52.33-1.09,0-2.14,0-3.15-.02-3.7,0-4.43-2.39-4.53-3.81-.11-1.54.26-2.77,1.08-3.65.92-.98,2.37-1.48,4.32-1.48,16.51-.18,30.3-.78,41.17-1.78h-32.58c-2.1,0-3.73-.66-4.84-1.97-1.12-1.31-1.5-3.04-1.13-5.14l1.05-5.94c.36-2.03,1.29-3.69,2.77-4.92,1.48-1.23,3.26-1.85,5.29-1.85h39.08c2.1,0,3.73.66,4.84,1.97,1.12,1.31,1.5,3.04,1.13,5.14l-1.05,5.94c-.36,2.03-1.29,3.69-2.77,4.92-.32.27-.66.51-1.01.72,1.22.13,2.32.78,3.27,1.93,1.58,1.83,2.12,3.35,1.64,4.65-.48,1.3-1.89,2.11-4.31,2.47-6.12.76-12.86,1.38-20.07,1.85l-.36,2.01h25.55c1.49,0,2.6.42,3.3,1.24.7.83.92,2.02.65,3.53-.52,2.96-2.33,4.52-5.24,4.52h-25.9l-.33,1.87h30.32c1.45,0,2.53.41,3.21,1.22.7.83.92,2.03.65,3.55-.52,2.96-2.3,4.52-5.15,4.52h-30.68l-.36,2.06c-.46,2.61-1.23,4.63-2.3,6.02-1.1,1.42-2.78,2.48-5.01,3.14-2.46.69-6.52,1.09-12.45,1.21h-.02ZM364.51,33.43c-1.02,0-1.48.37-1.65,1.33l-.08.45c-.08.48-.02.71.03.77.04.05.21.13.6.13h26.2c1.02,0,1.48-.4,1.66-1.42l.08-.45c.07-.41.02-.6-.03-.66-.05-.06-.25-.15-.71-.15h-26.11ZM412.1,34.7c-2.07,0-3.6-.56-4.52-1.66-.93-1.1-1.21-2.7-.85-4.73l.73-4.14c.08-.45.03-.7-.05-.79-.08-.1-.34-.2-.84-.2h-54.12c-1.02,0-1.48.37-1.65,1.33l-.76,4.32c-.68,3.84-3.07,5.87-6.92,5.87-1.97,0-3.42-.54-4.31-1.6-.9-1.07-1.18-2.63-.83-4.62l1.67-9.45c.36-2.03,1.27-3.68,2.72-4.91,1.45-1.23,3.22-1.86,5.26-1.86h6.01c-.34-.96-.73-1.97-1.19-3.01-.69-1.27-.85-2.51-.44-3.6.46-1.22,1.62-2.19,3.45-2.87l1.26-.45c.77-.28,1.53-.42,2.26-.42.91,0,1.8.22,2.62.66,1.41.76,2.52,1.9,3.27,3.4.79,1.38,1.01,2.93.61,4.56-.16.65-.41,1.23-.77,1.74h10.09l.89-5.03c.72-4.07,3.26-6.23,7.34-6.23,2.09,0,3.62.57,4.56,1.69.95,1.13,1.24,2.78.87,4.89l-.83,4.68h8.56c-.26-.33-.37-.67-.42-.96-.09-.56,0-1.4.98-2.22,1.51-1.48,2.76-2.79,3.64-3.84,1.88-2.27,4.02-3.43,6.36-3.43.81,0,1.65.14,2.49.42,2.18.65,3.46,1.7,3.78,3.11.39,1.73-.73,3.74-3.41,6.15-.33.28-.63.54-.92.78h6.29c2.11,0,3.72.67,4.81,1.98,1.08,1.31,1.44,3.04,1.07,5.13l-1.64,9.27c-.7,3.96-3.16,6.05-7.13,6.05Z"/>
          <path class="cls-1" d="M383.02,2c3.6,0,5.08,1.8,4.45,5.4l-1.03,5.85h13.87l-2.51-1.08c-.62-.24-.96-.59-1.03-1.04-.07-.45.14-.88.64-1.31,1.59-1.56,2.85-2.88,3.76-3.96,1.7-2.05,3.56-3.07,5.59-3.07.71,0,1.43.12,2.18.37,4.22,1.26,4.22,3.78.02,7.56-1.41,1.2-2.43,2.04-3.06,2.52h9.09c1.8,0,3.15.54,4.04,1.62.89,1.08,1.18,2.52.86,4.32l-1.64,9.27c-.61,3.48-2.66,5.22-6.14,5.22s-5.01-1.74-4.39-5.22l.73-4.14c.25-1.44-.37-2.16-1.87-2.16h-54.12c-1.5,0-2.38.72-2.63,2.16l-.76,4.32c-.59,3.36-2.57,5.04-5.93,5.04s-4.75-1.68-4.15-5.04l1.67-9.45c.32-1.8,1.11-3.24,2.38-4.32s2.81-1.62,4.61-1.62h7.38c-.42-1.38-.97-2.85-1.65-4.41-1.27-2.34-.46-4.05,2.44-5.13l1.25-.45c.66-.24,1.3-.36,1.92-.36.75,0,1.47.18,2.15.54,1.23.66,2.18,1.65,2.85,2.97.69,1.2.87,2.49.53,3.87-.33,1.38-1.21,2.34-2.62,2.88l-.2.09h13.96l1.03-5.85c.64-3.6,2.75-5.4,6.36-5.4M398.46,25.77c1.8,0,3.16.54,4.08,1.62.92,1.08,1.22,2.52.9,4.32l-1.05,5.94c-.32,1.8-1.13,3.24-2.43,4.32-1.3,1.08-2.85,1.62-4.65,1.62h-39.08c-1.8,0-3.16-.54-4.08-1.62-.92-1.08-1.22-2.52-.9-4.32l1.05-5.94c.32-1.8,1.13-3.24,2.43-4.32,1.3-1.08,2.85-1.62,4.65-1.62h39.08M363.41,37.12h26.2c1.5,0,2.38-.75,2.65-2.25l.08-.45c.23-1.32-.34-1.98-1.72-1.98h-26.11c-1.5,0-2.38.72-2.63,2.16l-.08.45c-.24,1.38.29,2.07,1.62,2.07M399.13,44.44c1.1,0,2.09.53,2.96,1.59,2.64,3.06,1.96,4.89-2.05,5.49-6.32.78-13.25,1.41-20.77,1.89l-.7,3.96h26.74c2.4,0,3.39,1.2,2.97,3.6-.43,2.46-1.85,3.69-4.25,3.69h-26.74l-.68,3.87h31.52c2.34,0,3.3,1.2,2.88,3.6-.43,2.46-1.82,3.69-4.16,3.69h-31.52l-.51,2.88c-.43,2.46-1.14,4.32-2.11,5.58-.97,1.26-2.47,2.19-4.5,2.79-2.34.66-6.4,1.05-12.18,1.17-3.24,0-5.13-1.05-5.66-3.15-.46-1.8-.12-3.09,1.04-3.87,1.08-.73,2.66-1.09,4.75-1.09.16,0,.32,0,.49,0,1.28.06,2.35.09,3.2.09s1.5-.03,1.93-.09c1.51-.06,2.37-.66,2.57-1.8l.44-2.52h-31.43c-2.4,0-3.38-1.23-2.95-3.69.42-2.4,1.83-3.6,4.24-3.6h31.43l.68-3.87h-26.02c-2.4,0-3.39-1.23-2.95-3.69.42-2.4,1.83-3.6,4.24-3.6h26.02l.6-3.42c-7.14.25-13.38.38-18.72.38-1.08,0-2.12,0-3.13-.02-2.22,0-3.4-.96-3.54-2.88-.18-2.7,1.28-4.05,4.41-4.05,21.95-.24,38.9-1.2,50.84-2.88.22-.04.43-.06.64-.06M383.02,0c-4.57,0-7.52,2.51-8.32,7.06l-.74,4.2h-7.66c.05-.16.1-.33.14-.5.45-1.87.21-3.65-.72-5.29-.85-1.66-2.09-2.94-3.67-3.79-.97-.52-2.01-.78-3.09-.78-.85,0-1.72.16-2.61.49l-1.24.45c-2.13.8-3.49,1.96-4.05,3.47-.51,1.35-.34,2.84.5,4.42.23.52.44,1.04.64,1.54h-4.57c-2.28,0-4.27.71-5.9,2.1-1.63,1.39-2.66,3.24-3.06,5.5l-1.67,9.46c-.4,2.3-.05,4.12,1.05,5.43,1.09,1.3,2.8,1.96,5.08,1.96,3.47,0,5.96-1.53,7.21-4.35,0,0,0,.02,0,.02l-1.05,5.94c-.42,2.41.03,4.42,1.35,5.97.84.98,1.9,1.66,3.19,2.02-2.02.04-4.09.07-6.2.09-2.22,0-3.92.6-5.03,1.8-1.02,1.09-1.47,2.57-1.35,4.39.12,1.69.85,3,2.05,3.81h-1.28c-3.36,0-5.62,1.92-6.21,5.25-.33,1.86-.03,3.35.88,4.44.64.76,1.52,1.26,2.63,1.47h-4.67c-3.36,0-5.62,1.92-6.21,5.25-.33,1.86-.03,3.35.88,4.44.89,1.06,2.25,1.6,4.04,1.6h29.04l-.03.17s0,.03,0,.03c-.08.04-.3.1-.67.11-.07,0-.13,0-.2.02-.23.03-.71.07-1.66.07-.82,0-1.87-.03-3.11-.09-.22,0-.4,0-.58,0-2.52,0-4.44.47-5.87,1.43-1.08.73-2.77,2.49-1.86,6.03.53,2.12,2.29,4.65,7.59,4.65,6.05-.13,10.2-.53,12.73-1.25,2.45-.73,4.31-1.9,5.54-3.49,1.19-1.54,2-3.65,2.5-6.46l.22-1.23h29.84c3.3,0,5.53-1.95,6.13-5.34.32-1.83.03-3.3-.87-4.37-.88-1.05-2.22-1.58-3.98-1.58h-2.66c2.57-.48,4.29-2.33,4.8-5.22.32-1.81.03-3.28-.87-4.35-.89-1.06-2.26-1.6-4.06-1.6h-24.36v-.07c6.95-.47,13.45-1.07,19.33-1.8.02,0,.03,0,.05,0,1.03-.15,4.18-.62,5.1-3.11.92-2.48-1.15-4.88-1.83-5.67-.62-.75-1.27-1.27-1.9-1.61,1.41-1.34,2.3-3.05,2.66-5.11l1.05-5.94c.42-2.41-.03-4.41-1.35-5.97-.77-.91-1.74-1.55-2.9-1.93h5.27l-.7,3.96c-.41,2.34-.05,4.21,1.07,5.55,1.13,1.34,2.91,2.02,5.29,2.02,4.45,0,7.33-2.44,8.11-6.88l1.64-9.27c.42-2.39-.01-4.39-1.28-5.94-1.28-1.56-3.16-2.35-5.58-2.35h-3.68c1.64-1.65,3.22-3.82,2.7-6.14-.4-1.78-1.9-3.08-4.47-3.85-.94-.31-1.87-.46-2.78-.46-2.64,0-5.04,1.28-7.13,3.8-.85,1-2.05,2.27-3.58,3.77-1.21,1.06-1.34,2.2-1.28,2.89h-5.94l.62-3.51c.43-2.42.06-4.34-1.09-5.71-1.14-1.36-2.93-2.04-5.33-2.04h0ZM351.01,29.08s0-.05.01-.08l.76-4.32c.08-.44.09-.51.66-.51h4.12c-1.14.34-2.18.91-3.12,1.68-1.07.89-1.88,1.97-2.44,3.22h0ZM363.81,35.12l.03-.17c.08-.44.09-.51.66-.51h25.8v.08c-.12.58-.2.6-.69.6h-25.8Z"/>
        </g>
      </g>
    </g>
  </g>
</svg>