<?xml version="1.0" encoding="UTF-8"?>
<svg id="Layer_2" data-name="Layer 2" xmlns="http://www.w3.org/2000/svg" viewBox="0 0 75.79 53.54">
  <defs>
    <style>
      .cls-1, .cls-2, .cls-3, .cls-4, .cls-5, .cls-6 {
        stroke-width: 0px;
      }

      .cls-2 {
        fill: #4080d4;
      }

      .cls-3 {
        fill: #d6d9f7;
      }

      .cls-4 {
        fill: #ffdba2;
      }

      .cls-5 {
        fill: #fff;
      }

      .cls-6 {
        fill: #ffb2b1;
      }
    </style>
  </defs>
  <g id="_圖層_4" data-name="圖層 4">
    <g>
      <g>
        <g>
          <rect class="cls-4" x="65.74" y="33.33" width="3.83" height="20.21"/>
          <rect class="cls-4" x="6.22" y="33.33" width="3.83" height="20.21"/>
        </g>
        <g>
          <path class="cls-2" d="M56.7,36.08v-5.13h-20.62c-1.5,0-2.79.83-3.48,2.05-.33.59-.54,1.26-.54,1.98v13.94h8.74v-10.13h1.21v10.13h8.74v-10.13h4.07c.98,0,1.89-.31,2.64-.84-.47-.49-.75-1.14-.75-1.87Z"/>
          <path class="cls-4" d="M42.01,48.92l-1.21.87v-.87h-8.74l-2.58,1.85c-.4.29-.64.75-.64,1.24,0,.84.68,1.53,1.53,1.53h8.9c.18,0,.36-.04.52-.1.16.06.34.1.52.1h8.9c.84,0,1.53-.68,1.53-1.53v-3.09h-8.74Z"/>
          <path class="cls-3" d="M56.7,13.47h-18.69c-2.99,0-5.41,2.42-5.41,5.41v14.12c.69-1.22,1.99-2.05,3.48-2.05h20.62v3.42h5.41v-15.49c0-2.99-2.42-5.41-5.41-5.41Z"/>
          <g>
            <path class="cls-6" d="M50.91,5.12c.03.19.06.38.07.57-.01-.14-.04-.35-.07-.57Z"/>
            <path class="cls-6" d="M50.77,4.45c-.05-.18-.1-.37-.17-.57.07.18.12.38.17.57Z"/>
            <path class="cls-6" d="M50.91,5.12c-.03-.23-.08-.45-.14-.67.06.25.1.47.14.67Z"/>
            <path class="cls-6" d="M46.45,8.42c.37-.35.91-1.53.84-2.44-.06-.82-.62-1.42-2.28-.94-1.38.39-3.35-.48-5.11-1.03-.17-.05-.32-.13-.46-.22-.27.68-.42,1.42-.42,2.2,0,2.96,2.16,5.42,4.99,5.89v1.59h6.98v-3.16l-1.34-.55-3.21-1.33Z"/>
            <path class="cls-6" d="M59.4,34.37h-2.7v1.71c0,.73.29,1.38.75,1.87.49.51,1.18.84,1.95.84,1.49,0,2.71-1.21,2.71-2.71v-1.71h-2.72Z"/>
          </g>
          <path class="cls-1" d="M50.98,5.7c-.03-.37-.12-1.05-.37-1.82-.53-1.6-1.82-3.57-4.89-3.83-.23-.02-.45-.04-.7-.04-1.86,0-3.55.25-4.98.58-1.58.37-1.8,2.4-.58,3.2.14.09.28.17.46.22,1.75.56,3.73,1.43,5.11,1.03,1.66-.47,2.22.12,2.28.94.07.91-.47,2.09-.84,2.44l3.21,1.33,1.34.55v-4.32s0-.11-.01-.29Z"/>
        </g>
      </g>
      <rect class="cls-5" y="38.79" width="75.79" height="3.83"/>
      <rect class="cls-5" x="0" y="18.93" width="75.79" height="14.4"/>
    </g>
  </g>
</svg>