<?xml version="1.0" encoding="UTF-8"?>
<svg id="Layer_2" data-name="Layer 2" xmlns="http://www.w3.org/2000/svg" viewBox="0 0 52.79 59.09">
  <defs>
    <style>
      .cls-1, .cls-2, .cls-3, .cls-4, .cls-5, .cls-6 {
        stroke-width: 0px;
      }

      .cls-2 {
        fill: #4080d4;
      }

      .cls-3 {
        fill: #d6d9f7;
      }

      .cls-4 {
        fill: #ffdba2;
      }

      .cls-5 {
        fill: #fff;
      }

      .cls-6 {
        fill: #ffb2b1;
      }
    </style>
  </defs>
  <g id="_圖層_4" data-name="圖層 4">
    <g>
      <path class="cls-3" d="M18.34,57.56c0,.84.68,1.53,1.53,1.53h8.9c.84,0,1.53-.68,1.53-1.53,0-.49-.24-.95-.64-1.24l-2.58-1.85h-8.74v3.09Z"/>
      <g>
        <path class="cls-6" d="M25.19,4.01c-1.75.56-3.73,1.43-5.11,1.03-1.66-.47-2.22.12-2.28.94-.03.39.05.82.18,1.22l.66,1.16v1.42c0,.68-.2,1.3-.52,1.85-.64,1.09-1.81,1.83-3.16,1.83h6.12v-1.59c2.83-.48,4.99-2.93,4.99-5.89,0-.78-.15-1.52-.42-2.2-.14.09-.28.17-.46.22Z"/>
        <path class="cls-6" d="M14.1,13.47h.87c-.3,0-.59-.04-.87-.11v.11Z"/>
        <path class="cls-6" d="M39.97,21.21h-1.71v5.41h1.71c1.49,0,2.71-1.21,2.71-2.71s-1.21-2.71-2.71-2.71Z"/>
        <path class="cls-6" d="M2.98,36.08c0,1.49,1.21,2.71,2.71,2.71s2.71-1.21,2.71-2.71v-1.71H2.98v1.71Z"/>
      </g>
      <path class="cls-3" d="M.45,50.18c-.6.6-.6,1.56,0,2.16l6.29,6.29c.6.6,1.56.6,2.16,0,.35-.35.51-.84.43-1.33l-.51-3.13-6.18-6.18-2.19,2.19Z"/>
      <path class="cls-2" d="M18.34,30.95h-9.95v11.29l-5.75,5.75,6.18,6.18,6.1-6.1c1.42-1.42,2.22-3.34,2.22-5.35v-6.35h1.21v18.09h8.74v-23.51h-8.74Z"/>
      <g>
        <path class="cls-5" d="M32.49,18.88c0-2.99-2.42-5.41-5.41-5.41H8.39c-2.99,0-5.41,2.42-5.41,5.41v15.49h5.41v-3.42h18.69v-4.33h11.18v-5.41h-5.77v-2.33Z"/>
        <circle class="cls-4" cx="49.58" cy="17.61" r="3.21" transform="translate(-2.72 11.86) rotate(-13.28)"/>
      </g>
      <path class="cls-1" d="M25.06.58c-1.43-.33-3.12-.58-4.98-.58-.25,0-.47.02-.7.04-2.17.19-3.47,1.22-4.22,2.39h0s-3.33,5.43-3.33,5.43c-1.35,2.19-.07,4.94,2.27,5.5.28.07.56.11.87.11,1.35,0,2.52-.74,3.16-1.83.32-.55.52-1.17.52-1.85v-1.42l-.66-1.16c-.13-.4-.21-.83-.18-1.22.06-.82.62-1.42,2.28-.94,1.38.39,3.35-.48,5.11-1.03.17-.05.32-.13.46-.22,1.22-.8,1-2.83-.58-3.2Z"/>
    </g>
  </g>
</svg>