<?xml version="1.0" encoding="UTF-8"?>
<svg id="Layer_2" data-name="Layer 2" xmlns="http://www.w3.org/2000/svg" viewBox="0 0 30.47 27.08">
  <defs>
    <style>
      .cls-1 {
        fill: #fff;
        stroke-width: 0px;
      }
    </style>
  </defs>
  <g id="_內容" data-name="內容">
    <g>
      <path class="cls-1" d="M14.28,24.21v2.87h-4.66c-1.12,0-1.91-.09-2.37-.26-.46-.17-.77-.43-.93-.77s-.24-.95-.24-1.84c-1.4-.04-2.6-.41-3.6-1.1s-1.67-1.58-1.99-2.64c-.32-1.07-.48-2.67-.48-4.8v-7.34c0-1.61.1-2.84.29-3.68s.58-1.64,1.18-2.39c.6-.75,1.36-1.31,2.3-1.69s1.98-.57,3.12-.57c1.38,0,2.6.23,3.68.7s1.88,1.06,2.42,1.79c.53.72.88,1.47,1.04,2.25s.24,1.93.24,3.46v7.7c0,2.11-.1,3.54-.31,4.29-.21.75-.6,1.35-1.18,1.79-.58.44-1.35.78-2.32,1.02.03.53.14.87.33,1s.64.21,1.35.21h2.14ZM8.1,6.59c0-1.1-.06-1.81-.18-2.12-.12-.31-.37-.46-.75-.46-.32,0-.57.12-.74.37-.17.25-.26.98-.26,2.2v11.07c0,1.38.06,2.23.17,2.55s.37.48.78.48.69-.19.81-.56.18-1.25.18-2.65V6.59Z"/>
      <path class="cls-1" d="M29.31.5v3.79h-7.34v4.03c.92-1.08,2.1-1.63,3.54-1.63,1.63,0,2.86.46,3.7,1.37.83.91,1.25,2.67,1.25,5.27v3.38c0,1.68-.08,2.91-.24,3.7s-.51,1.51-1.03,2.18c-.53.67-1.26,1.18-2.2,1.54-.94.36-2.09.53-3.45.53-1.52,0-2.87-.27-4.03-.8-1.16-.53-1.99-1.33-2.48-2.38s-.73-2.69-.73-4.89v-1.29h5.92v1.48c0,1.53.05,2.62.16,3.27s.48.97,1.11.97c.29,0,.53-.09.71-.28s.28-.39.29-.6.03-1.15.05-2.8v-4.7c0-.89-.09-1.49-.28-1.82s-.49-.48-.92-.48c-.27,0-.5.08-.69.25s-.31.34-.36.54c-.05.19-.08.63-.08,1.33h-5.86l.25-11.95h12.7Z"/>
    </g>
  </g>
</svg>