<?xml version="1.0" encoding="UTF-8"?>
<svg id="Layer_2" data-name="Layer 2" xmlns="http://www.w3.org/2000/svg" viewBox="0 0 731.67 731.67">
  <defs>
    <style>
      .cls-1, .cls-2 {
        stroke-width: 0px;
      }

      .cls-2 {
        fill: #fff;
      }
    </style>
  </defs>
  <g id="_圖層_4" data-name="圖層 4">
    <g>
      <path class="cls-2" d="M419.96,21.68h0c19.25,17.41,45.7,24.5,71.08,19.04h0c40.51-8.7,81.03,14.69,93.75,54.13h0c7.97,24.7,27.33,44.07,52.03,52.03h0c39.44,12.72,62.83,53.24,54.13,93.75h0c-5.45,25.38,1.63,51.83,19.04,71.08h0c27.79,30.73,27.79,77.52,0,108.25h0c-17.41,19.25-24.5,45.7-19.04,71.08h0c8.7,40.51-14.69,81.03-54.13,93.75h0c-24.7,7.97-44.07,27.33-52.03,52.03h0c-12.72,39.44-53.24,62.83-93.75,54.13h0c-25.38-5.45-51.83,1.63-71.08,19.04h0c-30.73,27.79-77.52,27.79-108.25,0h0c-19.25-17.41-45.7-24.5-71.08-19.04h0c-40.51,8.7-81.03-14.69-93.75-54.13h0c-7.97-24.7-27.33-44.07-52.03-52.03h0c-39.44-12.72-62.83-53.24-54.13-93.75h0c5.45-25.38-1.63-51.83-19.04-71.08h0c-27.79-30.73-27.79-77.52,0-108.25h0c17.41-19.25,24.5-45.7,19.04-71.08h0c-8.7-40.51,14.69-81.03,54.13-93.75h0c24.7-7.97,44.07-27.33,52.03-52.03h0c12.72-39.44,53.24-62.83,93.75-54.13h0c25.38,5.45,51.83-1.63,71.08-19.04h0c30.73-27.79,77.52-27.79,108.25,0Z"/>
      <path class="cls-1" d="M365.84,731.67c-19.53,0-39.06-7.04-54.63-21.12-19.02-17.2-45.34-24.26-70.42-18.87-5.8,1.25-11.61,1.85-17.32,1.85-34.69,0-66.24-22.16-77.3-56.48-7.87-24.41-27.14-43.68-51.55-51.55-39.96-12.89-63.45-53.57-54.63-94.62,5.39-25.07-1.67-51.4-18.87-70.42-28.17-31.14-28.17-78.11,0-109.26,17.2-19.02,24.25-45.34,18.87-70.42-8.82-41.05,14.66-81.73,54.63-94.62,24.41-7.87,43.68-27.14,51.55-51.55,12.89-39.96,53.57-63.45,94.62-54.63,25.07,5.39,51.4-1.67,70.42-18.87,31.14-28.17,78.11-28.17,109.26,0,14.82,13.4,34.07,20.64,53.7,20.64,5.57,0,11.17-.58,16.71-1.77,41.06-8.82,81.73,14.66,94.62,54.63,7.87,24.41,27.14,43.68,51.55,51.55,39.96,12.89,63.45,53.57,54.63,94.62-5.39,25.07,1.67,51.4,18.87,70.42,28.17,31.14,28.17,78.11,0,109.26-17.2,19.02-24.26,45.34-18.87,70.42,8.82,41.05-14.66,81.73-54.63,94.62-24.41,7.87-43.68,27.14-51.55,51.55-12.89,39.96-53.57,63.45-94.62,54.63-25.07-5.39-51.4,1.67-70.42,18.87-15.57,14.08-35.1,21.12-54.63,21.12ZM257.5,688.41c20,0,39.61,7.38,54.71,21.03,30.57,27.65,76.68,27.65,107.25,0,19.38-17.52,46.19-24.71,71.74-19.22,40.3,8.66,80.23-14.39,92.88-53.62,8.02-24.86,27.65-44.5,52.52-52.52,39.23-12.65,62.28-52.58,53.62-92.88-5.49-25.54,1.7-52.36,19.22-71.74,27.65-30.57,27.65-76.68,0-107.25-17.52-19.38-24.71-46.19-19.22-71.74,8.66-40.3-14.39-80.23-53.62-92.88-24.86-8.02-44.5-27.65-52.52-52.52-12.65-39.23-52.58-62.28-92.88-53.62-25.54,5.49-52.36-1.7-71.74-19.22l.5-.56-.5.56c-30.57-27.65-76.68-27.65-107.25,0-15.09,13.65-34.71,21.03-54.71,21.03-5.68,0-11.38-.59-17.03-1.81-40.3-8.66-80.23,14.39-92.88,53.62-8.02,24.86-27.65,44.5-52.52,52.52-39.23,12.65-62.28,52.58-53.62,92.88,5.49,25.54-1.7,52.36-19.22,71.74-27.65,30.57-27.65,76.68,0,107.25,17.52,19.38,24.71,46.19,19.22,71.74-8.66,40.3,14.39,80.23,53.62,92.88,24.86,8.02,44.5,27.65,52.52,52.52,12.65,39.23,52.58,62.28,92.88,53.62,5.65-1.21,11.35-1.81,17.03-1.81Z"/>
    </g>
  </g>
</svg>